{
	"asset":{
		"generator":"Khronos glTF Blender I/O v5.2.40",
		"version":"2.0"
	},
	"scene":0,
	"scenes":[
		{
			"name":"Scene",
			"nodes":[
				0,
				1,
				2,
				3
			]
		}
	],
	"nodes":[
		{
			"mesh":0,
			"name":"Base & Headboard"
		},
		{
			"mesh":1,
			"name":"Bedsheet"
		},
		{
			"mesh":2,
			"name":"Pillows"
		},
		{
			"mesh":3,
			"name":"Quilt"
		}
	],
	"materials":[
		{
			"doubleSided":true,
			"name":"Bed",
			"pbrMetallicRoughness":{
				"baseColorFactor":[
					1,
					1,
					1,
					1
				],
				"metallicFactor":0,
				"roughnessFactor":0.5
			}
		},
		{
			"doubleSided":true,
			"name":"Sheets",
			"pbrMetallicRoughness":{
				"baseColorTexture":{
					"index":0
				},
				"metallicFactor":0,
				"roughnessFactor":0.5
			}
		},
		{
			"doubleSided":true,
			"name":"Blanket",
			"pbrMetallicRoughness":{
				"baseColorTexture":{
					"index":1
				},
				"metallicFactor":0,
				"roughnessFactor":0.5
			}
		}
	],
	"meshes":[
		{
			"name":"Cube.002",
			"primitives":[
				{
					"attributes":{
						"POSITION":0,
						"NORMAL":1
					},
					"indices":2,
					"material":0
				}
			]
		},
		{
			"name":"bedsheet01.001",
			"primitives":[
				{
					"attributes":{
						"POSITION":3,
						"NORMAL":4,
						"TEXCOORD_0":5
					},
					"indices":6,
					"material":1
				}
			]
		},
		{
			"name":"bedsheet01.002",
			"primitives":[
				{
					"attributes":{
						"POSITION":7,
						"NORMAL":8,
						"TEXCOORD_0":9
					},
					"indices":10,
					"material":2
				}
			]
		},
		{
			"name":"Pattern2D_4280.002",
			"primitives":[
				{
					"attributes":{
						"POSITION":11,
						"NORMAL":12,
						"TEXCOORD_0":13
					},
					"indices":14,
					"material":2
				}
			]
		}
	],
	"textures":[
		{
			"sampler":0,
			"source":0
		},
		{
			"sampler":0,
			"source":1
		}
	],
	"images":[
		{
			"mimeType":"image/jpeg",
			"name":"Fabric060_4K-JPG_Color",
			"uri":"Fabric060_4K-JPG_Color.jpg"
		},
		{
			"mimeType":"image/jpeg",
			"name":"rough_linen_diff_4k",
			"uri":"rough_linen_diff_4k.jpg"
		}
	],
	"accessors":[
		{
			"bufferView":0,
			"componentType":5126,
			"count":1024,
			"max":[
				0.004000857472419739,
				0.1624598205089569,
				0.25230324268341064
			],
			"min":[
				-0.32235339283943176,
				0.008689753711223602,
				-0.18829761445522308
			],
			"type":"VEC3"
		},
		{
			"bufferView":1,
			"componentType":5126,
			"count":1024,
			"type":"VEC3"
		},
		{
			"bufferView":2,
			"componentType":5123,
			"count":1860,
			"type":"SCALAR"
		},
		{
			"bufferView":3,
			"componentType":5126,
			"count":10675,
			"max":[
				6.139278411865234e-06,
				0.11456319689750671,
				0.2484305500984192
			],
			"min":[
				-0.3188067078590393,
				0.04268234223127365,
				-0.14694708585739136
			],
			"type":"VEC3"
		},
		{
			"bufferView":4,
			"componentType":5126,
			"count":10675,
			"type":"VEC3"
		},
		{
			"bufferView":5,
			"componentType":5126,
			"count":10675,
			"type":"VEC2"
		},
		{
			"bufferView":6,
			"componentType":5123,
			"count":60576,
			"type":"SCALAR"
		},
		{
			"bufferView":7,
			"componentType":5126,
			"count":21374,
			"max":[
				-0.00779232382774353,
				0.16680875420570374,
				-0.052430346608161926
			],
			"min":[
				-0.3191419839859009,
				0.11064432561397552,
				-0.14971709251403809
			],
			"type":"VEC3"
		},
		{
			"bufferView":8,
			"componentType":5126,
			"count":21374,
			"type":"VEC3"
		},
		{
			"bufferView":9,
			"componentType":5126,
			"count":21374,
			"type":"VEC2"
		},
		{
			"bufferView":10,
			"componentType":5123,
			"count":125496,
			"type":"SCALAR"
		},
		{
			"bufferView":11,
			"componentType":5126,
			"count":573002,
			"max":[
				0.030858516693115234,
				0.15631705522537231,
				0.287256121635437
			],
			"min":[
				-0.36930331587791443,
				0.000911672250367701,
				-0.05768473818898201
			],
			"type":"VEC3"
		},
		{
			"bufferView":12,
			"componentType":5126,
			"count":573002,
			"type":"VEC3"
		},
		{
			"bufferView":13,
			"componentType":5126,
			"count":573002,
			"type":"VEC2"
		},
		{
			"bufferView":14,
			"componentType":5125,
			"count":3380544,
			"type":"SCALAR"
		}
	],
	"bufferViews":[
		{
			"buffer":0,
			"byteLength":12288,
			"byteOffset":0,
			"target":34962
		},
		{
			"buffer":0,
			"byteLength":12288,
			"byteOffset":12288,
			"target":34962
		},
		{
			"buffer":0,
			"byteLength":3720,
			"byteOffset":24576,
			"target":34963
		},
		{
			"buffer":0,
			"byteLength":128100,
			"byteOffset":28296,
			"target":34962
		},
		{
			"buffer":0,
			"byteLength":128100,
			"byteOffset":156396,
			"target":34962
		},
		{
			"buffer":0,
			"byteLength":85400,
			"byteOffset":284496,
			"target":34962
		},
		{
			"buffer":0,
			"byteLength":121152,
			"byteOffset":369896,
			"target":34963
		},
		{
			"buffer":0,
			"byteLength":256488,
			"byteOffset":491048,
			"target":34962
		},
		{
			"buffer":0,
			"byteLength":256488,
			"byteOffset":747536,
			"target":34962
		},
		{
			"buffer":0,
			"byteLength":170992,
			"byteOffset":1004024,
			"target":34962
		},
		{
			"buffer":0,
			"byteLength":250992,
			"byteOffset":1175016,
			"target":34963
		},
		{
			"buffer":0,
			"byteLength":6876024,
			"byteOffset":1426008,
			"target":34962
		},
		{
			"buffer":0,
			"byteLength":6876024,
			"byteOffset":8302032,
			"target":34962
		},
		{
			"buffer":0,
			"byteLength":4584016,
			"byteOffset":15178056,
			"target":34962
		},
		{
			"buffer":0,
			"byteLength":13522176,
			"byteOffset":19762072,
			"target":34963
		}
	],
	"samplers":[
		{
			"magFilter":9729,
			"minFilter":9987
		}
	],
	"buffers":[
		{
			"byteLength":33284248,
			"uri":"bed.bin"
		}
	]
}
