{
	"asset":{
		"generator":"Khronos glTF Blender I/O v5.2.40",
		"version":"2.0"
	},
	"scene":0,
	"scenes":[
		{
			"name":"Scene",
			"nodes":[
				5
			]
		}
	],
	"nodes":[
		{
			"mesh":0,
			"name":"John_Lewis_Slatted_2_Door_Cabinet_001"
		},
		{
			"mesh":1,
			"name":"John_Lewis_Slatted_2_Door_Cabinet_003"
		},
		{
			"mesh":2,
			"name":"John_Lewis_Slatted_2_Door_Cabinet_004"
		},
		{
			"mesh":3,
			"name":"John_Lewis_Slatted_2_Door_Cabinet_005"
		},
		{
			"name":"Untitled"
		},
		{
			"children":[
				0,
				1,
				2,
				3,
				4
			],
			"name":"John_Lewis_Slatted_2_Door_Cabinet_002"
		}
	],
	"materials":[
		{
			"doubleSided":true,
			"name":"cabinet",
			"pbrMetallicRoughness":{
				"baseColorTexture":{
					"index":0
				},
				"metallicFactor":0,
				"roughnessFactor":0.5
			}
		}
	],
	"meshes":[
		{
			"name":"Mesh.002",
			"primitives":[
				{
					"attributes":{
						"POSITION":0,
						"NORMAL":1,
						"TEXCOORD_0":2
					},
					"indices":3,
					"material":0
				}
			]
		},
		{
			"name":"Mesh",
			"primitives":[
				{
					"attributes":{
						"POSITION":4,
						"NORMAL":5,
						"TEXCOORD_0":6
					},
					"indices":7,
					"material":0
				}
			]
		},
		{
			"name":"Mesh.001",
			"primitives":[
				{
					"attributes":{
						"POSITION":8,
						"NORMAL":9,
						"TEXCOORD_0":10
					},
					"indices":11,
					"material":0
				}
			]
		},
		{
			"name":"Mesh.003",
			"primitives":[
				{
					"attributes":{
						"POSITION":12,
						"NORMAL":13,
						"TEXCOORD_0":14
					},
					"indices":15
				}
			]
		}
	],
	"textures":[
		{
			"sampler":0,
			"source":0
		}
	],
	"images":[
		{
			"mimeType":"image/jpeg",
			"name":"white_oak_veneer_diff_4k",
			"uri":"white_oak_veneer_diff_4k.jpg"
		}
	],
	"accessors":[
		{
			"bufferView":0,
			"componentType":5126,
			"count":6378,
			"max":[
				-0.004581253044307232,
				0.8880001306533813,
				0.19001181423664093
			],
			"min":[
				-0.4500250220298767,
				0.18208011984825134,
				0.01785305142402649
			],
			"type":"VEC3"
		},
		{
			"bufferView":1,
			"componentType":5126,
			"count":6378,
			"type":"VEC3"
		},
		{
			"bufferView":2,
			"componentType":5126,
			"count":6378,
			"type":"VEC2"
		},
		{
			"bufferView":3,
			"componentType":5123,
			"count":28008,
			"type":"SCALAR"
		},
		{
			"bufferView":4,
			"componentType":5126,
			"count":4206,
			"max":[
				0.4500230550765991,
				0.9200000166893005,
				0.1699882298707962
			],
			"min":[
				-0.45002490282058716,
				0.005974548403173685,
				-0.19001181423664093
			],
			"type":"VEC3"
		},
		{
			"bufferView":5,
			"componentType":5126,
			"count":4206,
			"type":"VEC3"
		},
		{
			"bufferView":6,
			"componentType":5126,
			"count":4206,
			"type":"VEC2"
		},
		{
			"bufferView":7,
			"componentType":5123,
			"count":18552,
			"type":"SCALAR"
		},
		{
			"bufferView":8,
			"componentType":5126,
			"count":6378,
			"max":[
				0.45002496242523193,
				0.8880001306533813,
				0.19001181423664093
			],
			"min":[
				0.004581207409501076,
				0.18208011984825134,
				0.017853019759058952
			],
			"type":"VEC3"
		},
		{
			"bufferView":9,
			"componentType":5126,
			"count":6378,
			"type":"VEC3"
		},
		{
			"bufferView":10,
			"componentType":5126,
			"count":6378,
			"type":"VEC2"
		},
		{
			"bufferView":11,
			"componentType":5123,
			"count":28008,
			"type":"SCALAR"
		},
		{
			"bufferView":12,
			"componentType":5126,
			"count":664,
			"max":[
				0.2975543141365051,
				0.0059746261686086655,
				0.13298793137073517
			],
			"min":[
				-0.2975849211215973,
				-1.4781952550890765e-08,
				-0.1747230589389801
			],
			"type":"VEC3"
		},
		{
			"bufferView":13,
			"componentType":5126,
			"count":664,
			"type":"VEC3"
		},
		{
			"bufferView":14,
			"componentType":5126,
			"count":664,
			"type":"VEC2"
		},
		{
			"bufferView":15,
			"componentType":5123,
			"count":2976,
			"type":"SCALAR"
		}
	],
	"bufferViews":[
		{
			"buffer":0,
			"byteLength":76536,
			"byteOffset":0,
			"target":34962
		},
		{
			"buffer":0,
			"byteLength":76536,
			"byteOffset":76536,
			"target":34962
		},
		{
			"buffer":0,
			"byteLength":51024,
			"byteOffset":153072,
			"target":34962
		},
		{
			"buffer":0,
			"byteLength":56016,
			"byteOffset":204096,
			"target":34963
		},
		{
			"buffer":0,
			"byteLength":50472,
			"byteOffset":260112,
			"target":34962
		},
		{
			"buffer":0,
			"byteLength":50472,
			"byteOffset":310584,
			"target":34962
		},
		{
			"buffer":0,
			"byteLength":33648,
			"byteOffset":361056,
			"target":34962
		},
		{
			"buffer":0,
			"byteLength":37104,
			"byteOffset":394704,
			"target":34963
		},
		{
			"buffer":0,
			"byteLength":76536,
			"byteOffset":431808,
			"target":34962
		},
		{
			"buffer":0,
			"byteLength":76536,
			"byteOffset":508344,
			"target":34962
		},
		{
			"buffer":0,
			"byteLength":51024,
			"byteOffset":584880,
			"target":34962
		},
		{
			"buffer":0,
			"byteLength":56016,
			"byteOffset":635904,
			"target":34963
		},
		{
			"buffer":0,
			"byteLength":7968,
			"byteOffset":691920,
			"target":34962
		},
		{
			"buffer":0,
			"byteLength":7968,
			"byteOffset":699888,
			"target":34962
		},
		{
			"buffer":0,
			"byteLength":5312,
			"byteOffset":707856,
			"target":34962
		},
		{
			"buffer":0,
			"byteLength":5952,
			"byteOffset":713168,
			"target":34963
		}
	],
	"samplers":[
		{
			"magFilter":9729,
			"minFilter":9987
		}
	],
	"buffers":[
		{
			"byteLength":719120,
			"uri":"cabinet.bin"
		}
	]
}
