{
	"asset":{
		"generator":"Khronos glTF Blender I/O v5.2.40",
		"version":"2.0"
	},
	"extensionsUsed":[
		"KHR_materials_emissive_strength"
	],
	"scene":0,
	"scenes":[
		{
			"name":"Scene",
			"nodes":[
				0,
				1
			]
		}
	],
	"nodes":[
		{
			"mesh":0,
			"name":"path1"
		},
		{
			"mesh":1,
			"name":"Plane.014"
		}
	],
	"materials":[
		{
			"doubleSided":true,
			"emissiveFactor":[
				1,
				1,
				1
			],
			"extensions":{
				"KHR_materials_emissive_strength":{
					"emissiveStrength":2
				}
			},
			"name":"Simple.002",
			"pbrMetallicRoughness":{
				"baseColorFactor":[
					0,
					0,
					0,
					1
				]
			}
		},
		{
			"doubleSided":true,
			"emissiveFactor":[
				1,
				0,
				0.28229790925979614
			],
			"extensions":{
				"KHR_materials_emissive_strength":{
					"emissiveStrength":3
				}
			},
			"name":"Simple.003",
			"pbrMetallicRoughness":{
				"baseColorFactor":[
					0,
					0,
					0,
					1
				]
			}
		},
		{
			"doubleSided":true,
			"emissiveFactor":[
				0,
				0.30391407012939453,
				1
			],
			"extensions":{
				"KHR_materials_emissive_strength":{
					"emissiveStrength":3
				}
			},
			"name":"Simple",
			"pbrMetallicRoughness":{
				"baseColorFactor":[
					0,
					0,
					0,
					1
				]
			}
		},
		{
			"doubleSided":true,
			"emissiveFactor":[
				1,
				0.8860520124435425,
				0
			],
			"extensions":{
				"KHR_materials_emissive_strength":{
					"emissiveStrength":3
				}
			},
			"name":"Simple.004",
			"pbrMetallicRoughness":{
				"baseColorFactor":[
					0,
					0,
					0,
					1
				]
			}
		},
		{
			"doubleSided":true,
			"name":"Pure dark",
			"pbrMetallicRoughness":{
				"baseColorFactor":[
					0,
					0,
					0,
					1
				]
			}
		}
	],
	"meshes":[
		{
			"name":"path1",
			"primitives":[
				{
					"attributes":{
						"POSITION":0,
						"NORMAL":1,
						"TEXCOORD_0":2
					},
					"indices":3,
					"material":0
				},
				{
					"attributes":{
						"POSITION":4,
						"NORMAL":5,
						"TEXCOORD_0":6
					},
					"indices":7,
					"material":1
				},
				{
					"attributes":{
						"POSITION":8,
						"NORMAL":9,
						"TEXCOORD_0":10
					},
					"indices":11,
					"material":2
				},
				{
					"attributes":{
						"POSITION":12,
						"NORMAL":13,
						"TEXCOORD_0":14
					},
					"indices":15,
					"material":3
				}
			]
		},
		{
			"name":"Plane.005",
			"primitives":[
				{
					"attributes":{
						"POSITION":16,
						"NORMAL":17,
						"TEXCOORD_0":18
					},
					"indices":19,
					"material":4
				}
			]
		}
	],
	"accessors":[
		{
			"bufferView":0,
			"componentType":5126,
			"count":90074,
			"max":[
				0.82258141040802,
				5.899783611297607,
				0.03830130770802498
			],
			"min":[
				-1.0987656116485596,
				3.4978556632995605,
				0.016684401780366898
			],
			"type":"VEC3"
		},
		{
			"bufferView":1,
			"componentType":5126,
			"count":90074,
			"type":"VEC3"
		},
		{
			"bufferView":2,
			"componentType":5126,
			"count":90074,
			"type":"VEC2"
		},
		{
			"bufferView":3,
			"componentType":5125,
			"count":432510,
			"type":"SCALAR"
		},
		{
			"bufferView":4,
			"componentType":5126,
			"count":5363,
			"max":[
				0.11960119009017944,
				5.816300392150879,
				0.03830130398273468
			],
			"min":[
				-0.9133316874504089,
				5.449438095092773,
				0.016684487462043762
			],
			"type":"VEC3"
		},
		{
			"bufferView":5,
			"componentType":5126,
			"count":5363,
			"type":"VEC3"
		},
		{
			"bufferView":6,
			"componentType":5126,
			"count":5363,
			"type":"VEC2"
		},
		{
			"bufferView":7,
			"componentType":5123,
			"count":25443,
			"type":"SCALAR"
		},
		{
			"bufferView":8,
			"componentType":5126,
			"count":8872,
			"max":[
				-0.09312859177589417,
				4.129339694976807,
				0.03830122947692871
			],
			"min":[
				-0.5026031732559204,
				3.7278456687927246,
				0.016684412956237793
			],
			"type":"VEC3"
		},
		{
			"bufferView":9,
			"componentType":5126,
			"count":8872,
			"type":"VEC3"
		},
		{
			"bufferView":10,
			"componentType":5126,
			"count":8872,
			"type":"VEC2"
		},
		{
			"bufferView":11,
			"componentType":5123,
			"count":43062,
			"type":"SCALAR"
		},
		{
			"bufferView":12,
			"componentType":5126,
			"count":2545,
			"max":[
				-0.18938103318214417,
				4.6937174797058105,
				0.0383012518286705
			],
			"min":[
				-0.48425987362861633,
				4.408644676208496,
				0.01668444275856018
			],
			"type":"VEC3"
		},
		{
			"bufferView":13,
			"componentType":5126,
			"count":2545,
			"type":"VEC3"
		},
		{
			"bufferView":14,
			"componentType":5126,
			"count":2545,
			"type":"VEC2"
		},
		{
			"bufferView":15,
			"componentType":5123,
			"count":11358,
			"type":"SCALAR"
		},
		{
			"bufferView":16,
			"componentType":5126,
			"count":280,
			"max":[
				1.2420872449874878,
				6.11895751953125,
				0.04296949505805969
			],
			"min":[
				-1.7304238080978394,
				3.1464462280273438,
				-0.07924804836511612
			],
			"type":"VEC3"
		},
		{
			"bufferView":17,
			"componentType":5126,
			"count":280,
			"type":"VEC3"
		},
		{
			"bufferView":18,
			"componentType":5126,
			"count":280,
			"type":"VEC2"
		},
		{
			"bufferView":19,
			"componentType":5123,
			"count":504,
			"type":"SCALAR"
		}
	],
	"bufferViews":[
		{
			"buffer":0,
			"byteLength":1080888,
			"byteOffset":0,
			"target":34962
		},
		{
			"buffer":0,
			"byteLength":1080888,
			"byteOffset":1080888,
			"target":34962
		},
		{
			"buffer":0,
			"byteLength":720592,
			"byteOffset":2161776,
			"target":34962
		},
		{
			"buffer":0,
			"byteLength":1730040,
			"byteOffset":2882368,
			"target":34963
		},
		{
			"buffer":0,
			"byteLength":64356,
			"byteOffset":4612408,
			"target":34962
		},
		{
			"buffer":0,
			"byteLength":64356,
			"byteOffset":4676764,
			"target":34962
		},
		{
			"buffer":0,
			"byteLength":42904,
			"byteOffset":4741120,
			"target":34962
		},
		{
			"buffer":0,
			"byteLength":50886,
			"byteOffset":4784024,
			"target":34963
		},
		{
			"buffer":0,
			"byteLength":106464,
			"byteOffset":4834912,
			"target":34962
		},
		{
			"buffer":0,
			"byteLength":106464,
			"byteOffset":4941376,
			"target":34962
		},
		{
			"buffer":0,
			"byteLength":70976,
			"byteOffset":5047840,
			"target":34962
		},
		{
			"buffer":0,
			"byteLength":86124,
			"byteOffset":5118816,
			"target":34963
		},
		{
			"buffer":0,
			"byteLength":30540,
			"byteOffset":5204940,
			"target":34962
		},
		{
			"buffer":0,
			"byteLength":30540,
			"byteOffset":5235480,
			"target":34962
		},
		{
			"buffer":0,
			"byteLength":20360,
			"byteOffset":5266020,
			"target":34962
		},
		{
			"buffer":0,
			"byteLength":22716,
			"byteOffset":5286380,
			"target":34963
		},
		{
			"buffer":0,
			"byteLength":3360,
			"byteOffset":5309096,
			"target":34962
		},
		{
			"buffer":0,
			"byteLength":3360,
			"byteOffset":5312456,
			"target":34962
		},
		{
			"buffer":0,
			"byteLength":2240,
			"byteOffset":5315816,
			"target":34962
		},
		{
			"buffer":0,
			"byteLength":1008,
			"byteOffset":5318056,
			"target":34963
		}
	],
	"buffers":[
		{
			"byteLength":5319064,
			"uri":"cat_neon.bin"
		}
	]
}
