{
	"asset":{
		"generator":"Khronos glTF Blender I/O v5.2.40",
		"version":"2.0"
	},
	"extensionsUsed":[
		"KHR_materials_specular"
	],
	"scene":0,
	"scenes":[
		{
			"name":"Scene",
			"nodes":[
				0,
				1,
				2
			]
		}
	],
	"nodes":[
		{
			"mesh":0,
			"name":"leather"
		},
		{
			"mesh":1,
			"name":"metal"
		},
		{
			"mesh":2,
			"name":"plastic"
		}
	],
	"materials":[
		{
			"doubleSided":true,
			"extensions":{
				"KHR_materials_specular":{
					"specularColorFactor":[
						1.7999999523162842,
						1.7999999523162842,
						1.7999999523162842
					]
				}
			},
			"name":"leather",
			"pbrMetallicRoughness":{
				"baseColorTexture":{
					"index":0
				},
				"metallicFactor":0,
				"roughnessFactor":0.800000011920929
			}
		},
		{
			"doubleSided":true,
			"extensions":{
				"KHR_materials_specular":{
					"specularColorFactor":[
						1.7999999523162842,
						1.7999999523162842,
						1.7999999523162842
					]
				}
			},
			"name":"metal",
			"pbrMetallicRoughness":{
				"baseColorFactor":[
					0.3921568691730499,
					0.3921568691730499,
					0.3921568691730499,
					1
				],
				"metallicFactor":0,
				"roughnessFactor":0.800000011920929
			}
		},
		{
			"doubleSided":true,
			"name":"Metal",
			"pbrMetallicRoughness":{
				"baseColorTexture":{
					"index":1
				},
				"roughnessFactor":0.5
			}
		}
	],
	"meshes":[
		{
			"name":"Mesh",
			"primitives":[
				{
					"attributes":{
						"POSITION":0,
						"NORMAL":1,
						"TEXCOORD_0":2
					},
					"indices":3,
					"material":0
				}
			]
		},
		{
			"name":"Mesh.001",
			"primitives":[
				{
					"attributes":{
						"POSITION":4,
						"NORMAL":5,
						"TEXCOORD_0":6
					},
					"indices":7,
					"material":1
				}
			]
		},
		{
			"name":"Mesh.002",
			"primitives":[
				{
					"attributes":{
						"POSITION":8,
						"NORMAL":9,
						"TEXCOORD_0":10
					},
					"indices":11,
					"material":2
				}
			]
		}
	],
	"textures":[
		{
			"sampler":0,
			"source":0
		},
		{
			"sampler":0,
			"source":1
		}
	],
	"images":[
		{
			"mimeType":"image/png",
			"name":"leather_D",
			"uri":"leather_D.png"
		},
		{
			"mimeType":"image/png",
			"name":"metal_R",
			"uri":"metal_R.png"
		}
	],
	"accessors":[
		{
			"bufferView":0,
			"componentType":5126,
			"count":10048,
			"max":[
				0.2983664870262146,
				0.9838529229164124,
				0.26396384835243225
			],
			"min":[
				-0.28267133235931396,
				0.321407675743103,
				-0.31832069158554077
			],
			"type":"VEC3"
		},
		{
			"bufferView":1,
			"componentType":5126,
			"count":10048,
			"type":"VEC3"
		},
		{
			"bufferView":2,
			"componentType":5126,
			"count":10048,
			"type":"VEC2"
		},
		{
			"bufferView":3,
			"componentType":5123,
			"count":58008,
			"type":"SCALAR"
		},
		{
			"bufferView":4,
			"componentType":5126,
			"count":3146,
			"max":[
				0.2870032787322998,
				0.6151677370071411,
				0.024708259850740433
			],
			"min":[
				-0.27130815386772156,
				0.22194992005825043,
				-0.10918770730495453
			],
			"type":"VEC3"
		},
		{
			"bufferView":5,
			"componentType":5126,
			"count":3146,
			"type":"VEC3"
		},
		{
			"bufferView":6,
			"componentType":5126,
			"count":3146,
			"type":"VEC2"
		},
		{
			"bufferView":7,
			"componentType":5123,
			"count":14490,
			"type":"SCALAR"
		},
		{
			"bufferView":8,
			"componentType":5126,
			"count":52445,
			"max":[
				0.32036516070365906,
				0.6245546936988831,
				0.26867932081222534
			],
			"min":[
				-0.30463486909866333,
				0.002852972596883774,
				-0.314085990190506
			],
			"type":"VEC3"
		},
		{
			"bufferView":9,
			"componentType":5126,
			"count":52445,
			"type":"VEC3"
		},
		{
			"bufferView":10,
			"componentType":5126,
			"count":52445,
			"type":"VEC2"
		},
		{
			"bufferView":11,
			"componentType":5123,
			"count":280734,
			"type":"SCALAR"
		}
	],
	"bufferViews":[
		{
			"buffer":0,
			"byteLength":120576,
			"byteOffset":0,
			"target":34962
		},
		{
			"buffer":0,
			"byteLength":120576,
			"byteOffset":120576,
			"target":34962
		},
		{
			"buffer":0,
			"byteLength":80384,
			"byteOffset":241152,
			"target":34962
		},
		{
			"buffer":0,
			"byteLength":116016,
			"byteOffset":321536,
			"target":34963
		},
		{
			"buffer":0,
			"byteLength":37752,
			"byteOffset":437552,
			"target":34962
		},
		{
			"buffer":0,
			"byteLength":37752,
			"byteOffset":475304,
			"target":34962
		},
		{
			"buffer":0,
			"byteLength":25168,
			"byteOffset":513056,
			"target":34962
		},
		{
			"buffer":0,
			"byteLength":28980,
			"byteOffset":538224,
			"target":34963
		},
		{
			"buffer":0,
			"byteLength":629340,
			"byteOffset":567204,
			"target":34962
		},
		{
			"buffer":0,
			"byteLength":629340,
			"byteOffset":1196544,
			"target":34962
		},
		{
			"buffer":0,
			"byteLength":419560,
			"byteOffset":1825884,
			"target":34962
		},
		{
			"buffer":0,
			"byteLength":561468,
			"byteOffset":2245444,
			"target":34963
		}
	],
	"samplers":[
		{
			"magFilter":9729,
			"minFilter":9987
		}
	],
	"buffers":[
		{
			"byteLength":2806912,
			"uri":"chair.bin"
		}
	]
}
