{
	"asset":{
		"generator":"Khronos glTF Blender I/O v5.2.40",
		"version":"2.0"
	},
	"scene":0,
	"scenes":[
		{
			"name":"Scene",
			"nodes":[
				0
			]
		}
	],
	"nodes":[
		{
			"mesh":0,
			"name":"Deco_Table_2"
		}
	],
	"meshes":[
		{
			"name":"Mesh.014",
			"primitives":[
				{
					"attributes":{
						"POSITION":0,
						"NORMAL":1,
						"TEXCOORD_0":2
					},
					"indices":3
				}
			]
		}
	],
	"accessors":[
		{
			"bufferView":0,
			"componentType":5126,
			"count":5979,
			"max":[
				4.53367805480957,
				0.3722696602344513,
				-3.4484269618988037
			],
			"min":[
				3.6989245414733887,
				0.006738846655935049,
				-4.214797019958496
			],
			"type":"VEC3"
		},
		{
			"bufferView":1,
			"componentType":5126,
			"count":5979,
			"type":"VEC3"
		},
		{
			"bufferView":2,
			"componentType":5126,
			"count":5979,
			"type":"VEC2"
		},
		{
			"bufferView":3,
			"componentType":5123,
			"count":27972,
			"type":"SCALAR"
		}
	],
	"bufferViews":[
		{
			"buffer":0,
			"byteLength":71748,
			"byteOffset":0,
			"target":34962
		},
		{
			"buffer":0,
			"byteLength":71748,
			"byteOffset":71748,
			"target":34962
		},
		{
			"buffer":0,
			"byteLength":47832,
			"byteOffset":143496,
			"target":34962
		},
		{
			"buffer":0,
			"byteLength":55944,
			"byteOffset":191328,
			"target":34963
		}
	],
	"buffers":[
		{
			"byteLength":247272,
			"uri":"crate.bin"
		}
	]
}
