{
	"asset":{
		"generator":"Khronos glTF Blender I/O v5.2.40",
		"version":"2.0"
	},
	"extensionsUsed":[
		"KHR_materials_emissive_strength",
		"KHR_materials_specular"
	],
	"scene":0,
	"scenes":[
		{
			"name":"Scene",
			"nodes":[
				0,
				1,
				2,
				3,
				4,
				5,
				6
			]
		}
	],
	"nodes":[
		{
			"mesh":0,
			"name":"Circle",
			"scale":[
				1,
				1.065199375152588,
				1
			],
			"translation":[
				-17.834678649902344,
				18.83722686767578,
				25.36797332763672
			]
		},
		{
			"mesh":1,
			"name":"Plane",
			"scale":[
				25,
				25,
				25
			]
		},
		{
			"mesh":2,
			"name":"Text",
			"rotation":[
				0.5,
				0.5,
				-0.5,
				0.5
			],
			"scale":[
				6.884173393249512,
				6.884173393249512,
				6.884173393249512
			],
			"translation":[
				12.156310081481934,
				41.612205505371094,
				22.721359252929688
			]
		},
		{
			"mesh":3,
			"name":"Text.001",
			"rotation":[
				0,
				0,
				-0.7071068286895752,
				0.7071068286895752
			],
			"scale":[
				4.866395950317383,
				4.866395950317383,
				4.866395950317383
			],
			"translation":[
				3.287940740585327,
				31.47417640686035,
				32.97702407836914
			]
		},
		{
			"mesh":4,
			"name":"Text.002",
			"rotation":[
				0.5,
				-0.5,
				-0.5,
				0.5000000596046448
			],
			"scale":[
				3.068950653076172,
				4.268762111663818,
				4.268762111663818
			],
			"translation":[
				22.97849464416504,
				33.87842559814453,
				-17.31633186340332
			]
		},
		{
			"mesh":5,
			"name":"Text.003",
			"rotation":[
				0.6917834281921387,
				0.14640939235687256,
				-0.14640939235687256,
				0.6917834281921387
			],
			"scale":[
				2.314363479614258,
				1.7909125089645386,
				1.6377707719802856
			],
			"translation":[
				10.162874221801758,
				15.948162078857422,
				20.709348678588867
			]
		},
		{
			"mesh":6,
			"name":"Text.004",
			"rotation":[
				0.5917609930038452,
				0.38706451654434204,
				-0.38706454634666443,
				0.5917609930038452
			],
			"scale":[
				2.1459038257598877,
				2.1459038257598877,
				1.5082764625549316
			],
			"translation":[
				18.49190902709961,
				15.897050857543945,
				15.033098220825195
			]
		}
	],
	"materials":[
		{
			"doubleSided":true,
			"extensions":{
				"KHR_materials_specular":{
					"specularFactor":0.6000000238418579
				}
			},
			"name":"Material",
			"pbrMetallicRoughness":{
				"metallicFactor":0,
				"roughnessFactor":0.30000001192092896
			}
		},
		{
			"doubleSided":true,
			"emissiveFactor":[
				0.07202273607254028,
				0.6991861462593079,
				1
			],
			"extensions":{
				"KHR_materials_emissive_strength":{
					"emissiveStrength":3.5
				}
			},
			"name":"Material.001",
			"pbrMetallicRoughness":{
				"baseColorFactor":[
					0,
					0,
					0,
					1
				]
			}
		},
		{
			"doubleSided":true,
			"emissiveFactor":[
				0.38793162360243916,
				0.133844803048858,
				1
			],
			"extensions":{
				"KHR_materials_emissive_strength":{
					"emissiveStrength":3.497542142868042
				}
			},
			"name":"Material.002",
			"pbrMetallicRoughness":{
				"baseColorFactor":[
					0,
					0,
					0,
					1
				]
			}
		},
		{
			"doubleSided":true,
			"emissiveFactor":[
				0.8561741140419582,
				0.15337083809924545,
				1
			],
			"extensions":{
				"KHR_materials_emissive_strength":{
					"emissiveStrength":4.099510312080383
				}
			},
			"name":"Material.003",
			"pbrMetallicRoughness":{
				"baseColorFactor":[
					0,
					0,
					0,
					1
				]
			}
		},
		{
			"doubleSided":true,
			"name":"Material.004"
		}
	],
	"meshes":[
		{
			"name":"Circle",
			"primitives":[
				{
					"attributes":{
						"POSITION":0,
						"NORMAL":1,
						"TEXCOORD_0":2
					},
					"indices":3,
					"material":0
				}
			]
		},
		{
			"name":"Plane.001",
			"primitives":[
				{
					"attributes":{
						"POSITION":4,
						"NORMAL":5,
						"TEXCOORD_0":6
					},
					"indices":7,
					"material":0
				},
				{
					"attributes":{
						"POSITION":8,
						"NORMAL":9,
						"TEXCOORD_0":10
					},
					"indices":11,
					"material":1
				},
				{
					"attributes":{
						"POSITION":12,
						"NORMAL":13,
						"TEXCOORD_0":14
					},
					"indices":15,
					"material":2
				},
				{
					"attributes":{
						"POSITION":16,
						"NORMAL":17,
						"TEXCOORD_0":18
					},
					"indices":19,
					"material":3
				}
			]
		},
		{
			"name":"Text.001",
			"primitives":[
				{
					"attributes":{
						"POSITION":20,
						"NORMAL":21,
						"TEXCOORD_0":22
					},
					"indices":23,
					"material":4
				}
			]
		},
		{
			"name":"Text.002",
			"primitives":[
				{
					"attributes":{
						"POSITION":24,
						"NORMAL":25,
						"TEXCOORD_0":26
					},
					"indices":27,
					"material":4
				}
			]
		},
		{
			"name":"Text.003",
			"primitives":[
				{
					"attributes":{
						"POSITION":28,
						"NORMAL":29,
						"TEXCOORD_0":30
					},
					"indices":31,
					"material":4
				}
			]
		},
		{
			"name":"Text.004",
			"primitives":[
				{
					"attributes":{
						"POSITION":32,
						"NORMAL":33,
						"TEXCOORD_0":34
					},
					"indices":35,
					"material":4
				}
			]
		},
		{
			"name":"Text.005",
			"primitives":[
				{
					"attributes":{
						"POSITION":36,
						"NORMAL":37,
						"TEXCOORD_0":38
					},
					"indices":39,
					"material":4
				}
			]
		}
	],
	"accessors":[
		{
			"bufferView":0,
			"componentType":5126,
			"count":480,
			"max":[
				21.420631408691406,
				13.385457992553711,
				1
			],
			"min":[
				-1,
				0,
				-1
			],
			"type":"VEC3"
		},
		{
			"bufferView":1,
			"componentType":5126,
			"count":480,
			"type":"VEC3"
		},
		{
			"bufferView":2,
			"componentType":5126,
			"count":480,
			"type":"VEC2"
		},
		{
			"bufferView":3,
			"componentType":5123,
			"count":900,
			"type":"SCALAR"
		},
		{
			"bufferView":4,
			"componentType":5126,
			"count":3644,
			"max":[
				1.200343132019043,
				1.9920718669891357,
				1.4385820627212524
			],
			"min":[
				-1.200343132019043,
				0,
				-1.200343132019043
			],
			"type":"VEC3"
		},
		{
			"bufferView":5,
			"componentType":5126,
			"count":3644,
			"type":"VEC3"
		},
		{
			"bufferView":6,
			"componentType":5126,
			"count":3644,
			"type":"VEC2"
		},
		{
			"bufferView":7,
			"componentType":5123,
			"count":19902,
			"type":"SCALAR"
		},
		{
			"bufferView":8,
			"componentType":5126,
			"count":180,
			"max":[
				0.6877826452255249,
				0.9875612854957581,
				1.0617787837982178
			],
			"min":[
				-0.9080002903938293,
				0.11040906608104706,
				-0.7018399238586426
			],
			"type":"VEC3"
		},
		{
			"bufferView":9,
			"componentType":5126,
			"count":180,
			"type":"VEC3"
		},
		{
			"bufferView":10,
			"componentType":5126,
			"count":180,
			"type":"VEC2"
		},
		{
			"bufferView":11,
			"componentType":5123,
			"count":444,
			"type":"SCALAR"
		},
		{
			"bufferView":12,
			"componentType":5126,
			"count":26,
			"max":[
				1.082200050354004,
				1.9282760620117188,
				1.3763160705566406
			],
			"min":[
				-1.011358380317688,
				0.7489832639694214,
				-0.9418578743934631
			],
			"type":"VEC3"
		},
		{
			"bufferView":13,
			"componentType":5126,
			"count":26,
			"type":"VEC3"
		},
		{
			"bufferView":14,
			"componentType":5126,
			"count":26,
			"type":"VEC2"
		},
		{
			"bufferView":15,
			"componentType":5123,
			"count":42,
			"type":"SCALAR"
		},
		{
			"bufferView":16,
			"componentType":5126,
			"count":14,
			"max":[
				0.856302797794342,
				1.2737059593200684,
				0.856302797794342
			],
			"min":[
				0.18632438778877258,
				0.6298960447311401,
				0.09731101989746094
			],
			"type":"VEC3"
		},
		{
			"bufferView":17,
			"componentType":5126,
			"count":14,
			"type":"VEC3"
		},
		{
			"bufferView":18,
			"componentType":5126,
			"count":14,
			"type":"VEC2"
		},
		{
			"bufferView":19,
			"componentType":5123,
			"count":24,
			"type":"SCALAR"
		},
		{
			"bufferView":20,
			"componentType":5126,
			"count":1723,
			"max":[
				6.319719314575195,
				0,
				0.08692000061273575
			],
			"min":[
				0.03709999844431877,
				0,
				-0.899940013885498
			],
			"type":"VEC3"
		},
		{
			"bufferView":21,
			"componentType":5126,
			"count":1723,
			"type":"VEC3"
		},
		{
			"bufferView":22,
			"componentType":5126,
			"count":1723,
			"type":"VEC2"
		},
		{
			"bufferView":23,
			"componentType":5123,
			"count":5106,
			"type":"SCALAR"
		},
		{
			"bufferView":24,
			"componentType":5126,
			"count":593,
			"max":[
				1.9609999656677246,
				0,
				0.0860000029206276
			],
			"min":[
				0.03100000135600567,
				0,
				-0.8420000672340393
			],
			"type":"VEC3"
		},
		{
			"bufferView":25,
			"componentType":5126,
			"count":593,
			"type":"VEC3"
		},
		{
			"bufferView":26,
			"componentType":5126,
			"count":593,
			"type":"VEC2"
		},
		{
			"bufferView":27,
			"componentType":5123,
			"count":1746,
			"type":"SCALAR"
		},
		{
			"bufferView":28,
			"componentType":5126,
			"count":1092,
			"max":[
				4.460400104522705,
				0,
				0.0747000128030777
			],
			"min":[
				0.03150000423192978,
				0,
				-0.7623001337051392
			],
			"type":"VEC3"
		},
		{
			"bufferView":29,
			"componentType":5126,
			"count":1092,
			"type":"VEC3"
		},
		{
			"bufferView":30,
			"componentType":5126,
			"count":1092,
			"type":"VEC2"
		},
		{
			"bufferView":31,
			"componentType":5123,
			"count":3243,
			"type":"SCALAR"
		},
		{
			"bufferView":32,
			"componentType":5126,
			"count":327,
			"max":[
				1.9720001220703125,
				0,
				0.0820000022649765
			],
			"min":[
				0.04200000315904617,
				0,
				-0.8350000381469727
			],
			"type":"VEC3"
		},
		{
			"bufferView":33,
			"componentType":5126,
			"count":327,
			"type":"VEC3"
		},
		{
			"bufferView":34,
			"componentType":5126,
			"count":327,
			"type":"VEC2"
		},
		{
			"bufferView":35,
			"componentType":5123,
			"count":951,
			"type":"SCALAR"
		},
		{
			"bufferView":36,
			"componentType":5126,
			"count":308,
			"max":[
				2.143899917602539,
				0,
				0.08909999579191208
			],
			"min":[
				0.040699996054172516,
				0,
				-0.9250999689102173
			],
			"type":"VEC3"
		},
		{
			"bufferView":37,
			"componentType":5126,
			"count":308,
			"type":"VEC3"
		},
		{
			"bufferView":38,
			"componentType":5126,
			"count":308,
			"type":"VEC2"
		},
		{
			"bufferView":39,
			"componentType":5123,
			"count":882,
			"type":"SCALAR"
		}
	],
	"bufferViews":[
		{
			"buffer":0,
			"byteLength":5760,
			"byteOffset":0,
			"target":34962
		},
		{
			"buffer":0,
			"byteLength":5760,
			"byteOffset":5760,
			"target":34962
		},
		{
			"buffer":0,
			"byteLength":3840,
			"byteOffset":11520,
			"target":34962
		},
		{
			"buffer":0,
			"byteLength":1800,
			"byteOffset":15360,
			"target":34963
		},
		{
			"buffer":0,
			"byteLength":43728,
			"byteOffset":17160,
			"target":34962
		},
		{
			"buffer":0,
			"byteLength":43728,
			"byteOffset":60888,
			"target":34962
		},
		{
			"buffer":0,
			"byteLength":29152,
			"byteOffset":104616,
			"target":34962
		},
		{
			"buffer":0,
			"byteLength":39804,
			"byteOffset":133768,
			"target":34963
		},
		{
			"buffer":0,
			"byteLength":2160,
			"byteOffset":173572,
			"target":34962
		},
		{
			"buffer":0,
			"byteLength":2160,
			"byteOffset":175732,
			"target":34962
		},
		{
			"buffer":0,
			"byteLength":1440,
			"byteOffset":177892,
			"target":34962
		},
		{
			"buffer":0,
			"byteLength":888,
			"byteOffset":179332,
			"target":34963
		},
		{
			"buffer":0,
			"byteLength":312,
			"byteOffset":180220,
			"target":34962
		},
		{
			"buffer":0,
			"byteLength":312,
			"byteOffset":180532,
			"target":34962
		},
		{
			"buffer":0,
			"byteLength":208,
			"byteOffset":180844,
			"target":34962
		},
		{
			"buffer":0,
			"byteLength":84,
			"byteOffset":181052,
			"target":34963
		},
		{
			"buffer":0,
			"byteLength":168,
			"byteOffset":181136,
			"target":34962
		},
		{
			"buffer":0,
			"byteLength":168,
			"byteOffset":181304,
			"target":34962
		},
		{
			"buffer":0,
			"byteLength":112,
			"byteOffset":181472,
			"target":34962
		},
		{
			"buffer":0,
			"byteLength":48,
			"byteOffset":181584,
			"target":34963
		},
		{
			"buffer":0,
			"byteLength":20676,
			"byteOffset":181632,
			"target":34962
		},
		{
			"buffer":0,
			"byteLength":20676,
			"byteOffset":202308,
			"target":34962
		},
		{
			"buffer":0,
			"byteLength":13784,
			"byteOffset":222984,
			"target":34962
		},
		{
			"buffer":0,
			"byteLength":10212,
			"byteOffset":236768,
			"target":34963
		},
		{
			"buffer":0,
			"byteLength":7116,
			"byteOffset":246980,
			"target":34962
		},
		{
			"buffer":0,
			"byteLength":7116,
			"byteOffset":254096,
			"target":34962
		},
		{
			"buffer":0,
			"byteLength":4744,
			"byteOffset":261212,
			"target":34962
		},
		{
			"buffer":0,
			"byteLength":3492,
			"byteOffset":265956,
			"target":34963
		},
		{
			"buffer":0,
			"byteLength":13104,
			"byteOffset":269448,
			"target":34962
		},
		{
			"buffer":0,
			"byteLength":13104,
			"byteOffset":282552,
			"target":34962
		},
		{
			"buffer":0,
			"byteLength":8736,
			"byteOffset":295656,
			"target":34962
		},
		{
			"buffer":0,
			"byteLength":6486,
			"byteOffset":304392,
			"target":34963
		},
		{
			"buffer":0,
			"byteLength":3924,
			"byteOffset":310880,
			"target":34962
		},
		{
			"buffer":0,
			"byteLength":3924,
			"byteOffset":314804,
			"target":34962
		},
		{
			"buffer":0,
			"byteLength":2616,
			"byteOffset":318728,
			"target":34962
		},
		{
			"buffer":0,
			"byteLength":1902,
			"byteOffset":321344,
			"target":34963
		},
		{
			"buffer":0,
			"byteLength":3696,
			"byteOffset":323248,
			"target":34962
		},
		{
			"buffer":0,
			"byteLength":3696,
			"byteOffset":326944,
			"target":34962
		},
		{
			"buffer":0,
			"byteLength":2464,
			"byteOffset":330640,
			"target":34962
		},
		{
			"buffer":0,
			"byteLength":1764,
			"byteOffset":333104,
			"target":34963
		}
	],
	"buffers":[
		{
			"byteLength":334868,
			"uri":"cyberpunk.bin"
		}
	]
}
