{
	"asset":{
		"generator":"Khronos glTF Blender I/O v5.2.40",
		"version":"2.0"
	},
	"scene":0,
	"scenes":[
		{
			"name":"Scene",
			"nodes":[
				0,
				1,
				2,
				3,
				4,
				5,
				6,
				7,
				8,
				9,
				10,
				11,
				12,
				13,
				14,
				15,
				16,
				17,
				18,
				19,
				20,
				21,
				22,
				23,
				24,
				25,
				26,
				27,
				28
			]
		}
	],
	"nodes":[
		{
			"name":"polySurface13"
		},
		{
			"mesh":0,
			"name":"polySurface18"
		},
		{
			"mesh":1,
			"name":"polySurface19"
		},
		{
			"mesh":2,
			"name":"polySurface20"
		},
		{
			"mesh":3,
			"name":"polySurface21"
		},
		{
			"mesh":4,
			"name":"polySurface22"
		},
		{
			"mesh":5,
			"name":"polySurface23"
		},
		{
			"mesh":6,
			"name":"polySurface24"
		},
		{
			"mesh":7,
			"name":"polySurface25"
		},
		{
			"mesh":8,
			"name":"polySurface26"
		},
		{
			"mesh":9,
			"name":"polySurface27"
		},
		{
			"mesh":10,
			"name":"polySurface28"
		},
		{
			"mesh":11,
			"name":"polySurface29"
		},
		{
			"mesh":12,
			"name":"polySurface30"
		},
		{
			"mesh":13,
			"name":"polySurface31"
		},
		{
			"mesh":14,
			"name":"polySurface32"
		},
		{
			"mesh":15,
			"name":"polySurface33"
		},
		{
			"mesh":16,
			"name":"polySurface34"
		},
		{
			"mesh":17,
			"name":"polySurface35"
		},
		{
			"mesh":18,
			"name":"polySurface36"
		},
		{
			"mesh":19,
			"name":"polySurface37"
		},
		{
			"mesh":20,
			"name":"polySurface38"
		},
		{
			"mesh":21,
			"name":"polySurface39"
		},
		{
			"mesh":22,
			"name":"polySurface40"
		},
		{
			"mesh":23,
			"name":"polySurface41"
		},
		{
			"mesh":24,
			"name":"polySurface42"
		},
		{
			"mesh":25,
			"name":"polySurface43"
		},
		{
			"mesh":26,
			"name":"polySurface44"
		},
		{
			"mesh":27,
			"name":"polySurface45"
		}
	],
	"materials":[
		{
			"doubleSided":true,
			"name":"Gold",
			"pbrMetallicRoughness":{
				"baseColorFactor":[
					1.0,
					0.77,
					0.34,
					1
				],
				"roughnessFactor":0.1
			}
		},
		{
			"doubleSided":true,
			"name":"Desk",
			"pbrMetallicRoughness":{
				"baseColorTexture":{
					"index":0
				},
				"metallicFactor":0,
				"roughnessFactor":0.14619162678718567
			}
		}
	],
	"meshes":[
		{
			"name":"Mesh",
			"primitives":[
				{
					"attributes":{
						"POSITION":0,
						"NORMAL":1,
						"TEXCOORD_0":2
					},
					"indices":3,
					"material":0
				}
			]
		},
		{
			"name":"Mesh.001",
			"primitives":[
				{
					"attributes":{
						"POSITION":4,
						"NORMAL":5
					},
					"indices":6,
					"material":0
				}
			]
		},
		{
			"name":"Mesh.002",
			"primitives":[
				{
					"attributes":{
						"POSITION":7,
						"NORMAL":8
					},
					"indices":9,
					"material":0
				}
			]
		},
		{
			"name":"Mesh.003",
			"primitives":[
				{
					"attributes":{
						"POSITION":10,
						"NORMAL":11
					},
					"indices":12,
					"material":0
				}
			]
		},
		{
			"name":"Mesh.004",
			"primitives":[
				{
					"attributes":{
						"POSITION":13,
						"NORMAL":14,
						"TEXCOORD_0":15
					},
					"indices":3,
					"material":0
				}
			]
		},
		{
			"name":"Mesh.005",
			"primitives":[
				{
					"attributes":{
						"POSITION":16,
						"NORMAL":17
					},
					"indices":6,
					"material":0
				}
			]
		},
		{
			"name":"Mesh.006",
			"primitives":[
				{
					"attributes":{
						"POSITION":18,
						"NORMAL":19
					},
					"indices":20,
					"material":0
				}
			]
		},
		{
			"name":"Mesh.007",
			"primitives":[
				{
					"attributes":{
						"POSITION":21,
						"NORMAL":22,
						"TEXCOORD_0":23
					},
					"indices":3,
					"material":0
				}
			]
		},
		{
			"name":"Mesh.008",
			"primitives":[
				{
					"attributes":{
						"POSITION":24,
						"NORMAL":25
					},
					"indices":12,
					"material":0
				}
			]
		},
		{
			"name":"Mesh.009",
			"primitives":[
				{
					"attributes":{
						"POSITION":26,
						"NORMAL":27,
						"TEXCOORD_0":28
					},
					"indices":3,
					"material":0
				}
			]
		},
		{
			"name":"Mesh.010",
			"primitives":[
				{
					"attributes":{
						"POSITION":29,
						"NORMAL":30
					},
					"indices":20,
					"material":0
				}
			]
		},
		{
			"name":"Mesh.011",
			"primitives":[
				{
					"attributes":{
						"POSITION":31,
						"NORMAL":32
					},
					"indices":9,
					"material":0
				}
			]
		},
		{
			"name":"Mesh.012",
			"primitives":[
				{
					"attributes":{
						"POSITION":33,
						"NORMAL":34,
						"TEXCOORD_0":35
					},
					"indices":3,
					"material":0
				}
			]
		},
		{
			"name":"Mesh.013",
			"primitives":[
				{
					"attributes":{
						"POSITION":36,
						"NORMAL":37
					},
					"indices":9,
					"material":0
				}
			]
		},
		{
			"name":"Mesh.014",
			"primitives":[
				{
					"attributes":{
						"POSITION":38,
						"NORMAL":39
					},
					"indices":40,
					"material":0
				}
			]
		},
		{
			"name":"Mesh.015",
			"primitives":[
				{
					"attributes":{
						"POSITION":41,
						"NORMAL":42,
						"TEXCOORD_0":43
					},
					"indices":44,
					"material":1
				}
			]
		},
		{
			"name":"Mesh.016",
			"primitives":[
				{
					"attributes":{
						"POSITION":45,
						"NORMAL":46,
						"TEXCOORD_0":47
					},
					"indices":44,
					"material":1
				}
			]
		},
		{
			"name":"Mesh.017",
			"primitives":[
				{
					"attributes":{
						"POSITION":48,
						"NORMAL":49,
						"TEXCOORD_0":50
					},
					"indices":44,
					"material":1
				}
			]
		},
		{
			"name":"Mesh.018",
			"primitives":[
				{
					"attributes":{
						"POSITION":51,
						"NORMAL":52,
						"TEXCOORD_0":53
					},
					"indices":54,
					"material":1
				}
			]
		},
		{
			"name":"Mesh.019",
			"primitives":[
				{
					"attributes":{
						"POSITION":55,
						"NORMAL":56,
						"TEXCOORD_0":57
					},
					"indices":54,
					"material":1
				}
			]
		},
		{
			"name":"Mesh.020",
			"primitives":[
				{
					"attributes":{
						"POSITION":58,
						"NORMAL":59,
						"TEXCOORD_0":60
					},
					"indices":61,
					"material":1
				}
			]
		},
		{
			"name":"Mesh.021",
			"primitives":[
				{
					"attributes":{
						"POSITION":62,
						"NORMAL":63,
						"TEXCOORD_0":64
					},
					"indices":65,
					"material":1
				}
			]
		},
		{
			"name":"Mesh.022",
			"primitives":[
				{
					"attributes":{
						"POSITION":66,
						"NORMAL":67,
						"TEXCOORD_0":68
					},
					"indices":69,
					"material":1
				}
			]
		},
		{
			"name":"Mesh.023",
			"primitives":[
				{
					"attributes":{
						"POSITION":70,
						"NORMAL":71,
						"TEXCOORD_0":72
					},
					"indices":61,
					"material":1
				}
			]
		},
		{
			"name":"Mesh.024",
			"primitives":[
				{
					"attributes":{
						"POSITION":73,
						"NORMAL":74,
						"TEXCOORD_0":75
					},
					"indices":76,
					"material":1
				}
			]
		},
		{
			"name":"Mesh.025",
			"primitives":[
				{
					"attributes":{
						"POSITION":77,
						"NORMAL":78,
						"TEXCOORD_0":79
					},
					"indices":61,
					"material":1
				}
			]
		},
		{
			"name":"Mesh.026",
			"primitives":[
				{
					"attributes":{
						"POSITION":80,
						"NORMAL":81,
						"TEXCOORD_0":82
					},
					"indices":61,
					"material":1
				}
			]
		},
		{
			"name":"Mesh.027",
			"primitives":[
				{
					"attributes":{
						"POSITION":83,
						"NORMAL":84,
						"TEXCOORD_0":85
					},
					"indices":86,
					"material":1
				}
			]
		}
	],
	"textures":[
		{
			"sampler":0,
			"source":0
		}
	],
	"images":[
		{
			"mimeType":"image/jpeg",
			"name":"white_maple_veneer_diff_4k",
			"uri":"white_maple_veneer_diff_4k.jpg"
		}
	],
	"accessors":[
		{
			"bufferView":0,
			"componentType":5126,
			"count":315,
			"max":[
				0.2704639434814453,
				1.055049180984497,
				0.968841552734375
			],
			"min":[
				0.14291000366210938,
				1.0027248859405518,
				0.9428443908691406
			],
			"type":"VEC3"
		},
		{
			"bufferView":1,
			"componentType":5126,
			"count":315,
			"type":"VEC3"
		},
		{
			"bufferView":2,
			"componentType":5126,
			"count":315,
			"type":"VEC2"
		},
		{
			"bufferView":3,
			"componentType":5123,
			"count":1560,
			"type":"SCALAR"
		},
		{
			"bufferView":4,
			"componentType":5126,
			"count":1490,
			"max":[
				-0.19252395629882812,
				0.7738339900970459,
				0.9603023529052734
			],
			"min":[
				-0.36413002014160156,
				0.6518275737762451,
				0.9450016021728516
			],
			"type":"VEC3"
		},
		{
			"bufferView":5,
			"componentType":5126,
			"count":1490,
			"type":"VEC3"
		},
		{
			"bufferView":6,
			"componentType":5123,
			"count":6462,
			"type":"SCALAR"
		},
		{
			"bufferView":7,
			"componentType":5126,
			"count":1490,
			"max":[
				-0.4098243713378906,
				0.7738339900970459,
				0.9599380493164062
			],
			"min":[
				-0.5814018249511719,
				0.6518275737762451,
				0.9446372985839844
			],
			"type":"VEC3"
		},
		{
			"bufferView":8,
			"componentType":5126,
			"count":1490,
			"type":"VEC3"
		},
		{
			"bufferView":9,
			"componentType":5123,
			"count":6462,
			"type":"SCALAR"
		},
		{
			"bufferView":10,
			"componentType":5126,
			"count":1490,
			"max":[
				0.18210983276367188,
				1.1391284465789795,
				0.9636058807373047
			],
			"min":[
				0.010534286499023438,
				1.0171215534210205,
				0.9483051300048828
			],
			"type":"VEC3"
		},
		{
			"bufferView":11,
			"componentType":5126,
			"count":1490,
			"type":"VEC3"
		},
		{
			"bufferView":12,
			"componentType":5123,
			"count":6462,
			"type":"SCALAR"
		},
		{
			"bufferView":13,
			"componentType":5126,
			"count":315,
			"max":[
				-0.32147216796875,
				0.6897547245025635,
				0.968841552734375
			],
			"min":[
				-0.4490242004394531,
				0.6374309062957764,
				0.9428443908691406
			],
			"type":"VEC3"
		},
		{
			"bufferView":14,
			"componentType":5126,
			"count":315,
			"type":"VEC3"
		},
		{
			"bufferView":15,
			"componentType":5126,
			"count":315,
			"type":"VEC2"
		},
		{
			"bufferView":16,
			"componentType":5126,
			"count":1490,
			"max":[
				0.3994121551513672,
				1.1391284465789795,
				0.9640655517578125
			],
			"min":[
				0.22780418395996094,
				1.0171215534210205,
				0.9487648010253906
			],
			"type":"VEC3"
		},
		{
			"bufferView":17,
			"componentType":5126,
			"count":1490,
			"type":"VEC3"
		},
		{
			"bufferView":18,
			"componentType":5126,
			"count":1490,
			"max":[
				1.2268352508544922,
				1.1338932514190674,
				0.9618148803710938
			],
			"min":[
				1.0552291870117188,
				1.0118868350982666,
				0.9465122222900391
			],
			"type":"VEC3"
		},
		{
			"bufferView":19,
			"componentType":5126,
			"count":1490,
			"type":"VEC3"
		},
		{
			"bufferView":20,
			"componentType":5123,
			"count":6462,
			"type":"SCALAR"
		},
		{
			"bufferView":21,
			"componentType":5126,
			"count":315,
			"max":[
				1.0978870391845703,
				1.049813985824585,
				0.968841552734375
			],
			"min":[
				0.9703330993652344,
				0.9974896907806396,
				0.9428443908691406
			],
			"type":"VEC3"
		},
		{
			"bufferView":22,
			"componentType":5126,
			"count":315,
			"type":"VEC3"
		},
		{
			"bufferView":23,
			"componentType":5126,
			"count":315,
			"type":"VEC2"
		},
		{
			"bufferView":24,
			"componentType":5126,
			"count":1490,
			"max":[
				1.0095348358154297,
				1.1338932514190674,
				0.9620018005371094
			],
			"min":[
				0.8379573822021484,
				1.0118868350982666,
				0.9467010498046875
			],
			"type":"VEC3"
		},
		{
			"bufferView":25,
			"componentType":5126,
			"count":1490,
			"type":"VEC3"
		},
		{
			"bufferView":26,
			"componentType":5126,
			"count":315,
			"max":[
				-0.32147216796875,
				1.0310733318328857,
				0.968841552734375
			],
			"min":[
				-0.4490242004394531,
				0.9787495136260986,
				0.9428443908691406
			],
			"type":"VEC3"
		},
		{
			"bufferView":27,
			"componentType":5126,
			"count":315,
			"type":"VEC3"
		},
		{
			"bufferView":28,
			"componentType":5126,
			"count":315,
			"type":"VEC2"
		},
		{
			"bufferView":29,
			"componentType":5126,
			"count":1490,
			"max":[
				-0.19252395629882812,
				1.1151530742645264,
				0.9606971740722656
			],
			"min":[
				-0.36413002014160156,
				0.9931461811065674,
				0.9453964233398438
			],
			"type":"VEC3"
		},
		{
			"bufferView":30,
			"componentType":5126,
			"count":1490,
			"type":"VEC3"
		},
		{
			"bufferView":31,
			"componentType":5126,
			"count":1490,
			"max":[
				-0.4098243713378906,
				1.1151530742645264,
				0.9599380493164062
			],
			"min":[
				-0.5814018249511719,
				0.9931461811065674,
				0.9446372985839844
			],
			"type":"VEC3"
		},
		{
			"bufferView":32,
			"componentType":5126,
			"count":1490,
			"type":"VEC3"
		},
		{
			"bufferView":33,
			"componentType":5126,
			"count":315,
			"max":[
				-0.32147216796875,
				0.37062859535217285,
				0.968841552734375
			],
			"min":[
				-0.4490242004394531,
				0.31830430030822754,
				0.9428443908691406
			],
			"type":"VEC3"
		},
		{
			"bufferView":34,
			"componentType":5126,
			"count":315,
			"type":"VEC3"
		},
		{
			"bufferView":35,
			"componentType":5126,
			"count":315,
			"type":"VEC2"
		},
		{
			"bufferView":36,
			"componentType":5126,
			"count":1490,
			"max":[
				-0.4098243713378906,
				0.4547078609466553,
				0.9599380493164062
			],
			"min":[
				-0.5814018249511719,
				0.3327009677886963,
				0.9446372985839844
			],
			"type":"VEC3"
		},
		{
			"bufferView":37,
			"componentType":5126,
			"count":1490,
			"type":"VEC3"
		},
		{
			"bufferView":38,
			"componentType":5126,
			"count":1490,
			"max":[
				-0.19252395629882812,
				0.4547078609466553,
				0.9607448577880859
			],
			"min":[
				-0.36413002014160156,
				0.3327009677886963,
				0.9454441070556641
			],
			"type":"VEC3"
		},
		{
			"bufferView":39,
			"componentType":5126,
			"count":1490,
			"type":"VEC3"
		},
		{
			"bufferView":40,
			"componentType":5123,
			"count":6462,
			"type":"SCALAR"
		},
		{
			"bufferView":41,
			"componentType":5126,
			"count":64,
			"max":[
				-0.13639259338378906,
				1.1817944049835205,
				0.9498386383056641
			],
			"min":[
				-0.6340465545654297,
				0.8619716167449951,
				0.2008533477783203
			],
			"type":"VEC3"
		},
		{
			"bufferView":42,
			"componentType":5126,
			"count":64,
			"type":"VEC3"
		},
		{
			"bufferView":43,
			"componentType":5126,
			"count":64,
			"type":"VEC2"
		},
		{
			"bufferView":44,
			"componentType":5123,
			"count":108,
			"type":"SCALAR"
		},
		{
			"bufferView":45,
			"componentType":5126,
			"count":64,
			"max":[
				-0.13639259338378906,
				0.8603222370147705,
				0.9498386383056641
			],
			"min":[
				-0.6340465545654297,
				0.5404999256134033,
				0.2008533477783203
			],
			"type":"VEC3"
		},
		{
			"bufferView":46,
			"componentType":5126,
			"count":64,
			"type":"VEC3"
		},
		{
			"bufferView":47,
			"componentType":5126,
			"count":64,
			"type":"VEC2"
		},
		{
			"bufferView":48,
			"componentType":5126,
			"count":64,
			"max":[
				-0.13639259338378906,
				0.5379431247711182,
				0.9498386383056641
			],
			"min":[
				-0.6340465545654297,
				0.21812081336975098,
				0.2008533477783203
			],
			"type":"VEC3"
		},
		{
			"bufferView":49,
			"componentType":5126,
			"count":64,
			"type":"VEC3"
		},
		{
			"bufferView":50,
			"componentType":5126,
			"count":64,
			"type":"VEC2"
		},
		{
			"bufferView":51,
			"componentType":5126,
			"count":48,
			"max":[
				-0.06763076782226562,
				1.1813390254974365,
				0.9499874114990234
			],
			"min":[
				-0.1362590789794922,
				0.0375218391418457,
				0.14931488037109375
			],
			"type":"VEC3"
		},
		{
			"bufferView":52,
			"componentType":5126,
			"count":48,
			"type":"VEC3"
		},
		{
			"bufferView":53,
			"componentType":5126,
			"count":48,
			"type":"VEC2"
		},
		{
			"bufferView":54,
			"componentType":5123,
			"count":84,
			"type":"SCALAR"
		},
		{
			"bufferView":55,
			"componentType":5126,
			"count":48,
			"max":[
				-0.6347255706787109,
				1.1813390254974365,
				0.9499855041503906
			],
			"min":[
				-0.7033557891845703,
				0.0375218391418457,
				0.14931297302246094
			],
			"type":"VEC3"
		},
		{
			"bufferView":56,
			"componentType":5126,
			"count":48,
			"type":"VEC3"
		},
		{
			"bufferView":57,
			"componentType":5126,
			"count":48,
			"type":"VEC2"
		},
		{
			"bufferView":58,
			"componentType":5126,
			"count":24,
			"max":[
				1.3058586120605469,
				0.9507730007171631,
				0.9512615203857422
			],
			"min":[
				-0.06374359130859375,
				0.8821442127227783,
				0.16318130493164062
			],
			"type":"VEC3"
		},
		{
			"bufferView":59,
			"componentType":5126,
			"count":24,
			"type":"VEC3"
		},
		{
			"bufferView":60,
			"componentType":5126,
			"count":24,
			"type":"VEC2"
		},
		{
			"bufferView":61,
			"componentType":5123,
			"count":36,
			"type":"SCALAR"
		},
		{
			"bufferView":62,
			"componentType":5126,
			"count":48,
			"max":[
				1.3782405853271484,
				1.1813390254974365,
				0.27190208435058594
			],
			"min":[
				1.3096122741699219,
				0.0375218391418457,
				0.15103721618652344
			],
			"type":"VEC3"
		},
		{
			"bufferView":63,
			"componentType":5126,
			"count":48,
			"type":"VEC3"
		},
		{
			"bufferView":64,
			"componentType":5126,
			"count":48,
			"type":"VEC2"
		},
		{
			"bufferView":65,
			"componentType":5123,
			"count":84,
			"type":"SCALAR"
		},
		{
			"bufferView":66,
			"componentType":5126,
			"count":213,
			"max":[
				1.3779144287109375,
				1.1813390254974365,
				1.0186653137207031
			],
			"min":[
				1.307058334350586,
				0.03271007537841797,
				0.8185253143310547
			],
			"type":"VEC3"
		},
		{
			"bufferView":67,
			"componentType":5126,
			"count":213,
			"type":"VEC3"
		},
		{
			"bufferView":68,
			"componentType":5126,
			"count":213,
			"type":"VEC2"
		},
		{
			"bufferView":69,
			"componentType":5123,
			"count":564,
			"type":"SCALAR"
		},
		{
			"bufferView":70,
			"componentType":5126,
			"count":24,
			"max":[
				-0.12414741516113281,
				0.21702313423156738,
				0.9527912139892578
			],
			"min":[
				-0.6388645172119141,
				0.14839410781860352,
				0.17246055603027344
			],
			"type":"VEC3"
		},
		{
			"bufferView":71,
			"componentType":5126,
			"count":24,
			"type":"VEC3"
		},
		{
			"bufferView":72,
			"componentType":5126,
			"count":24,
			"type":"VEC2"
		},
		{
			"bufferView":73,
			"componentType":5126,
			"count":48,
			"max":[
				1.3004913330078125,
				1.1824138164520264,
				0.9534149169921875
			],
			"min":[
				-0.06273651123046875,
				0.9536502361297607,
				0.22452354431152344
			],
			"type":"VEC3"
		},
		{
			"bufferView":74,
			"componentType":5126,
			"count":48,
			"type":"VEC3"
		},
		{
			"bufferView":75,
			"componentType":5126,
			"count":48,
			"type":"VEC2"
		},
		{
			"bufferView":76,
			"componentType":5123,
			"count":84,
			"type":"SCALAR"
		},
		{
			"bufferView":77,
			"componentType":5126,
			"count":24,
			"max":[
				-0.10678291320800781,
				1.1892554759979248,
				0.21917343139648438
			],
			"min":[
				-0.6347427368164062,
				0.14136743545532227,
				0.16472434997558594
			],
			"type":"VEC3"
		},
		{
			"bufferView":78,
			"componentType":5126,
			"count":24,
			"type":"VEC3"
		},
		{
			"bufferView":79,
			"componentType":5126,
			"count":24,
			"type":"VEC2"
		},
		{
			"bufferView":80,
			"componentType":5126,
			"count":24,
			"max":[
				1.3086299896240234,
				1.190497636795044,
				0.24224853515625
			],
			"min":[
				-0.06740951538085938,
				0.9052746295928955,
				0.17361831665039062
			],
			"type":"VEC3"
		},
		{
			"bufferView":81,
			"componentType":5126,
			"count":24,
			"type":"VEC3"
		},
		{
			"bufferView":82,
			"componentType":5126,
			"count":24,
			"type":"VEC2"
		},
		{
			"bufferView":83,
			"componentType":5126,
			"count":100,
			"max":[
				1.3947734832763672,
				1.2789909839630127,
				0.9841423034667969
			],
			"min":[
				-0.7321548461914062,
				1.181793451309204,
				0.14878082275390625
			],
			"type":"VEC3"
		},
		{
			"bufferView":84,
			"componentType":5126,
			"count":100,
			"type":"VEC3"
		},
		{
			"bufferView":85,
			"componentType":5126,
			"count":100,
			"type":"VEC2"
		},
		{
			"bufferView":86,
			"componentType":5123,
			"count":216,
			"type":"SCALAR"
		}
	],
	"bufferViews":[
		{
			"buffer":0,
			"byteLength":3780,
			"byteOffset":0,
			"target":34962
		},
		{
			"buffer":0,
			"byteLength":3780,
			"byteOffset":3780,
			"target":34962
		},
		{
			"buffer":0,
			"byteLength":2520,
			"byteOffset":7560,
			"target":34962
		},
		{
			"buffer":0,
			"byteLength":3120,
			"byteOffset":10080,
			"target":34963
		},
		{
			"buffer":0,
			"byteLength":17880,
			"byteOffset":13200,
			"target":34962
		},
		{
			"buffer":0,
			"byteLength":17880,
			"byteOffset":31080,
			"target":34962
		},
		{
			"buffer":0,
			"byteLength":12924,
			"byteOffset":48960,
			"target":34963
		},
		{
			"buffer":0,
			"byteLength":17880,
			"byteOffset":61884,
			"target":34962
		},
		{
			"buffer":0,
			"byteLength":17880,
			"byteOffset":79764,
			"target":34962
		},
		{
			"buffer":0,
			"byteLength":12924,
			"byteOffset":97644,
			"target":34963
		},
		{
			"buffer":0,
			"byteLength":17880,
			"byteOffset":110568,
			"target":34962
		},
		{
			"buffer":0,
			"byteLength":17880,
			"byteOffset":128448,
			"target":34962
		},
		{
			"buffer":0,
			"byteLength":12924,
			"byteOffset":146328,
			"target":34963
		},
		{
			"buffer":0,
			"byteLength":3780,
			"byteOffset":159252,
			"target":34962
		},
		{
			"buffer":0,
			"byteLength":3780,
			"byteOffset":163032,
			"target":34962
		},
		{
			"buffer":0,
			"byteLength":2520,
			"byteOffset":166812,
			"target":34962
		},
		{
			"buffer":0,
			"byteLength":17880,
			"byteOffset":169332,
			"target":34962
		},
		{
			"buffer":0,
			"byteLength":17880,
			"byteOffset":187212,
			"target":34962
		},
		{
			"buffer":0,
			"byteLength":17880,
			"byteOffset":205092,
			"target":34962
		},
		{
			"buffer":0,
			"byteLength":17880,
			"byteOffset":222972,
			"target":34962
		},
		{
			"buffer":0,
			"byteLength":12924,
			"byteOffset":240852,
			"target":34963
		},
		{
			"buffer":0,
			"byteLength":3780,
			"byteOffset":253776,
			"target":34962
		},
		{
			"buffer":0,
			"byteLength":3780,
			"byteOffset":257556,
			"target":34962
		},
		{
			"buffer":0,
			"byteLength":2520,
			"byteOffset":261336,
			"target":34962
		},
		{
			"buffer":0,
			"byteLength":17880,
			"byteOffset":263856,
			"target":34962
		},
		{
			"buffer":0,
			"byteLength":17880,
			"byteOffset":281736,
			"target":34962
		},
		{
			"buffer":0,
			"byteLength":3780,
			"byteOffset":299616,
			"target":34962
		},
		{
			"buffer":0,
			"byteLength":3780,
			"byteOffset":303396,
			"target":34962
		},
		{
			"buffer":0,
			"byteLength":2520,
			"byteOffset":307176,
			"target":34962
		},
		{
			"buffer":0,
			"byteLength":17880,
			"byteOffset":309696,
			"target":34962
		},
		{
			"buffer":0,
			"byteLength":17880,
			"byteOffset":327576,
			"target":34962
		},
		{
			"buffer":0,
			"byteLength":17880,
			"byteOffset":345456,
			"target":34962
		},
		{
			"buffer":0,
			"byteLength":17880,
			"byteOffset":363336,
			"target":34962
		},
		{
			"buffer":0,
			"byteLength":3780,
			"byteOffset":381216,
			"target":34962
		},
		{
			"buffer":0,
			"byteLength":3780,
			"byteOffset":384996,
			"target":34962
		},
		{
			"buffer":0,
			"byteLength":2520,
			"byteOffset":388776,
			"target":34962
		},
		{
			"buffer":0,
			"byteLength":17880,
			"byteOffset":391296,
			"target":34962
		},
		{
			"buffer":0,
			"byteLength":17880,
			"byteOffset":409176,
			"target":34962
		},
		{
			"buffer":0,
			"byteLength":17880,
			"byteOffset":427056,
			"target":34962
		},
		{
			"buffer":0,
			"byteLength":17880,
			"byteOffset":444936,
			"target":34962
		},
		{
			"buffer":0,
			"byteLength":12924,
			"byteOffset":462816,
			"target":34963
		},
		{
			"buffer":0,
			"byteLength":768,
			"byteOffset":475740,
			"target":34962
		},
		{
			"buffer":0,
			"byteLength":768,
			"byteOffset":476508,
			"target":34962
		},
		{
			"buffer":0,
			"byteLength":512,
			"byteOffset":477276,
			"target":34962
		},
		{
			"buffer":0,
			"byteLength":216,
			"byteOffset":477788,
			"target":34963
		},
		{
			"buffer":0,
			"byteLength":768,
			"byteOffset":478004,
			"target":34962
		},
		{
			"buffer":0,
			"byteLength":768,
			"byteOffset":478772,
			"target":34962
		},
		{
			"buffer":0,
			"byteLength":512,
			"byteOffset":479540,
			"target":34962
		},
		{
			"buffer":0,
			"byteLength":768,
			"byteOffset":480052,
			"target":34962
		},
		{
			"buffer":0,
			"byteLength":768,
			"byteOffset":480820,
			"target":34962
		},
		{
			"buffer":0,
			"byteLength":512,
			"byteOffset":481588,
			"target":34962
		},
		{
			"buffer":0,
			"byteLength":576,
			"byteOffset":482100,
			"target":34962
		},
		{
			"buffer":0,
			"byteLength":576,
			"byteOffset":482676,
			"target":34962
		},
		{
			"buffer":0,
			"byteLength":384,
			"byteOffset":483252,
			"target":34962
		},
		{
			"buffer":0,
			"byteLength":168,
			"byteOffset":483636,
			"target":34963
		},
		{
			"buffer":0,
			"byteLength":576,
			"byteOffset":483804,
			"target":34962
		},
		{
			"buffer":0,
			"byteLength":576,
			"byteOffset":484380,
			"target":34962
		},
		{
			"buffer":0,
			"byteLength":384,
			"byteOffset":484956,
			"target":34962
		},
		{
			"buffer":0,
			"byteLength":288,
			"byteOffset":485340,
			"target":34962
		},
		{
			"buffer":0,
			"byteLength":288,
			"byteOffset":485628,
			"target":34962
		},
		{
			"buffer":0,
			"byteLength":192,
			"byteOffset":485916,
			"target":34962
		},
		{
			"buffer":0,
			"byteLength":72,
			"byteOffset":486108,
			"target":34963
		},
		{
			"buffer":0,
			"byteLength":576,
			"byteOffset":486180,
			"target":34962
		},
		{
			"buffer":0,
			"byteLength":576,
			"byteOffset":486756,
			"target":34962
		},
		{
			"buffer":0,
			"byteLength":384,
			"byteOffset":487332,
			"target":34962
		},
		{
			"buffer":0,
			"byteLength":168,
			"byteOffset":487716,
			"target":34963
		},
		{
			"buffer":0,
			"byteLength":2556,
			"byteOffset":487884,
			"target":34962
		},
		{
			"buffer":0,
			"byteLength":2556,
			"byteOffset":490440,
			"target":34962
		},
		{
			"buffer":0,
			"byteLength":1704,
			"byteOffset":492996,
			"target":34962
		},
		{
			"buffer":0,
			"byteLength":1128,
			"byteOffset":494700,
			"target":34963
		},
		{
			"buffer":0,
			"byteLength":288,
			"byteOffset":495828,
			"target":34962
		},
		{
			"buffer":0,
			"byteLength":288,
			"byteOffset":496116,
			"target":34962
		},
		{
			"buffer":0,
			"byteLength":192,
			"byteOffset":496404,
			"target":34962
		},
		{
			"buffer":0,
			"byteLength":576,
			"byteOffset":496596,
			"target":34962
		},
		{
			"buffer":0,
			"byteLength":576,
			"byteOffset":497172,
			"target":34962
		},
		{
			"buffer":0,
			"byteLength":384,
			"byteOffset":497748,
			"target":34962
		},
		{
			"buffer":0,
			"byteLength":168,
			"byteOffset":498132,
			"target":34963
		},
		{
			"buffer":0,
			"byteLength":288,
			"byteOffset":498300,
			"target":34962
		},
		{
			"buffer":0,
			"byteLength":288,
			"byteOffset":498588,
			"target":34962
		},
		{
			"buffer":0,
			"byteLength":192,
			"byteOffset":498876,
			"target":34962
		},
		{
			"buffer":0,
			"byteLength":288,
			"byteOffset":499068,
			"target":34962
		},
		{
			"buffer":0,
			"byteLength":288,
			"byteOffset":499356,
			"target":34962
		},
		{
			"buffer":0,
			"byteLength":192,
			"byteOffset":499644,
			"target":34962
		},
		{
			"buffer":0,
			"byteLength":1200,
			"byteOffset":499836,
			"target":34962
		},
		{
			"buffer":0,
			"byteLength":1200,
			"byteOffset":501036,
			"target":34962
		},
		{
			"buffer":0,
			"byteLength":800,
			"byteOffset":502236,
			"target":34962
		},
		{
			"buffer":0,
			"byteLength":432,
			"byteOffset":503036,
			"target":34963
		}
	],
	"samplers":[
		{
			"magFilter":9729,
			"minFilter":9987
		}
	],
	"buffers":[
		{
			"byteLength":503468,
			"uri":"desk_1.bin"
		}
	]
}
