{
	"asset":{
		"generator":"Khronos glTF Blender I/O v5.2.40",
		"version":"2.0"
	},
	"scene":0,
	"scenes":[
		{
			"name":"Scene",
			"nodes":[
				29
			]
		}
	],
	"nodes":[
		{
			"mesh":0,
			"name":"polySurface18",
			"translation":[
				-1.1680643183353823e-05,
				5.132387741468847e-06,
				0
			]
		},
		{
			"mesh":1,
			"name":"polySurface19",
			"translation":[
				-1.1680643183353823e-05,
				5.132387741468847e-06,
				0
			]
		},
		{
			"mesh":2,
			"name":"polySurface20",
			"translation":[
				-1.1680643183353823e-05,
				5.132387741468847e-06,
				0
			]
		},
		{
			"mesh":3,
			"name":"polySurface21",
			"translation":[
				-1.1680643183353823e-05,
				5.132387741468847e-06,
				0
			]
		},
		{
			"mesh":4,
			"name":"polySurface22",
			"translation":[
				-1.1680643183353823e-05,
				5.132387741468847e-06,
				0
			]
		},
		{
			"mesh":5,
			"name":"polySurface23",
			"translation":[
				-1.1680643183353823e-05,
				5.132387741468847e-06,
				0
			]
		},
		{
			"mesh":6,
			"name":"polySurface24",
			"translation":[
				-1.1680643183353823e-05,
				5.132387741468847e-06,
				0
			]
		},
		{
			"mesh":7,
			"name":"polySurface25",
			"translation":[
				-1.1680643183353823e-05,
				5.132387741468847e-06,
				0
			]
		},
		{
			"mesh":8,
			"name":"polySurface26",
			"translation":[
				-1.1680643183353823e-05,
				5.132387741468847e-06,
				0
			]
		},
		{
			"mesh":9,
			"name":"polySurface27",
			"translation":[
				-1.1680643183353823e-05,
				5.132387741468847e-06,
				0
			]
		},
		{
			"mesh":10,
			"name":"polySurface28",
			"translation":[
				-1.1680643183353823e-05,
				5.132387741468847e-06,
				0
			]
		},
		{
			"mesh":11,
			"name":"polySurface29",
			"translation":[
				-1.1680643183353823e-05,
				5.132387741468847e-06,
				0
			]
		},
		{
			"mesh":12,
			"name":"polySurface30",
			"translation":[
				-1.1680643183353823e-05,
				5.132387741468847e-06,
				0
			]
		},
		{
			"mesh":13,
			"name":"polySurface31",
			"translation":[
				-1.1680643183353823e-05,
				5.132387741468847e-06,
				0
			]
		},
		{
			"mesh":14,
			"name":"polySurface32",
			"translation":[
				-1.1680643183353823e-05,
				5.132387741468847e-06,
				0
			]
		},
		{
			"mesh":15,
			"name":"polySurface33",
			"translation":[
				-1.1680643183353823e-05,
				5.132387741468847e-06,
				0
			]
		},
		{
			"mesh":16,
			"name":"polySurface34",
			"translation":[
				-1.1680643183353823e-05,
				5.132387741468847e-06,
				0
			]
		},
		{
			"mesh":17,
			"name":"polySurface35",
			"translation":[
				-1.1680643183353823e-05,
				5.132387741468847e-06,
				0
			]
		},
		{
			"mesh":18,
			"name":"polySurface36",
			"translation":[
				-1.1680643183353823e-05,
				5.132387741468847e-06,
				0
			]
		},
		{
			"mesh":19,
			"name":"polySurface37",
			"translation":[
				-1.1680643183353823e-05,
				5.132387741468847e-06,
				0
			]
		},
		{
			"mesh":20,
			"name":"polySurface38",
			"translation":[
				-1.1680643183353823e-05,
				5.132387741468847e-06,
				0
			]
		},
		{
			"mesh":21,
			"name":"polySurface39",
			"translation":[
				-1.1680643183353823e-05,
				5.132387741468847e-06,
				0
			]
		},
		{
			"mesh":22,
			"name":"polySurface40",
			"translation":[
				-1.1680643183353823e-05,
				5.132387741468847e-06,
				0
			]
		},
		{
			"mesh":23,
			"name":"polySurface41",
			"translation":[
				-1.1680643183353823e-05,
				5.132387741468847e-06,
				0
			]
		},
		{
			"mesh":24,
			"name":"polySurface42",
			"translation":[
				-1.1680643183353823e-05,
				5.132387741468847e-06,
				0
			]
		},
		{
			"mesh":25,
			"name":"polySurface43",
			"translation":[
				-1.1680643183353823e-05,
				5.132387741468847e-06,
				0
			]
		},
		{
			"mesh":26,
			"name":"polySurface44",
			"translation":[
				-1.1680643183353823e-05,
				5.132387741468847e-06,
				0
			]
		},
		{
			"mesh":27,
			"name":"polySurface45",
			"translation":[
				-1.1680643183353823e-05,
				5.132387741468847e-06,
				0
			]
		},
		{
			"name":"transform67",
			"rotation":[
				-0.5,
				0.5,
				-0.5,
				0.5
			],
			"scale":[
				4.371327877044678,
				4.371327877044678,
				4.371327877044678
			],
			"translation":[
				100.72123718261719,
				92.68177032470703,
				-16.694108963012695
			]
		},
		{
			"children":[
				0,
				1,
				2,
				3,
				4,
				5,
				6,
				7,
				8,
				9,
				10,
				11,
				12,
				13,
				14,
				15,
				16,
				17,
				18,
				19,
				20,
				21,
				22,
				23,
				24,
				25,
				26,
				27,
				28
			],
			"name":"polySurface13",
			"rotation":[
				0.5,
				-0.5,
				0.5,
				0.5
			],
			"scale":[
				0.22876344621181488,
				0.22876344621181488,
				0.22876344621181488
			],
			"translation":[
				21.202199935913086,
				-3.8190009593963623,
				-23.041337966918945
			]
		}
	],
	"materials":[
		{
			"doubleSided":true,
			"name":"gold",
			"pbrMetallicRoughness":{
				"metallicFactor":0,
				"roughnessFactor":0.5527864098548889
			}
		},
		{
			"doubleSided":true,
			"name":"drawer_handle_texture1",
			"pbrMetallicRoughness":{
				"metallicFactor":0,
				"roughnessFactor":0.5527864098548889
			}
		},
		{
			"doubleSided":true,
			"name":"desk_material",
			"pbrMetallicRoughness":{
				"metallicFactor":0,
				"roughnessFactor":0.5527864098548889
			}
		}
	],
	"meshes":[
		{
			"name":"Mesh",
			"primitives":[
				{
					"attributes":{
						"POSITION":0,
						"NORMAL":1,
						"TEXCOORD_0":2
					},
					"indices":3,
					"material":0
				}
			]
		},
		{
			"name":"Mesh.001",
			"primitives":[
				{
					"attributes":{
						"POSITION":4,
						"NORMAL":5
					},
					"indices":6,
					"material":0
				}
			]
		},
		{
			"name":"Mesh.002",
			"primitives":[
				{
					"attributes":{
						"POSITION":7,
						"NORMAL":8
					},
					"indices":9,
					"material":0
				}
			]
		},
		{
			"name":"Mesh.003",
			"primitives":[
				{
					"attributes":{
						"POSITION":10,
						"NORMAL":11
					},
					"indices":12,
					"material":0
				}
			]
		},
		{
			"name":"Mesh.004",
			"primitives":[
				{
					"attributes":{
						"POSITION":13,
						"NORMAL":14,
						"TEXCOORD_0":15
					},
					"indices":3,
					"material":0
				}
			]
		},
		{
			"name":"Mesh.005",
			"primitives":[
				{
					"attributes":{
						"POSITION":16,
						"NORMAL":17
					},
					"indices":18,
					"material":0
				}
			]
		},
		{
			"name":"Mesh.006",
			"primitives":[
				{
					"attributes":{
						"POSITION":19,
						"NORMAL":20
					},
					"indices":21,
					"material":0
				}
			]
		},
		{
			"name":"Mesh.007",
			"primitives":[
				{
					"attributes":{
						"POSITION":22,
						"NORMAL":23,
						"TEXCOORD_0":24
					},
					"indices":3,
					"material":0
				}
			]
		},
		{
			"name":"Mesh.008",
			"primitives":[
				{
					"attributes":{
						"POSITION":25,
						"NORMAL":26
					},
					"indices":27,
					"material":0
				}
			]
		},
		{
			"name":"Mesh.009",
			"primitives":[
				{
					"attributes":{
						"POSITION":28,
						"NORMAL":29,
						"TEXCOORD_0":30
					},
					"indices":3,
					"material":0
				}
			]
		},
		{
			"name":"Mesh.010",
			"primitives":[
				{
					"attributes":{
						"POSITION":31,
						"NORMAL":32
					},
					"indices":33,
					"material":0
				}
			]
		},
		{
			"name":"Mesh.011",
			"primitives":[
				{
					"attributes":{
						"POSITION":34,
						"NORMAL":35
					},
					"indices":36,
					"material":0
				}
			]
		},
		{
			"name":"Mesh.012",
			"primitives":[
				{
					"attributes":{
						"POSITION":37,
						"NORMAL":38,
						"TEXCOORD_0":39
					},
					"indices":3,
					"material":1
				}
			]
		},
		{
			"name":"Mesh.013",
			"primitives":[
				{
					"attributes":{
						"POSITION":40,
						"NORMAL":41
					},
					"indices":42,
					"material":0
				}
			]
		},
		{
			"name":"Mesh.014",
			"primitives":[
				{
					"attributes":{
						"POSITION":43,
						"NORMAL":44
					},
					"indices":45,
					"material":0
				}
			]
		},
		{
			"name":"Mesh.015",
			"primitives":[
				{
					"attributes":{
						"POSITION":46,
						"NORMAL":47,
						"TEXCOORD_0":48
					},
					"indices":49,
					"material":2
				}
			]
		},
		{
			"name":"Mesh.016",
			"primitives":[
				{
					"attributes":{
						"POSITION":50,
						"NORMAL":51,
						"TEXCOORD_0":52
					},
					"indices":49,
					"material":2
				}
			]
		},
		{
			"name":"Mesh.017",
			"primitives":[
				{
					"attributes":{
						"POSITION":53,
						"NORMAL":54,
						"TEXCOORD_0":55
					},
					"indices":49,
					"material":2
				}
			]
		},
		{
			"name":"Mesh.018",
			"primitives":[
				{
					"attributes":{
						"POSITION":56,
						"NORMAL":57,
						"TEXCOORD_0":58
					},
					"indices":59,
					"material":2
				}
			]
		},
		{
			"name":"Mesh.019",
			"primitives":[
				{
					"attributes":{
						"POSITION":60,
						"NORMAL":61,
						"TEXCOORD_0":62
					},
					"indices":59,
					"material":2
				}
			]
		},
		{
			"name":"Mesh.020",
			"primitives":[
				{
					"attributes":{
						"POSITION":63,
						"NORMAL":64,
						"TEXCOORD_0":65
					},
					"indices":66,
					"material":2
				}
			]
		},
		{
			"name":"Mesh.021",
			"primitives":[
				{
					"attributes":{
						"POSITION":67,
						"NORMAL":68,
						"TEXCOORD_0":69
					},
					"indices":59,
					"material":2
				}
			]
		},
		{
			"name":"Mesh.022",
			"primitives":[
				{
					"attributes":{
						"POSITION":70,
						"NORMAL":71,
						"TEXCOORD_0":72
					},
					"indices":73,
					"material":2
				}
			]
		},
		{
			"name":"Mesh.023",
			"primitives":[
				{
					"attributes":{
						"POSITION":74,
						"NORMAL":75,
						"TEXCOORD_0":76
					},
					"indices":66,
					"material":2
				}
			]
		},
		{
			"name":"Mesh.024",
			"primitives":[
				{
					"attributes":{
						"POSITION":77,
						"NORMAL":78,
						"TEXCOORD_0":79
					},
					"indices":80,
					"material":2
				}
			]
		},
		{
			"name":"Mesh.025",
			"primitives":[
				{
					"attributes":{
						"POSITION":81,
						"NORMAL":82,
						"TEXCOORD_0":83
					},
					"indices":84,
					"material":2
				}
			]
		},
		{
			"name":"Mesh.026",
			"primitives":[
				{
					"attributes":{
						"POSITION":85,
						"NORMAL":86,
						"TEXCOORD_0":87
					},
					"indices":66,
					"material":2
				}
			]
		},
		{
			"name":"Mesh.027",
			"primitives":[
				{
					"attributes":{
						"POSITION":88,
						"NORMAL":89,
						"TEXCOORD_0":90
					},
					"indices":91,
					"material":2
				}
			]
		}
	],
	"accessors":[
		{
			"bufferView":0,
			"componentType":5126,
			"count":315,
			"max":[
				104.95635986328125,
				92.05705261230469,
				-21.077348709106445
			],
			"min":[
				104.84272003173828,
				91.49947357177734,
				-21.306074142456055
			],
			"type":"VEC3"
		},
		{
			"bufferView":1,
			"componentType":5126,
			"count":315,
			"type":"VEC3"
		},
		{
			"bufferView":2,
			"componentType":5126,
			"count":315,
			"type":"VEC2"
		},
		{
			"bufferView":3,
			"componentType":5123,
			"count":1560,
			"type":"SCALAR"
		},
		{
			"bufferView":4,
			"componentType":5126,
			"count":1490,
			"max":[
				104.91903686523438,
				94.27349090576172,
				-19.543460845947266
			],
			"min":[
				104.8521499633789,
				93.5233383178711,
				-20.076791763305664
			],
			"type":"VEC3"
		},
		{
			"bufferView":5,
			"componentType":5126,
			"count":1490,
			"type":"VEC3"
		},
		{
			"bufferView":6,
			"componentType":5123,
			"count":6462,
			"type":"SCALAR"
		},
		{
			"bufferView":7,
			"componentType":5126,
			"count":1490,
			"max":[
				104.91744232177734,
				95.22325134277344,
				-19.543460845947266
			],
			"min":[
				104.85055541992188,
				94.47323608398438,
				-20.076791763305664
			],
			"type":"VEC3"
		},
		{
			"bufferView":8,
			"componentType":5126,
			"count":1490,
			"type":"VEC3"
		},
		{
			"bufferView":9,
			"componentType":5123,
			"count":6462,
			"type":"SCALAR"
		},
		{
			"bufferView":10,
			"componentType":5126,
			"count":1490,
			"max":[
				104.93347930908203,
				92.63571166992188,
				-21.140281677246094
			],
			"min":[
				104.86659240722656,
				91.88569641113281,
				-21.673612594604492
			],
			"type":"VEC3"
		},
		{
			"bufferView":11,
			"componentType":5126,
			"count":1490,
			"type":"VEC3"
		},
		{
			"bufferView":12,
			"componentType":5123,
			"count":6462,
			"type":"SCALAR"
		},
		{
			"bufferView":13,
			"componentType":5126,
			"count":315,
			"max":[
				104.95635986328125,
				94.64459228515625,
				-19.480527877807617
			],
			"min":[
				104.84272003173828,
				94.0870132446289,
				-19.709253311157227
			],
			"type":"VEC3"
		},
		{
			"bufferView":14,
			"componentType":5126,
			"count":315,
			"type":"VEC3"
		},
		{
			"bufferView":15,
			"componentType":5126,
			"count":315,
			"type":"VEC2"
		},
		{
			"bufferView":16,
			"componentType":5126,
			"count":1490,
			"max":[
				104.93548583984375,
				91.68595123291016,
				-21.140281677246094
			],
			"min":[
				104.86859893798828,
				90.93579864501953,
				-21.673612594604492
			],
			"type":"VEC3"
		},
		{
			"bufferView":17,
			"componentType":5126,
			"count":1490,
			"type":"VEC3"
		},
		{
			"bufferView":18,
			"componentType":5123,
			"count":6462,
			"type":"SCALAR"
		},
		{
			"bufferView":19,
			"componentType":5126,
			"count":1490,
			"max":[
				104.92564392089844,
				88.06900787353516,
				-21.11739730834961
			],
			"min":[
				104.85875701904297,
				87.31885528564453,
				-21.650728225708008
			],
			"type":"VEC3"
		},
		{
			"bufferView":20,
			"componentType":5126,
			"count":1490,
			"type":"VEC3"
		},
		{
			"bufferView":21,
			"componentType":5123,
			"count":6462,
			"type":"SCALAR"
		},
		{
			"bufferView":22,
			"componentType":5126,
			"count":315,
			"max":[
				104.95635986328125,
				88.44010925292969,
				-21.05446434020996
			],
			"min":[
				104.84272003173828,
				87.88253021240234,
				-21.28318977355957
			],
			"type":"VEC3"
		},
		{
			"bufferView":23,
			"componentType":5126,
			"count":315,
			"type":"VEC3"
		},
		{
			"bufferView":24,
			"componentType":5126,
			"count":315,
			"type":"VEC2"
		},
		{
			"bufferView":25,
			"componentType":5126,
			"count":1490,
			"max":[
				104.92646789550781,
				89.01876831054688,
				-21.11739730834961
			],
			"min":[
				104.85958099365234,
				88.26875305175781,
				-21.650728225708008
			],
			"type":"VEC3"
		},
		{
			"bufferView":26,
			"componentType":5126,
			"count":1490,
			"type":"VEC3"
		},
		{
			"bufferView":27,
			"componentType":5123,
			"count":6462,
			"type":"SCALAR"
		},
		{
			"bufferView":28,
			"componentType":5126,
			"count":315,
			"max":[
				104.95635986328125,
				94.64459228515625,
				-20.972543716430664
			],
			"min":[
				104.84272003173828,
				94.0870132446289,
				-21.201269149780273
			],
			"type":"VEC3"
		},
		{
			"bufferView":29,
			"componentType":5126,
			"count":315,
			"type":"VEC3"
		},
		{
			"bufferView":30,
			"componentType":5126,
			"count":315,
			"type":"VEC2"
		},
		{
			"bufferView":31,
			"componentType":5126,
			"count":1490,
			"max":[
				104.92076110839844,
				94.27349090576172,
				-21.035476684570312
			],
			"min":[
				104.85387420654297,
				93.5233383178711,
				-21.56880760192871
			],
			"type":"VEC3"
		},
		{
			"bufferView":32,
			"componentType":5126,
			"count":1490,
			"type":"VEC3"
		},
		{
			"bufferView":33,
			"componentType":5123,
			"count":6462,
			"type":"SCALAR"
		},
		{
			"bufferView":34,
			"componentType":5126,
			"count":1490,
			"max":[
				104.91744232177734,
				95.22325134277344,
				-21.035476684570312
			],
			"min":[
				104.85055541992188,
				94.47323608398438,
				-21.56880760192871
			],
			"type":"VEC3"
		},
		{
			"bufferView":35,
			"componentType":5126,
			"count":1490,
			"type":"VEC3"
		},
		{
			"bufferView":36,
			"componentType":5123,
			"count":6462,
			"type":"SCALAR"
		},
		{
			"bufferView":37,
			"componentType":5126,
			"count":315,
			"max":[
				104.95635986328125,
				94.64459228515625,
				-18.085521697998047
			],
			"min":[
				104.84272003173828,
				94.0870132446289,
				-18.314247131347656
			],
			"type":"VEC3"
		},
		{
			"bufferView":38,
			"componentType":5126,
			"count":315,
			"type":"VEC3"
		},
		{
			"bufferView":39,
			"componentType":5126,
			"count":315,
			"type":"VEC2"
		},
		{
			"bufferView":40,
			"componentType":5126,
			"count":1490,
			"max":[
				104.91744232177734,
				95.22325134277344,
				-18.148454666137695
			],
			"min":[
				104.85055541992188,
				94.47323608398438,
				-18.681785583496094
			],
			"type":"VEC3"
		},
		{
			"bufferView":41,
			"componentType":5126,
			"count":1490,
			"type":"VEC3"
		},
		{
			"bufferView":42,
			"componentType":5123,
			"count":6462,
			"type":"SCALAR"
		},
		{
			"bufferView":43,
			"componentType":5126,
			"count":1490,
			"max":[
				104.92097473144531,
				94.27349090576172,
				-18.148454666137695
			],
			"min":[
				104.85408782958984,
				93.5233383178711,
				-18.681785583496094
			],
			"type":"VEC3"
		},
		{
			"bufferView":44,
			"componentType":5126,
			"count":1490,
			"type":"VEC3"
		},
		{
			"bufferView":45,
			"componentType":5123,
			"count":6462,
			"type":"SCALAR"
		},
		{
			"bufferView":46,
			"componentType":5126,
			"count":64,
			"max":[
				104.87329864501953,
				95.45338439941406,
				-20.46207046508789
			],
			"min":[
				101.5992431640625,
				93.2779769897461,
				-21.860118865966797
			],
			"type":"VEC3"
		},
		{
			"bufferView":47,
			"componentType":5126,
			"count":64,
			"type":"VEC3"
		},
		{
			"bufferView":48,
			"componentType":5126,
			"count":64,
			"type":"VEC2"
		},
		{
			"bufferView":49,
			"componentType":5123,
			"count":108,
			"type":"SCALAR"
		},
		{
			"bufferView":50,
			"componentType":5126,
			"count":64,
			"max":[
				104.87329864501953,
				95.45338439941406,
				-19.05681037902832
			],
			"min":[
				101.5992431640625,
				93.2779769897461,
				-20.454858779907227
			],
			"type":"VEC3"
		},
		{
			"bufferView":51,
			"componentType":5126,
			"count":64,
			"type":"VEC3"
		},
		{
			"bufferView":52,
			"componentType":5126,
			"count":64,
			"type":"VEC2"
		},
		{
			"bufferView":53,
			"componentType":5126,
			"count":64,
			"max":[
				104.87329864501953,
				95.45338439941406,
				-17.647586822509766
			],
			"min":[
				101.5992431640625,
				93.2779769897461,
				-19.045635223388672
			],
			"type":"VEC3"
		},
		{
			"bufferView":54,
			"componentType":5126,
			"count":64,
			"type":"VEC3"
		},
		{
			"bufferView":55,
			"componentType":5126,
			"count":64,
			"type":"VEC2"
		},
		{
			"bufferView":56,
			"componentType":5126,
			"count":48,
			"max":[
				104.87394714355469,
				93.27738952636719,
				-16.858129501342773
			],
			"min":[
				101.37394714355469,
				92.9773941040039,
				-21.858129501342773
			],
			"type":"VEC3"
		},
		{
			"bufferView":57,
			"componentType":5126,
			"count":48,
			"type":"VEC3"
		},
		{
			"bufferView":58,
			"componentType":5126,
			"count":48,
			"type":"VEC2"
		},
		{
			"bufferView":59,
			"componentType":5123,
			"count":84,
			"type":"SCALAR"
		},
		{
			"bufferView":60,
			"componentType":5126,
			"count":48,
			"max":[
				104.87394714355469,
				95.75635528564453,
				-16.858129501342773
			],
			"min":[
				101.37394714355469,
				95.45635223388672,
				-21.858129501342773
			],
			"type":"VEC3"
		},
		{
			"bufferView":61,
			"componentType":5126,
			"count":48,
			"type":"VEC3"
		},
		{
			"bufferView":62,
			"componentType":5126,
			"count":48,
			"type":"VEC2"
		},
		{
			"bufferView":63,
			"componentType":5126,
			"count":24,
			"max":[
				104.8795166015625,
				92.96040344238281,
				-20.550251007080078
			],
			"min":[
				101.43455505371094,
				86.97341918945312,
				-20.850250244140625
			],
			"type":"VEC3"
		},
		{
			"bufferView":64,
			"componentType":5126,
			"count":24,
			"type":"VEC3"
		},
		{
			"bufferView":65,
			"componentType":5126,
			"count":24,
			"type":"VEC2"
		},
		{
			"bufferView":66,
			"componentType":5123,
			"count":36,
			"type":"SCALAR"
		},
		{
			"bufferView":67,
			"componentType":5126,
			"count":48,
			"max":[
				101.9098129272461,
				86.95701599121094,
				-16.858129501342773
			],
			"min":[
				101.3814697265625,
				86.65701293945312,
				-21.858129501342773
			],
			"type":"VEC3"
		},
		{
			"bufferView":68,
			"componentType":5126,
			"count":48,
			"type":"VEC3"
		},
		{
			"bufferView":69,
			"componentType":5126,
			"count":48,
			"type":"VEC2"
		},
		{
			"bufferView":70,
			"componentType":5126,
			"count":213,
			"max":[
				105.17416381835938,
				86.96817779541016,
				-16.837095260620117
			],
			"min":[
				104.29927825927734,
				86.65843963623047,
				-21.858129501342773
			],
			"type":"VEC3"
		},
		{
			"bufferView":71,
			"componentType":5126,
			"count":213,
			"type":"VEC3"
		},
		{
			"bufferView":72,
			"componentType":5126,
			"count":213,
			"type":"VEC2"
		},
		{
			"bufferView":73,
			"componentType":5123,
			"count":564,
			"type":"SCALAR"
		},
		{
			"bufferView":74,
			"componentType":5126,
			"count":24,
			"max":[
				104.88619995117188,
				95.47444152832031,
				-17.342788696289062
			],
			"min":[
				101.47512817382812,
				93.22444152832031,
				-17.64278793334961
			],
			"type":"VEC3"
		},
		{
			"bufferView":75,
			"componentType":5126,
			"count":24,
			"type":"VEC3"
		},
		{
			"bufferView":76,
			"componentType":5126,
			"count":24,
			"type":"VEC2"
		},
		{
			"bufferView":77,
			"componentType":5126,
			"count":48,
			"max":[
				104.88893127441406,
				92.95600128173828,
				-20.86282730102539
			],
			"min":[
				101.70270538330078,
				86.99687957763672,
				-21.86282730102539
			],
			"type":"VEC3"
		},
		{
			"bufferView":78,
			"componentType":5126,
			"count":48,
			"type":"VEC3"
		},
		{
			"bufferView":79,
			"componentType":5126,
			"count":48,
			"type":"VEC2"
		},
		{
			"bufferView":80,
			"componentType":5123,
			"count":84,
			"type":"SCALAR"
		},
		{
			"bufferView":81,
			"componentType":5126,
			"count":24,
			"max":[
				101.6793212890625,
				95.45642852783203,
				-17.31207275390625
			],
			"min":[
				101.44131469726562,
				93.1485366821289,
				-21.89273452758789
			],
			"type":"VEC3"
		},
		{
			"bufferView":82,
			"componentType":5126,
			"count":24,
			"type":"VEC3"
		},
		{
			"bufferView":83,
			"componentType":5126,
			"count":24,
			"type":"VEC2"
		},
		{
			"bufferView":84,
			"componentType":5123,
			"count":36,
			"type":"SCALAR"
		},
		{
			"bufferView":85,
			"componentType":5126,
			"count":24,
			"max":[
				101.78018951416016,
				92.97642517089844,
				-20.6513614654541
			],
			"min":[
				101.48018646240234,
				86.9613037109375,
				-21.898164749145508
			],
			"type":"VEC3"
		},
		{
			"bufferView":86,
			"componentType":5126,
			"count":24,
			"type":"VEC3"
		},
		{
			"bufferView":87,
			"componentType":5126,
			"count":24,
			"type":"VEC2"
		},
		{
			"bufferView":88,
			"componentType":5126,
			"count":100,
			"max":[
				105.02324676513672,
				95.88224792480469,
				-21.86011505126953
			],
			"min":[
				101.37162017822266,
				86.58474731445312,
				-22.284997940063477
			],
			"type":"VEC3"
		},
		{
			"bufferView":89,
			"componentType":5126,
			"count":100,
			"type":"VEC3"
		},
		{
			"bufferView":90,
			"componentType":5126,
			"count":100,
			"type":"VEC2"
		},
		{
			"bufferView":91,
			"componentType":5123,
			"count":216,
			"type":"SCALAR"
		}
	],
	"bufferViews":[
		{
			"buffer":0,
			"byteLength":3780,
			"byteOffset":0,
			"target":34962
		},
		{
			"buffer":0,
			"byteLength":3780,
			"byteOffset":3780,
			"target":34962
		},
		{
			"buffer":0,
			"byteLength":2520,
			"byteOffset":7560,
			"target":34962
		},
		{
			"buffer":0,
			"byteLength":3120,
			"byteOffset":10080,
			"target":34963
		},
		{
			"buffer":0,
			"byteLength":17880,
			"byteOffset":13200,
			"target":34962
		},
		{
			"buffer":0,
			"byteLength":17880,
			"byteOffset":31080,
			"target":34962
		},
		{
			"buffer":0,
			"byteLength":12924,
			"byteOffset":48960,
			"target":34963
		},
		{
			"buffer":0,
			"byteLength":17880,
			"byteOffset":61884,
			"target":34962
		},
		{
			"buffer":0,
			"byteLength":17880,
			"byteOffset":79764,
			"target":34962
		},
		{
			"buffer":0,
			"byteLength":12924,
			"byteOffset":97644,
			"target":34963
		},
		{
			"buffer":0,
			"byteLength":17880,
			"byteOffset":110568,
			"target":34962
		},
		{
			"buffer":0,
			"byteLength":17880,
			"byteOffset":128448,
			"target":34962
		},
		{
			"buffer":0,
			"byteLength":12924,
			"byteOffset":146328,
			"target":34963
		},
		{
			"buffer":0,
			"byteLength":3780,
			"byteOffset":159252,
			"target":34962
		},
		{
			"buffer":0,
			"byteLength":3780,
			"byteOffset":163032,
			"target":34962
		},
		{
			"buffer":0,
			"byteLength":2520,
			"byteOffset":166812,
			"target":34962
		},
		{
			"buffer":0,
			"byteLength":17880,
			"byteOffset":169332,
			"target":34962
		},
		{
			"buffer":0,
			"byteLength":17880,
			"byteOffset":187212,
			"target":34962
		},
		{
			"buffer":0,
			"byteLength":12924,
			"byteOffset":205092,
			"target":34963
		},
		{
			"buffer":0,
			"byteLength":17880,
			"byteOffset":218016,
			"target":34962
		},
		{
			"buffer":0,
			"byteLength":17880,
			"byteOffset":235896,
			"target":34962
		},
		{
			"buffer":0,
			"byteLength":12924,
			"byteOffset":253776,
			"target":34963
		},
		{
			"buffer":0,
			"byteLength":3780,
			"byteOffset":266700,
			"target":34962
		},
		{
			"buffer":0,
			"byteLength":3780,
			"byteOffset":270480,
			"target":34962
		},
		{
			"buffer":0,
			"byteLength":2520,
			"byteOffset":274260,
			"target":34962
		},
		{
			"buffer":0,
			"byteLength":17880,
			"byteOffset":276780,
			"target":34962
		},
		{
			"buffer":0,
			"byteLength":17880,
			"byteOffset":294660,
			"target":34962
		},
		{
			"buffer":0,
			"byteLength":12924,
			"byteOffset":312540,
			"target":34963
		},
		{
			"buffer":0,
			"byteLength":3780,
			"byteOffset":325464,
			"target":34962
		},
		{
			"buffer":0,
			"byteLength":3780,
			"byteOffset":329244,
			"target":34962
		},
		{
			"buffer":0,
			"byteLength":2520,
			"byteOffset":333024,
			"target":34962
		},
		{
			"buffer":0,
			"byteLength":17880,
			"byteOffset":335544,
			"target":34962
		},
		{
			"buffer":0,
			"byteLength":17880,
			"byteOffset":353424,
			"target":34962
		},
		{
			"buffer":0,
			"byteLength":12924,
			"byteOffset":371304,
			"target":34963
		},
		{
			"buffer":0,
			"byteLength":17880,
			"byteOffset":384228,
			"target":34962
		},
		{
			"buffer":0,
			"byteLength":17880,
			"byteOffset":402108,
			"target":34962
		},
		{
			"buffer":0,
			"byteLength":12924,
			"byteOffset":419988,
			"target":34963
		},
		{
			"buffer":0,
			"byteLength":3780,
			"byteOffset":432912,
			"target":34962
		},
		{
			"buffer":0,
			"byteLength":3780,
			"byteOffset":436692,
			"target":34962
		},
		{
			"buffer":0,
			"byteLength":2520,
			"byteOffset":440472,
			"target":34962
		},
		{
			"buffer":0,
			"byteLength":17880,
			"byteOffset":442992,
			"target":34962
		},
		{
			"buffer":0,
			"byteLength":17880,
			"byteOffset":460872,
			"target":34962
		},
		{
			"buffer":0,
			"byteLength":12924,
			"byteOffset":478752,
			"target":34963
		},
		{
			"buffer":0,
			"byteLength":17880,
			"byteOffset":491676,
			"target":34962
		},
		{
			"buffer":0,
			"byteLength":17880,
			"byteOffset":509556,
			"target":34962
		},
		{
			"buffer":0,
			"byteLength":12924,
			"byteOffset":527436,
			"target":34963
		},
		{
			"buffer":0,
			"byteLength":768,
			"byteOffset":540360,
			"target":34962
		},
		{
			"buffer":0,
			"byteLength":768,
			"byteOffset":541128,
			"target":34962
		},
		{
			"buffer":0,
			"byteLength":512,
			"byteOffset":541896,
			"target":34962
		},
		{
			"buffer":0,
			"byteLength":216,
			"byteOffset":542408,
			"target":34963
		},
		{
			"buffer":0,
			"byteLength":768,
			"byteOffset":542624,
			"target":34962
		},
		{
			"buffer":0,
			"byteLength":768,
			"byteOffset":543392,
			"target":34962
		},
		{
			"buffer":0,
			"byteLength":512,
			"byteOffset":544160,
			"target":34962
		},
		{
			"buffer":0,
			"byteLength":768,
			"byteOffset":544672,
			"target":34962
		},
		{
			"buffer":0,
			"byteLength":768,
			"byteOffset":545440,
			"target":34962
		},
		{
			"buffer":0,
			"byteLength":512,
			"byteOffset":546208,
			"target":34962
		},
		{
			"buffer":0,
			"byteLength":576,
			"byteOffset":546720,
			"target":34962
		},
		{
			"buffer":0,
			"byteLength":576,
			"byteOffset":547296,
			"target":34962
		},
		{
			"buffer":0,
			"byteLength":384,
			"byteOffset":547872,
			"target":34962
		},
		{
			"buffer":0,
			"byteLength":168,
			"byteOffset":548256,
			"target":34963
		},
		{
			"buffer":0,
			"byteLength":576,
			"byteOffset":548424,
			"target":34962
		},
		{
			"buffer":0,
			"byteLength":576,
			"byteOffset":549000,
			"target":34962
		},
		{
			"buffer":0,
			"byteLength":384,
			"byteOffset":549576,
			"target":34962
		},
		{
			"buffer":0,
			"byteLength":288,
			"byteOffset":549960,
			"target":34962
		},
		{
			"buffer":0,
			"byteLength":288,
			"byteOffset":550248,
			"target":34962
		},
		{
			"buffer":0,
			"byteLength":192,
			"byteOffset":550536,
			"target":34962
		},
		{
			"buffer":0,
			"byteLength":72,
			"byteOffset":550728,
			"target":34963
		},
		{
			"buffer":0,
			"byteLength":576,
			"byteOffset":550800,
			"target":34962
		},
		{
			"buffer":0,
			"byteLength":576,
			"byteOffset":551376,
			"target":34962
		},
		{
			"buffer":0,
			"byteLength":384,
			"byteOffset":551952,
			"target":34962
		},
		{
			"buffer":0,
			"byteLength":2556,
			"byteOffset":552336,
			"target":34962
		},
		{
			"buffer":0,
			"byteLength":2556,
			"byteOffset":554892,
			"target":34962
		},
		{
			"buffer":0,
			"byteLength":1704,
			"byteOffset":557448,
			"target":34962
		},
		{
			"buffer":0,
			"byteLength":1128,
			"byteOffset":559152,
			"target":34963
		},
		{
			"buffer":0,
			"byteLength":288,
			"byteOffset":560280,
			"target":34962
		},
		{
			"buffer":0,
			"byteLength":288,
			"byteOffset":560568,
			"target":34962
		},
		{
			"buffer":0,
			"byteLength":192,
			"byteOffset":560856,
			"target":34962
		},
		{
			"buffer":0,
			"byteLength":576,
			"byteOffset":561048,
			"target":34962
		},
		{
			"buffer":0,
			"byteLength":576,
			"byteOffset":561624,
			"target":34962
		},
		{
			"buffer":0,
			"byteLength":384,
			"byteOffset":562200,
			"target":34962
		},
		{
			"buffer":0,
			"byteLength":168,
			"byteOffset":562584,
			"target":34963
		},
		{
			"buffer":0,
			"byteLength":288,
			"byteOffset":562752,
			"target":34962
		},
		{
			"buffer":0,
			"byteLength":288,
			"byteOffset":563040,
			"target":34962
		},
		{
			"buffer":0,
			"byteLength":192,
			"byteOffset":563328,
			"target":34962
		},
		{
			"buffer":0,
			"byteLength":72,
			"byteOffset":563520,
			"target":34963
		},
		{
			"buffer":0,
			"byteLength":288,
			"byteOffset":563592,
			"target":34962
		},
		{
			"buffer":0,
			"byteLength":288,
			"byteOffset":563880,
			"target":34962
		},
		{
			"buffer":0,
			"byteLength":192,
			"byteOffset":564168,
			"target":34962
		},
		{
			"buffer":0,
			"byteLength":1200,
			"byteOffset":564360,
			"target":34962
		},
		{
			"buffer":0,
			"byteLength":1200,
			"byteOffset":565560,
			"target":34962
		},
		{
			"buffer":0,
			"byteLength":800,
			"byteOffset":566760,
			"target":34962
		},
		{
			"buffer":0,
			"byteLength":432,
			"byteOffset":567560,
			"target":34963
		}
	],
	"buffers":[
		{
			"byteLength":567992,
			"uri":"desk.bin"
		}
	]
}
