{
	"asset":{
		"generator":"Khronos glTF Blender I/O v5.2.40",
		"version":"2.0"
	},
	"scene":0,
	"scenes":[
		{
			"name":"Scene",
			"nodes":[
				0
			]
		}
	],
	"nodes":[
		{
			"mesh":0,
			"name":"Dragon"
		}
	],
	"meshes":[
		{
			"name":"Dragon",
			"primitives":[
				{
					"attributes":{
						"POSITION":0,
						"NORMAL":1,
						"TEXCOORD_0":2
					},
					"indices":3
				}
			]
		}
	],
	"accessors":[
		{
			"bufferView":0,
			"componentType":5126,
			"count":76809,
			"max":[
				1.7616750001907349,
				1.7543270587921143,
				0.7878251075744629
			],
			"min":[
				-1.7616750001907349,
				-0.7306479215621948,
				-0.7878249883651733
			],
			"type":"VEC3"
		},
		{
			"bufferView":1,
			"componentType":5126,
			"count":76809,
			"type":"VEC3"
		},
		{
			"bufferView":2,
			"componentType":5126,
			"count":76809,
			"type":"VEC2"
		},
		{
			"bufferView":3,
			"componentType":5125,
			"count":273648,
			"type":"SCALAR"
		}
	],
	"bufferViews":[
		{
			"buffer":0,
			"byteLength":921708,
			"byteOffset":0,
			"target":34962
		},
		{
			"buffer":0,
			"byteLength":921708,
			"byteOffset":921708,
			"target":34962
		},
		{
			"buffer":0,
			"byteLength":614472,
			"byteOffset":1843416,
			"target":34962
		},
		{
			"buffer":0,
			"byteLength":1094592,
			"byteOffset":2457888,
			"target":34963
		}
	],
	"buffers":[
		{
			"byteLength":3552480,
			"uri":"dragon.bin"
		}
	]
}
