{
  "asset": {
    "version": "2.0",
    "generator": "TurboSquid Stem Converter v1.0.0"
  },
  "accessors": [
    {
      "bufferView": 0,
      "byteOffset": 0,
      "componentType": 5126,
      "count": 2575,
      "type": "VEC3",
      "max": [
        0.12639220058918,
        0.15645018219947815,
        0.30000001192092896
      ],
      "min": [
        -0.12639220058918,
        -0.15645018219947815,
        0.0
      ]
    },
    {
      "bufferView": 1,
      "byteOffset": 0,
      "componentType": 5126,
      "count": 2575,
      "type": "VEC3",
      "max": [
        0.998493492603302,
        0.9995844960212708,
        0.999774158000946
      ],
      "min": [
        -0.9994297623634338,
        -0.9958896636962891,
        -1.0
      ]
    },
    {
      "bufferView": 2,
      "byteOffset": 0,
      "componentType": 5126,
      "count": 2575,
      "type": "VEC2",
      "max": [
        0.960391104221344,
        0.9899810552597046
      ],
      "min": [
        0.01000384334474802,
        0.010004222393035889
      ]
    },
    {
      "bufferView": 3,
      "byteOffset": 0,
      "componentType": 5123,
      "count": 13074,
      "type": "SCALAR",
      "max": [
        2574.0
      ],
      "min": [
        0.0
      ]
    }
  ],
  "buffers": [
    {
      "byteLength": 108548,
      "uri": "eagle.bin"
    }
  ],
  "bufferViews": [
    {
      "buffer": 0,
      "byteOffset": 0,
      "byteLength": 30900,
      "target": 34962
    },
    {
      "buffer": 0,
      "byteOffset": 30900,
      "byteLength": 30900,
      "target": 34962
    },
    {
      "buffer": 0,
      "byteOffset": 61800,
      "byteLength": 20600,
      "target": 34962
    },
    {
      "buffer": 0,
      "byteOffset": 82400,
      "byteLength": 26148,
      "target": 34963
    }
  ],
  "materials": [
    {
      "name": "mt_eagle",
      "pbrMetallicRoughness": {
        "baseColorTexture": {
          "index": 0
        },
        "metallicRoughnessTexture": {
          "index": 1
        }
      },
      "alphaMode": "OPAQUE",
      "occlusionTexture": {
        "index": 1
      },
      "normalTexture": {
        "index": 2
      }
    }
  ],
  "meshes": [
    {
      "name": "eagle",
      "primitives": [
        {
          "mode": 4,
          "material": 0,
          "indices": 3,
          "attributes": {
            "POSITION": 0,
            "NORMAL": 1,
            "TEXCOORD_0": 2
          }
        }
      ]
    }
  ],
  "nodes": [
    {
      "children": [
        1
      ]
    },
    {
      "name": "node",
      "matrix": [
        100.0,
        0.0,
        0.0,
        0.0,
        0.0,
        -1.6292067812173627e-05,
        -100.0,
        0.0,
        0.0,
        100.0,
        -1.6292067812173627e-05,
        0.0,
        0.0,
        0.0,
        0.0,
        1.0
      ],
      "children": [
        2
      ]
    },
    {
      "name": "eagle",
      "mesh": 0
    }
  ],
  "scenes": [
    {
      "nodes": [
        0
      ]
    }
  ],
  "scene": 0,
  "samplers": [
    {
      "magFilter": 9729,
      "minFilter": 9987,
      "wrapS": 10497,
      "wrapT": 10497
    }
  ],
  "images": [
    {
      "uri": "textures/baseColor.jpg"
    },
    {
      "uri": "textures/occlusionRoughnessMetallic.jpg"
    },
    {
      "uri": "textures/normal.png"
    }
  ],
  "textures": [
    {
      "sampler": 0,
      "source": 0
    },
    {
      "sampler": 0,
      "source": 1
    },
    {
      "sampler": 0,
      "source": 2
    }
  ]
}