{
	"asset":{
		"generator":"Khronos glTF Blender I/O v5.2.40",
		"version":"2.0"
	},
	"scene":0,
	"scenes":[
		{
			"name":"Scene",
			"nodes":[
				0
			]
		}
	],
	"nodes":[
		{
			"mesh":0,
			"name":"Quilt",
			"rotation":[
				0.3135901391506195,
				0.6337674260139465,
				-0.6337675452232361,
				0.3135901093482971
			],
			"scale":[
				0.20164097845554352,
				0.20164097845554352,
				0.20164096355438232
			],
			"translation":[
				-0.1671668142080307,
				0.0004834979772567749,
				-0.03757366165518761
			]
		}
	],
	"materials":[
		{
			"doubleSided":true,
			"name":"Bed Sheet"
		},
		{
			"doubleSided":true,
			"name":"Leather"
		}
	],
	"meshes":[
		{
			"name":"Pattern2D_4280.001",
			"primitives":[
				{
					"attributes":{
						"POSITION":0,
						"NORMAL":1,
						"TEXCOORD_0":2
					},
					"indices":3,
					"material":0
				},
				{
					"attributes":{
						"POSITION":4,
						"NORMAL":5,
						"TEXCOORD_0":6
					},
					"indices":7,
					"material":1
				}
			]
		}
	],
	"accessors":[
		{
			"bufferView":0,
			"componentType":5126,
			"count":113694,
			"max":[
				0.45652052760124207,
				0.9348831176757812,
				-0.00043958472087979317
			],
			"min":[
				-1.704434871673584,
				-1.0535163879394531,
				-0.8267666101455688
			],
			"type":"VEC3"
		},
		{
			"bufferView":1,
			"componentType":5126,
			"count":113694,
			"type":"VEC3"
		},
		{
			"bufferView":2,
			"componentType":5126,
			"count":113694,
			"type":"VEC2"
		},
		{
			"bufferView":3,
			"componentType":5125,
			"count":644916,
			"type":"SCALAR"
		},
		{
			"bufferView":4,
			"componentType":5126,
			"count":1068,
			"max":[
				0.6415390372276306,
				0.8006345629692078,
				-0.04069820046424866
			],
			"min":[
				-1.530160665512085,
				-0.799565315246582,
				-0.8032898902893066
			],
			"type":"VEC3"
		},
		{
			"bufferView":5,
			"componentType":5126,
			"count":1068,
			"type":"VEC3"
		},
		{
			"bufferView":6,
			"componentType":5126,
			"count":1068,
			"type":"VEC2"
		},
		{
			"bufferView":7,
			"componentType":5123,
			"count":1860,
			"type":"SCALAR"
		}
	],
	"bufferViews":[
		{
			"buffer":0,
			"byteLength":1364328,
			"byteOffset":0,
			"target":34962
		},
		{
			"buffer":0,
			"byteLength":1364328,
			"byteOffset":1364328,
			"target":34962
		},
		{
			"buffer":0,
			"byteLength":909552,
			"byteOffset":2728656,
			"target":34962
		},
		{
			"buffer":0,
			"byteLength":2579664,
			"byteOffset":3638208,
			"target":34963
		},
		{
			"buffer":0,
			"byteLength":12816,
			"byteOffset":6217872,
			"target":34962
		},
		{
			"buffer":0,
			"byteLength":12816,
			"byteOffset":6230688,
			"target":34962
		},
		{
			"buffer":0,
			"byteLength":8544,
			"byteOffset":6243504,
			"target":34962
		},
		{
			"buffer":0,
			"byteLength":3720,
			"byteOffset":6252048,
			"target":34963
		}
	],
	"buffers":[
		{
			"byteLength":6255768,
			"uri":"MD_Bed_BS.bin"
		}
	]
}
