{
	"asset":{
		"generator":"Khronos glTF Blender I/O v5.2.40",
		"version":"2.0"
	},
	"scene":0,
	"scenes":[
		{
			"name":"Scene",
			"nodes":[
				0
			]
		}
	],
	"nodes":[
		{
			"mesh":0,
			"name":"Mirror Free 1"
		}
	],
	"materials":[
		{
			"doubleSided":true,
			"name":"mirror",
			"pbrMetallicRoughness":{
				"baseColorFactor":[
					0.800000011920929,
					0.800000011920929,
					0.800000011920929,
					1
				],
				"roughnessFactor":0
			}
		},
		{
			"doubleSided":true,
			"name":"mirror_rim",
			"pbrMetallicRoughness":{
				"baseColorTexture":{
					"index":0
				},
				"metallicFactor":0,
				"roughnessFactor":0.5
			}
		}
	],
	"meshes":[
		{
			"name":"Cylinder.001",
			"primitives":[
				{
					"attributes":{
						"POSITION":0,
						"NORMAL":1,
						"TEXCOORD_0":2
					},
					"indices":3,
					"material":0
				},
				{
					"attributes":{
						"POSITION":4,
						"NORMAL":5,
						"TEXCOORD_0":6
					},
					"indices":7,
					"material":1
				}
			]
		}
	],
	"textures":[
		{
			"sampler":0,
			"source":0
		}
	],
	"images":[
		{
			"mimeType":"image/jpeg",
			"name":"smoke_speckled_veneer_diff_4k",
			"uri":"smoke_speckled_veneer_diff_4k.jpg"
		}
	],
	"accessors":[
		{
			"bufferView":0,
			"componentType":5126,
			"count":219,
			"max":[
				0.5415049195289612,
				0.02115745283663273,
				0.5415049195289612
			],
			"min":[
				-0.5415049195289612,
				0.011394458822906017,
				-0.5415050387382507
			],
			"type":"VEC3"
		},
		{
			"bufferView":1,
			"componentType":5126,
			"count":219,
			"type":"VEC3"
		},
		{
			"bufferView":2,
			"componentType":5126,
			"count":219,
			"type":"VEC2"
		},
		{
			"bufferView":3,
			"componentType":5123,
			"count":774,
			"type":"SCALAR"
		},
		{
			"bufferView":4,
			"componentType":5126,
			"count":2768,
			"max":[
				0.5638501048088074,
				0.030920395627617836,
				0.5638501048088074
			],
			"min":[
				-0.5638501048088074,
				-0.007202574983239174,
				-0.5638501048088074
			],
			"type":"VEC3"
		},
		{
			"bufferView":5,
			"componentType":5126,
			"count":2768,
			"type":"VEC3"
		},
		{
			"bufferView":6,
			"componentType":5126,
			"count":2768,
			"type":"VEC2"
		},
		{
			"bufferView":7,
			"componentType":5123,
			"count":13050,
			"type":"SCALAR"
		}
	],
	"bufferViews":[
		{
			"buffer":0,
			"byteLength":2628,
			"byteOffset":0,
			"target":34962
		},
		{
			"buffer":0,
			"byteLength":2628,
			"byteOffset":2628,
			"target":34962
		},
		{
			"buffer":0,
			"byteLength":1752,
			"byteOffset":5256,
			"target":34962
		},
		{
			"buffer":0,
			"byteLength":1548,
			"byteOffset":7008,
			"target":34963
		},
		{
			"buffer":0,
			"byteLength":33216,
			"byteOffset":8556,
			"target":34962
		},
		{
			"buffer":0,
			"byteLength":33216,
			"byteOffset":41772,
			"target":34962
		},
		{
			"buffer":0,
			"byteLength":22144,
			"byteOffset":74988,
			"target":34962
		},
		{
			"buffer":0,
			"byteLength":26100,
			"byteOffset":97132,
			"target":34963
		}
	],
	"samplers":[
		{
			"magFilter":9729,
			"minFilter":9987
		}
	],
	"buffers":[
		{
			"byteLength":123232,
			"uri":"mirror.bin"
		}
	]
}
