{
  "asset": {
    "generator": "Khronos glTF Blender I/O v5.2.40",
    "version": "2.0"
  },
  "scene": 0,
  "scenes": [
    {
      "name": "Scene",
      "nodes": [
        0,
        1,
        2,
        3
      ]
    }
  ],
  "nodes": [
    {
      "mesh": 0,
      "name": "Body"
    },
    {
      "mesh": 1,
      "name": "Keyboard"
    },
    {
      "mesh": 2,
      "name": "Mouse"
    },
    {
      "mesh": 3,
      "name": "Stand"
    }
  ],
  "materials": [
    {
      "doubleSided": true,
      "name": "PCBody",
      "pbrMetallicRoughness": {
        "metallicFactor": 0.949999988079071,
        "roughnessFactor": 0.5
      }
    },
    {
      "doubleSided": true,
      "name": "PortWires",
      "pbrMetallicRoughness": {
        "baseColorFactor": [
          1,
          0.5528181195259094,
          0.2657489478588104,
          1
        ],
        "metallicFactor": 0.8999999761581421,
        "roughnessFactor": 0.30000001192092896
      }
    },
    {
      "doubleSided": true,
      "name": "Port",
      "pbrMetallicRoughness": {
        "baseColorFactor": [
          0.02500000037252903,
          0.02500000037252903,
          0.02500000037252903,
          1
        ],
        "metallicFactor": 0,
        "roughnessFactor": 0.5
      }
    },
    {
      "doubleSided": true,
      "name": "Screen",
      "pbrMetallicRoughness": {
        "baseColorTexture": {
          "index": 0
        },
        "metallicFactor": 0,
        "roughnessFactor": 0.15000000596046448
      },
      "emissiveFactor": [
        1.0,
        1.0,
        1.0
      ],
      "emissiveTexture": {
        "index": 0
      },
      "extensions": {
        "KHR_materials_emissive_strength": {
          "emissiveStrength": 3.0
        }
      }
    },
    {
      "doubleSided": true,
      "name": "Side",
      "pbrMetallicRoughness": {
        "baseColorFactor": [
          0.46967098116874695,
          0.46967098116874695,
          0.46967098116874695,
          1
        ],
        "metallicFactor": 0.8999999761581421,
        "roughnessFactor": 0.30000001192092896
      }
    },
    {
      "doubleSided": true,
      "name": "OnOffButton",
      "pbrMetallicRoughness": {
        "baseColorTexture": {
          "index": 1
        },
        "metallicFactor": 0.949999988079071,
        "roughnessFactor": 0.5
      }
    },
    {
      "doubleSided": true,
      "name": "Logos",
      "pbrMetallicRoughness": {
        "baseColorTexture": {
          "index": 2
        },
        "metallicFactor": 0.949999988079071,
        "roughnessFactor": 0.5
      }
    },
    {
      "doubleSided": true,
      "name": "ScreenOff",
      "pbrMetallicRoughness": {
        "baseColorFactor": [
          0,
          0,
          0,
          1
        ],
        "metallicFactor": 0,
        "roughnessFactor": 0.15000000596046448
      }
    },
    {
      "doubleSided": true,
      "name": "KeyboardKeys",
      "pbrMetallicRoughness": {
        "baseColorTexture": {
          "index": 3
        },
        "metallicFactor": 0,
        "roughnessFactor": 0.5
      }
    },
    {
      "doubleSided": true,
      "name": "KeyboardLine",
      "pbrMetallicRoughness": {
        "baseColorFactor": [
          0.800000011920929,
          0.800000011920929,
          0.800000011920929,
          1
        ],
        "metallicFactor": 0.550000011920929,
        "roughnessFactor": 0.5
      }
    },
    {
      "doubleSided": true,
      "name": "On/Off",
      "pbrMetallicRoughness": {
        "baseColorFactor": [
          0.09029296785593033,
          0.4121263921260834,
          0.04282260313630104,
          1
        ],
        "metallicFactor": 0.949999988079071,
        "roughnessFactor": 0.5
      }
    },
    {
      "doubleSided": true,
      "name": "Side.001",
      "pbrMetallicRoughness": {
        "baseColorFactor": [
          0.46967098116874695,
          0.46967098116874695,
          0.46967098116874695,
          1
        ],
        "metallicFactor": 0.8999999761581421,
        "roughnessFactor": 0.30000001192092896
      }
    },
    {
      "doubleSided": true,
      "name": "Lens",
      "pbrMetallicRoughness": {
        "baseColorFactor": [
          0.036082468926906586,
          0.036082468926906586,
          0.036082468926906586,
          1
        ],
        "metallicFactor": 0.20000000298023224,
        "roughnessFactor": 0.10000000149011612
      }
    },
    {
      "alphaMode": "BLEND",
      "doubleSided": true,
      "name": "MouseTop",
      "pbrMetallicRoughness": {
        "baseColorFactor": [
          0.800000011920929,
          0.800000011920929,
          0.800000011920929,
          0.6000000238418579
        ],
        "metallicFactor": 0,
        "roughnessFactor": 0.05000000074505806
      }
    },
    {
      "doubleSided": true,
      "name": "mouseTop",
      "pbrMetallicRoughness": {
        "baseColorFactor": [
          0.800000011920929,
          0.800000011920929,
          0.800000011920929,
          1
        ],
        "metallicFactor": 0,
        "roughnessFactor": 0.3176795244216919
      }
    }
  ],
  "meshes": [
    {
      "name": "Plane.002",
      "primitives": [
        {
          "attributes": {
            "POSITION": 0,
            "NORMAL": 1,
            "TEXCOORD_0": 2
          },
          "indices": 3,
          "material": 0
        },
        {
          "attributes": {
            "POSITION": 4,
            "NORMAL": 5,
            "TEXCOORD_0": 6
          },
          "indices": 7,
          "material": 1
        },
        {
          "attributes": {
            "POSITION": 8,
            "NORMAL": 9,
            "TEXCOORD_0": 10
          },
          "indices": 11,
          "material": 2
        },
        {
          "attributes": {
            "POSITION": 12,
            "NORMAL": 13,
            "TEXCOORD_0": 14
          },
          "indices": 15,
          "material": 3
        },
        {
          "attributes": {
            "POSITION": 16,
            "NORMAL": 17,
            "TEXCOORD_0": 18
          },
          "indices": 19,
          "material": 4
        },
        {
          "attributes": {
            "POSITION": 20,
            "NORMAL": 21,
            "TEXCOORD_0": 22
          },
          "indices": 23,
          "material": 5
        },
        {
          "attributes": {
            "POSITION": 24,
            "NORMAL": 25,
            "TEXCOORD_0": 26
          },
          "indices": 27,
          "material": 6
        },
        {
          "attributes": {
            "POSITION": 28,
            "NORMAL": 29,
            "TEXCOORD_0": 30
          },
          "indices": 31,
          "material": 7
        }
      ]
    },
    {
      "name": "Plane.004",
      "primitives": [
        {
          "attributes": {
            "POSITION": 32,
            "NORMAL": 33,
            "TEXCOORD_0": 34
          },
          "indices": 35,
          "material": 0
        },
        {
          "attributes": {
            "POSITION": 36,
            "NORMAL": 37,
            "TEXCOORD_0": 38
          },
          "indices": 39,
          "material": 1
        },
        {
          "attributes": {
            "POSITION": 40,
            "NORMAL": 41,
            "TEXCOORD_0": 42
          },
          "indices": 43,
          "material": 2
        },
        {
          "attributes": {
            "POSITION": 44,
            "NORMAL": 45,
            "TEXCOORD_0": 46
          },
          "indices": 47,
          "material": 6
        },
        {
          "attributes": {
            "POSITION": 48,
            "NORMAL": 49,
            "TEXCOORD_0": 50
          },
          "indices": 51,
          "material": 8
        },
        {
          "attributes": {
            "POSITION": 52,
            "NORMAL": 53,
            "TEXCOORD_0": 54
          },
          "indices": 55,
          "material": 9
        },
        {
          "attributes": {
            "POSITION": 56,
            "NORMAL": 57,
            "TEXCOORD_0": 58
          },
          "indices": 59,
          "material": 10
        },
        {
          "attributes": {
            "POSITION": 60,
            "NORMAL": 61,
            "TEXCOORD_0": 62
          },
          "indices": 63,
          "material": 11
        }
      ]
    },
    {
      "name": "Plane.007",
      "primitives": [
        {
          "attributes": {
            "POSITION": 64,
            "NORMAL": 65,
            "TEXCOORD_0": 66
          },
          "indices": 67,
          "material": 0
        },
        {
          "attributes": {
            "POSITION": 68,
            "NORMAL": 69,
            "TEXCOORD_0": 70
          },
          "indices": 71,
          "material": 1
        },
        {
          "attributes": {
            "POSITION": 72,
            "NORMAL": 73,
            "TEXCOORD_0": 74
          },
          "indices": 75,
          "material": 2
        },
        {
          "attributes": {
            "POSITION": 76,
            "NORMAL": 77,
            "TEXCOORD_0": 78
          },
          "indices": 79,
          "material": 6
        },
        {
          "attributes": {
            "POSITION": 80,
            "NORMAL": 81,
            "TEXCOORD_0": 82
          },
          "indices": 59,
          "material": 10
        },
        {
          "attributes": {
            "POSITION": 83,
            "NORMAL": 84,
            "TEXCOORD_0": 85
          },
          "indices": 86,
          "material": 11
        },
        {
          "attributes": {
            "POSITION": 87,
            "NORMAL": 88,
            "TEXCOORD_0": 89
          },
          "indices": 90,
          "material": 12
        },
        {
          "attributes": {
            "POSITION": 91,
            "NORMAL": 92,
            "TEXCOORD_0": 93
          },
          "indices": 94,
          "material": 13
        },
        {
          "attributes": {
            "POSITION": 95,
            "NORMAL": 96,
            "TEXCOORD_0": 97
          },
          "indices": 98,
          "material": 14
        }
      ]
    },
    {
      "name": "Plane",
      "primitives": [
        {
          "attributes": {
            "POSITION": 99,
            "NORMAL": 100,
            "TEXCOORD_0": 101
          },
          "indices": 102,
          "material": 0
        }
      ]
    }
  ],
  "textures": [
    {
      "sampler": 0,
      "source": 0
    },
    {
      "sampler": 0,
      "source": 1
    },
    {
      "sampler": 0,
      "source": 1
    },
    {
      "sampler": 0,
      "source": 2
    }
  ],
  "images": [
    {
      "mimeType": "image/jpeg",
      "name": "pc_screen_img",
      "uri": "pc_screen_img.jpg"
    },
    {
      "mimeType": "image/jpeg",
      "name": "Logos",
      "uri": "Logos.jpg"
    },
    {
      "mimeType": "image/png",
      "name": "Keyboard",
      "uri": "Keyboard.png"
    }
  ],
  "accessors": [
    {
      "bufferView": 0,
      "componentType": 5126,
      "count": 975,
      "max": [
        -0.32621288299560547,
        5.406990051269531,
        3.3300507068634033
      ],
      "min": [
        -0.5653505325317383,
        0.8230388164520264,
        -3.3481719493865967
      ],
      "type": "VEC3"
    },
    {
      "bufferView": 1,
      "componentType": 5126,
      "count": 975,
      "type": "VEC3"
    },
    {
      "bufferView": 2,
      "componentType": 5126,
      "count": 975,
      "type": "VEC2"
    },
    {
      "bufferView": 3,
      "componentType": 5123,
      "count": 2751,
      "type": "SCALAR"
    },
    {
      "bufferView": 4,
      "componentType": 5126,
      "count": 2146,
      "max": [
        -0.3672502636909485,
        1.4162784814834595,
        2.489103078842163
      ],
      "min": [
        -0.5504816174507141,
        1.295824646949768,
        -0.08519084006547928
      ],
      "type": "VEC3"
    },
    {
      "bufferView": 5,
      "componentType": 5126,
      "count": 2146,
      "type": "VEC3"
    },
    {
      "bufferView": 6,
      "componentType": 5126,
      "count": 2146,
      "type": "VEC2"
    },
    {
      "bufferView": 7,
      "componentType": 5123,
      "count": 4296,
      "type": "SCALAR"
    },
    {
      "bufferView": 8,
      "componentType": 5126,
      "count": 3143,
      "max": [
        -0.32621288299560547,
        3.1574056148529053,
        2.50429105758667
      ],
      "min": [
        -0.551005482673645,
        1.2577115297317505,
        -2.9079830646514893
      ],
      "type": "VEC3"
    },
    {
      "bufferView": 9,
      "componentType": 5126,
      "count": 3143,
      "type": "VEC3"
    },
    {
      "bufferView": 10,
      "componentType": 5126,
      "count": 3143,
      "type": "VEC2"
    },
    {
      "bufferView": 11,
      "componentType": 5123,
      "count": 7566,
      "type": "SCALAR"
    },
    {
      "bufferView": 12,
      "componentType": 5126,
      "count": 64,
      "max": [
        -0.5630552768707275,
        5.316197395324707,
        3.1988675594329834
      ],
      "min": [
        -0.5653504729270935,
        1.5467612743377686,
        -3.2169904708862305
      ],
      "type": "VEC3"
    },
    {
      "bufferView": 13,
      "componentType": 5126,
      "count": 64,
      "type": "VEC3"
    },
    {
      "bufferView": 14,
      "componentType": 5126,
      "count": 64,
      "type": "VEC2"
    },
    {
      "bufferView": 15,
      "componentType": 5123,
      "count": 186,
      "type": "SCALAR"
    },
    {
      "bufferView": 16,
      "componentType": 5126,
      "count": 568,
      "max": [
        -0.38084322214126587,
        5.406990051269531,
        3.3300507068634033
      ],
      "min": [
        -0.5653505325317383,
        0.8230388164520264,
        -3.3481719493865967
      ],
      "type": "VEC3"
    },
    {
      "bufferView": 17,
      "componentType": 5126,
      "count": 568,
      "type": "VEC3"
    },
    {
      "bufferView": 18,
      "componentType": 5126,
      "count": 568,
      "type": "VEC2"
    },
    {
      "bufferView": 19,
      "componentType": 5123,
      "count": 1512,
      "type": "SCALAR"
    },
    {
      "bufferView": 20,
      "componentType": 5126,
      "count": 81,
      "max": [
        -0.40921980142593384,
        1.4072771072387695,
        -2.7567028999328613
      ],
      "min": [
        -0.4185805916786194,
        1.2598145008087158,
        -2.9049415588378906
      ],
      "type": "VEC3"
    },
    {
      "bufferView": 21,
      "componentType": 5126,
      "count": 81,
      "type": "VEC3"
    },
    {
      "bufferView": 22,
      "componentType": 5126,
      "count": 81,
      "type": "VEC2"
    },
    {
      "bufferView": 23,
      "componentType": 5123,
      "count": 384,
      "type": "SCALAR"
    },
    {
      "bufferView": 24,
      "componentType": 5126,
      "count": 12,
      "max": [
        -0.3588857054710388,
        1.4472905397415161,
        1.9775480031967163
      ],
      "min": [
        -0.38164642453193665,
        1.3879047632217407,
        1.2921303510665894
      ],
      "type": "VEC3"
    },
    {
      "bufferView": 25,
      "componentType": 5126,
      "count": 12,
      "type": "VEC3"
    },
    {
      "bufferView": 26,
      "componentType": 5126,
      "count": 12,
      "type": "VEC2"
    },
    {
      "bufferView": 27,
      "componentType": 5123,
      "count": 18,
      "type": "SCALAR"
    },
    {
      "bufferView": 28,
      "componentType": 5126,
      "count": 135,
      "max": [
        -0.5630550384521484,
        5.406990051269531,
        3.3300492763519287
      ],
      "min": [
        -0.5653504729270935,
        1.4481228590011597,
        -3.3481719493865967
      ],
      "type": "VEC3"
    },
    {
      "bufferView": 29,
      "componentType": 5126,
      "count": 135,
      "type": "VEC3"
    },
    {
      "bufferView": 30,
      "componentType": 5126,
      "count": 135,
      "type": "VEC2"
    },
    {
      "bufferView": 31,
      "componentType": 5123,
      "count": 405,
      "type": "SCALAR"
    },
    {
      "bufferView": 32,
      "componentType": 5126,
      "count": 13898,
      "max": [
        -2.2680702209472656,
        0.06467121839523315,
        1.654112696647644
      ],
      "min": [
        -4.080343723297119,
        -0.08458136022090912,
        -2.7868456840515137
      ],
      "type": "VEC3"
    },
    {
      "bufferView": 33,
      "componentType": 5126,
      "count": 13898,
      "type": "VEC3"
    },
    {
      "bufferView": 34,
      "componentType": 5126,
      "count": 13898,
      "type": "VEC2"
    },
    {
      "bufferView": 35,
      "componentType": 5123,
      "count": 33966,
      "type": "SCALAR"
    },
    {
      "bufferView": 36,
      "componentType": 5126,
      "count": 294,
      "max": [
        -2.2997560501098633,
        -0.00874846801161766,
        -0.5549868941307068
      ],
      "min": [
        -2.323173999786377,
        -0.013325406238436699,
        -0.5935801267623901
      ],
      "type": "VEC3"
    },
    {
      "bufferView": 37,
      "componentType": 5126,
      "count": 294,
      "type": "VEC3"
    },
    {
      "bufferView": 38,
      "componentType": 5126,
      "count": 294,
      "type": "VEC2"
    },
    {
      "bufferView": 39,
      "componentType": 5123,
      "count": 432,
      "type": "SCALAR"
    },
    {
      "bufferView": 40,
      "componentType": 5126,
      "count": 246,
      "max": [
        -2.2801198959350586,
        0.004406522959470749,
        1.5997909307479858
      ],
      "min": [
        -4.026498794555664,
        -0.08928069472312927,
        -2.732522487640381
      ],
      "type": "VEC3"
    },
    {
      "bufferView": 41,
      "componentType": 5126,
      "count": 246,
      "type": "VEC3"
    },
    {
      "bufferView": 42,
      "componentType": 5126,
      "count": 246,
      "type": "VEC2"
    },
    {
      "bufferView": 43,
      "componentType": 5123,
      "count": 705,
      "type": "SCALAR"
    },
    {
      "bufferView": 44,
      "componentType": 5126,
      "count": 12,
      "max": [
        -2.3726325035095215,
        -0.07691185176372528,
        0.38810425996780396
      ],
      "min": [
        -3.122288227081299,
        -0.0774386078119278,
        -1.5206704139709473
      ],
      "type": "VEC3"
    },
    {
      "bufferView": 45,
      "componentType": 5126,
      "count": 12,
      "type": "VEC3"
    },
    {
      "bufferView": 46,
      "componentType": 5126,
      "count": 12,
      "type": "VEC2"
    },
    {
      "bufferView": 47,
      "componentType": 5123,
      "count": 30,
      "type": "SCALAR"
    },
    {
      "bufferView": 48,
      "componentType": 5126,
      "count": 3814,
      "max": [
        -2.324794292449951,
        0.08748509734869003,
        1.6026331186294556
      ],
      "min": [
        -4.045602321624756,
        -0.031793925911188126,
        -2.7433981895446777
      ],
      "type": "VEC3"
    },
    {
      "bufferView": 49,
      "componentType": 5126,
      "count": 3814,
      "type": "VEC3"
    },
    {
      "bufferView": 50,
      "componentType": 5126,
      "count": 3814,
      "type": "VEC2"
    },
    {
      "bufferView": 51,
      "componentType": 5123,
      "count": 10944,
      "type": "SCALAR"
    },
    {
      "bufferView": 52,
      "componentType": 5126,
      "count": 110,
      "max": [
        -2.280571699142456,
        0.00998629629611969,
        1.6033381223678589
      ],
      "min": [
        -4.030030250549316,
        -0.08928069472312927,
        -2.736069679260254
      ],
      "type": "VEC3"
    },
    {
      "bufferView": 53,
      "componentType": 5126,
      "count": 110,
      "type": "VEC3"
    },
    {
      "bufferView": 54,
      "componentType": 5126,
      "count": 110,
      "type": "VEC2"
    },
    {
      "bufferView": 55,
      "componentType": 5123,
      "count": 228,
      "type": "SCALAR"
    },
    {
      "bufferView": 56,
      "componentType": 5126,
      "count": 16,
      "max": [
        -2.2955894470214844,
        0.01940714567899704,
        1.561468243598938
      ],
      "min": [
        -2.2962827682495117,
        -0.0316040925681591,
        1.4389187097549438
      ],
      "type": "VEC3"
    },
    {
      "bufferView": 57,
      "componentType": 5126,
      "count": 16,
      "type": "VEC3"
    },
    {
      "bufferView": 58,
      "componentType": 5126,
      "count": 16,
      "type": "VEC2"
    },
    {
      "bufferView": 59,
      "componentType": 5123,
      "count": 42,
      "type": "SCALAR"
    },
    {
      "bufferView": 60,
      "componentType": 5126,
      "count": 64,
      "max": [
        -2.2855610847473145,
        -0.0021662265062332153,
        -0.5450111627578735
      ],
      "min": [
        -2.306832790374756,
        -0.009250450879335403,
        -0.6043160557746887
      ],
      "type": "VEC3"
    },
    {
      "bufferView": 61,
      "componentType": 5126,
      "count": 64,
      "type": "VEC3"
    },
    {
      "bufferView": 62,
      "componentType": 5126,
      "count": 64,
      "type": "VEC2"
    },
    {
      "bufferView": 63,
      "componentType": 5123,
      "count": 96,
      "type": "SCALAR"
    },
    {
      "bufferView": 64,
      "componentType": 5126,
      "count": 1774,
      "max": [
        -2.4435412883758545,
        0.08722148090600967,
        2.7631685733795166
      ],
      "min": [
        -3.759737968444824,
        -0.0866042748093605,
        2.185304641723633
      ],
      "type": "VEC3"
    },
    {
      "bufferView": 65,
      "componentType": 5126,
      "count": 1774,
      "type": "VEC3"
    },
    {
      "bufferView": 66,
      "componentType": 5126,
      "count": 1774,
      "type": "VEC2"
    },
    {
      "bufferView": 67,
      "componentType": 5123,
      "count": 2880,
      "type": "SCALAR"
    },
    {
      "bufferView": 68,
      "componentType": 5126,
      "count": 304,
      "max": [
        -3.4318902492523193,
        -0.03729025274515152,
        2.4920480251312256
      ],
      "min": [
        -3.436469316482544,
        -0.06070498004555702,
        2.4534547328948975
      ],
      "type": "VEC3"
    },
    {
      "bufferView": 69,
      "componentType": 5126,
      "count": 304,
      "type": "VEC3"
    },
    {
      "bufferView": 70,
      "componentType": 5126,
      "count": 304,
      "type": "VEC2"
    },
    {
      "bufferView": 71,
      "componentType": 5123,
      "count": 432,
      "type": "SCALAR"
    },
    {
      "bufferView": 72,
      "componentType": 5126,
      "count": 448,
      "max": [
        -2.4435412883758545,
        0.05378077179193497,
        2.7631685733795166
      ],
      "min": [
        -3.759737968444824,
        -0.08718600124120712,
        2.185304641723633
      ],
      "type": "VEC3"
    },
    {
      "bufferView": 73,
      "componentType": 5126,
      "count": 448,
      "type": "VEC3"
    },
    {
      "bufferView": 74,
      "componentType": 5126,
      "count": 448,
      "type": "VEC2"
    },
    {
      "bufferView": 75,
      "componentType": 5123,
      "count": 1209,
      "type": "SCALAR"
    },
    {
      "bufferView": 76,
      "componentType": 5126,
      "count": 4,
      "max": [
        -3.3745851516723633,
        -0.08033895492553711,
        2.5357742309570312
      ],
      "min": [
        -3.407604455947876,
        -0.0803389847278595,
        2.4097893238067627
      ],
      "type": "VEC3"
    },
    {
      "bufferView": 77,
      "componentType": 5126,
      "count": 4,
      "type": "VEC3"
    },
    {
      "bufferView": 78,
      "componentType": 5126,
      "count": 4,
      "type": "VEC2"
    },
    {
      "bufferView": 79,
      "componentType": 5123,
      "count": 6,
      "type": "SCALAR"
    },
    {
      "bufferView": 80,
      "componentType": 5126,
      "count": 16,
      "max": [
        -2.7562830448150635,
        -0.07312681525945663,
        2.5633838176727295
      ],
      "min": [
        -2.814863681793213,
        -0.07344113290309906,
        2.538999319076538
      ],
      "type": "VEC3"
    },
    {
      "bufferView": 81,
      "componentType": 5126,
      "count": 16,
      "type": "VEC3"
    },
    {
      "bufferView": 82,
      "componentType": 5126,
      "count": 16,
      "type": "VEC2"
    },
    {
      "bufferView": 83,
      "componentType": 5126,
      "count": 56,
      "max": [
        -3.425320863723755,
        -0.053635865449905396,
        2.502023696899414
      ],
      "min": [
        -3.4323902130126953,
        -0.07490280270576477,
        2.442718744277954
      ],
      "type": "VEC3"
    },
    {
      "bufferView": 84,
      "componentType": 5126,
      "count": 56,
      "type": "VEC3"
    },
    {
      "bufferView": 85,
      "componentType": 5126,
      "count": 56,
      "type": "VEC2"
    },
    {
      "bufferView": 86,
      "componentType": 5123,
      "count": 96,
      "type": "SCALAR"
    },
    {
      "bufferView": 87,
      "componentType": 5126,
      "count": 42,
      "max": [
        -2.7470672130584717,
        -0.07486289739608765,
        2.5069046020507812
      ],
      "min": [
        -2.81339693069458,
        -0.0803389847278595,
        2.4415688514709473
      ],
      "type": "VEC3"
    },
    {
      "bufferView": 88,
      "componentType": 5126,
      "count": 42,
      "type": "VEC3"
    },
    {
      "bufferView": 89,
      "componentType": 5126,
      "count": 42,
      "type": "VEC2"
    },
    {
      "bufferView": 90,
      "componentType": 5123,
      "count": 180,
      "type": "SCALAR"
    },
    {
      "bufferView": 91,
      "componentType": 5126,
      "count": 102,
      "max": [
        -2.434483528137207,
        0.0804496482014656,
        2.7631685733795166
      ],
      "min": [
        -3.7689244747161865,
        -0.07063606381416321,
        2.185304641723633
      ],
      "type": "VEC3"
    },
    {
      "bufferView": 92,
      "componentType": 5126,
      "count": 102,
      "type": "VEC3"
    },
    {
      "bufferView": 93,
      "componentType": 5126,
      "count": 102,
      "type": "VEC2"
    },
    {
      "bufferView": 94,
      "componentType": 5123,
      "count": 306,
      "type": "SCALAR"
    },
    {
      "bufferView": 95,
      "componentType": 5126,
      "count": 82,
      "max": [
        -2.434483528137207,
        0.11389032751321793,
        2.7631685733795166
      ],
      "min": [
        -3.7689244747161865,
        -0.04354136064648628,
        2.185304641723633
      ],
      "type": "VEC3"
    },
    {
      "bufferView": 96,
      "componentType": 5126,
      "count": 82,
      "type": "VEC3"
    },
    {
      "bufferView": 97,
      "componentType": 5126,
      "count": 82,
      "type": "VEC2"
    },
    {
      "bufferView": 98,
      "componentType": 5123,
      "count": 324,
      "type": "SCALAR"
    },
    {
      "bufferView": 99,
      "componentType": 5126,
      "count": 332,
      "max": [
        0.5417091846466064,
        3.1550517082214355,
        0.9047756791114807
      ],
      "min": [
        -1.7248684167861938,
        -0.08906630426645279,
        -0.9047759175300598
      ],
      "type": "VEC3"
    },
    {
      "bufferView": 100,
      "componentType": 5126,
      "count": 332,
      "type": "VEC3"
    },
    {
      "bufferView": 101,
      "componentType": 5126,
      "count": 332,
      "type": "VEC2"
    },
    {
      "bufferView": 102,
      "componentType": 5123,
      "count": 1008,
      "type": "SCALAR"
    }
  ],
  "bufferViews": [
    {
      "buffer": 0,
      "byteLength": 11700,
      "byteOffset": 0,
      "target": 34962
    },
    {
      "buffer": 0,
      "byteLength": 11700,
      "byteOffset": 11700,
      "target": 34962
    },
    {
      "buffer": 0,
      "byteLength": 7800,
      "byteOffset": 23400,
      "target": 34962
    },
    {
      "buffer": 0,
      "byteLength": 5502,
      "byteOffset": 31200,
      "target": 34963
    },
    {
      "buffer": 0,
      "byteLength": 25752,
      "byteOffset": 36704,
      "target": 34962
    },
    {
      "buffer": 0,
      "byteLength": 25752,
      "byteOffset": 62456,
      "target": 34962
    },
    {
      "buffer": 0,
      "byteLength": 17168,
      "byteOffset": 88208,
      "target": 34962
    },
    {
      "buffer": 0,
      "byteLength": 8592,
      "byteOffset": 105376,
      "target": 34963
    },
    {
      "buffer": 0,
      "byteLength": 37716,
      "byteOffset": 113968,
      "target": 34962
    },
    {
      "buffer": 0,
      "byteLength": 37716,
      "byteOffset": 151684,
      "target": 34962
    },
    {
      "buffer": 0,
      "byteLength": 25144,
      "byteOffset": 189400,
      "target": 34962
    },
    {
      "buffer": 0,
      "byteLength": 15132,
      "byteOffset": 214544,
      "target": 34963
    },
    {
      "buffer": 0,
      "byteLength": 768,
      "byteOffset": 229676,
      "target": 34962
    },
    {
      "buffer": 0,
      "byteLength": 768,
      "byteOffset": 230444,
      "target": 34962
    },
    {
      "buffer": 0,
      "byteLength": 512,
      "byteOffset": 231212,
      "target": 34962
    },
    {
      "buffer": 0,
      "byteLength": 372,
      "byteOffset": 231724,
      "target": 34963
    },
    {
      "buffer": 0,
      "byteLength": 6816,
      "byteOffset": 232096,
      "target": 34962
    },
    {
      "buffer": 0,
      "byteLength": 6816,
      "byteOffset": 238912,
      "target": 34962
    },
    {
      "buffer": 0,
      "byteLength": 4544,
      "byteOffset": 245728,
      "target": 34962
    },
    {
      "buffer": 0,
      "byteLength": 3024,
      "byteOffset": 250272,
      "target": 34963
    },
    {
      "buffer": 0,
      "byteLength": 972,
      "byteOffset": 253296,
      "target": 34962
    },
    {
      "buffer": 0,
      "byteLength": 972,
      "byteOffset": 254268,
      "target": 34962
    },
    {
      "buffer": 0,
      "byteLength": 648,
      "byteOffset": 255240,
      "target": 34962
    },
    {
      "buffer": 0,
      "byteLength": 768,
      "byteOffset": 255888,
      "target": 34963
    },
    {
      "buffer": 0,
      "byteLength": 144,
      "byteOffset": 256656,
      "target": 34962
    },
    {
      "buffer": 0,
      "byteLength": 144,
      "byteOffset": 256800,
      "target": 34962
    },
    {
      "buffer": 0,
      "byteLength": 96,
      "byteOffset": 256944,
      "target": 34962
    },
    {
      "buffer": 0,
      "byteLength": 36,
      "byteOffset": 257040,
      "target": 34963
    },
    {
      "buffer": 0,
      "byteLength": 1620,
      "byteOffset": 257076,
      "target": 34962
    },
    {
      "buffer": 0,
      "byteLength": 1620,
      "byteOffset": 258696,
      "target": 34962
    },
    {
      "buffer": 0,
      "byteLength": 1080,
      "byteOffset": 260316,
      "target": 34962
    },
    {
      "buffer": 0,
      "byteLength": 810,
      "byteOffset": 261396,
      "target": 34963
    },
    {
      "buffer": 0,
      "byteLength": 166776,
      "byteOffset": 262208,
      "target": 34962
    },
    {
      "buffer": 0,
      "byteLength": 166776,
      "byteOffset": 428984,
      "target": 34962
    },
    {
      "buffer": 0,
      "byteLength": 111184,
      "byteOffset": 595760,
      "target": 34962
    },
    {
      "buffer": 0,
      "byteLength": 67932,
      "byteOffset": 706944,
      "target": 34963
    },
    {
      "buffer": 0,
      "byteLength": 3528,
      "byteOffset": 774876,
      "target": 34962
    },
    {
      "buffer": 0,
      "byteLength": 3528,
      "byteOffset": 778404,
      "target": 34962
    },
    {
      "buffer": 0,
      "byteLength": 2352,
      "byteOffset": 781932,
      "target": 34962
    },
    {
      "buffer": 0,
      "byteLength": 864,
      "byteOffset": 784284,
      "target": 34963
    },
    {
      "buffer": 0,
      "byteLength": 2952,
      "byteOffset": 785148,
      "target": 34962
    },
    {
      "buffer": 0,
      "byteLength": 2952,
      "byteOffset": 788100,
      "target": 34962
    },
    {
      "buffer": 0,
      "byteLength": 1968,
      "byteOffset": 791052,
      "target": 34962
    },
    {
      "buffer": 0,
      "byteLength": 1410,
      "byteOffset": 793020,
      "target": 34963
    },
    {
      "buffer": 0,
      "byteLength": 144,
      "byteOffset": 794432,
      "target": 34962
    },
    {
      "buffer": 0,
      "byteLength": 144,
      "byteOffset": 794576,
      "target": 34962
    },
    {
      "buffer": 0,
      "byteLength": 96,
      "byteOffset": 794720,
      "target": 34962
    },
    {
      "buffer": 0,
      "byteLength": 60,
      "byteOffset": 794816,
      "target": 34963
    },
    {
      "buffer": 0,
      "byteLength": 45768,
      "byteOffset": 794876,
      "target": 34962
    },
    {
      "buffer": 0,
      "byteLength": 45768,
      "byteOffset": 840644,
      "target": 34962
    },
    {
      "buffer": 0,
      "byteLength": 30512,
      "byteOffset": 886412,
      "target": 34962
    },
    {
      "buffer": 0,
      "byteLength": 21888,
      "byteOffset": 916924,
      "target": 34963
    },
    {
      "buffer": 0,
      "byteLength": 1320,
      "byteOffset": 938812,
      "target": 34962
    },
    {
      "buffer": 0,
      "byteLength": 1320,
      "byteOffset": 940132,
      "target": 34962
    },
    {
      "buffer": 0,
      "byteLength": 880,
      "byteOffset": 941452,
      "target": 34962
    },
    {
      "buffer": 0,
      "byteLength": 456,
      "byteOffset": 942332,
      "target": 34963
    },
    {
      "buffer": 0,
      "byteLength": 192,
      "byteOffset": 942788,
      "target": 34962
    },
    {
      "buffer": 0,
      "byteLength": 192,
      "byteOffset": 942980,
      "target": 34962
    },
    {
      "buffer": 0,
      "byteLength": 128,
      "byteOffset": 943172,
      "target": 34962
    },
    {
      "buffer": 0,
      "byteLength": 84,
      "byteOffset": 943300,
      "target": 34963
    },
    {
      "buffer": 0,
      "byteLength": 768,
      "byteOffset": 943384,
      "target": 34962
    },
    {
      "buffer": 0,
      "byteLength": 768,
      "byteOffset": 944152,
      "target": 34962
    },
    {
      "buffer": 0,
      "byteLength": 512,
      "byteOffset": 944920,
      "target": 34962
    },
    {
      "buffer": 0,
      "byteLength": 192,
      "byteOffset": 945432,
      "target": 34963
    },
    {
      "buffer": 0,
      "byteLength": 21288,
      "byteOffset": 945624,
      "target": 34962
    },
    {
      "buffer": 0,
      "byteLength": 21288,
      "byteOffset": 966912,
      "target": 34962
    },
    {
      "buffer": 0,
      "byteLength": 14192,
      "byteOffset": 988200,
      "target": 34962
    },
    {
      "buffer": 0,
      "byteLength": 5760,
      "byteOffset": 1002392,
      "target": 34963
    },
    {
      "buffer": 0,
      "byteLength": 3648,
      "byteOffset": 1008152,
      "target": 34962
    },
    {
      "buffer": 0,
      "byteLength": 3648,
      "byteOffset": 1011800,
      "target": 34962
    },
    {
      "buffer": 0,
      "byteLength": 2432,
      "byteOffset": 1015448,
      "target": 34962
    },
    {
      "buffer": 0,
      "byteLength": 864,
      "byteOffset": 1017880,
      "target": 34963
    },
    {
      "buffer": 0,
      "byteLength": 5376,
      "byteOffset": 1018744,
      "target": 34962
    },
    {
      "buffer": 0,
      "byteLength": 5376,
      "byteOffset": 1024120,
      "target": 34962
    },
    {
      "buffer": 0,
      "byteLength": 3584,
      "byteOffset": 1029496,
      "target": 34962
    },
    {
      "buffer": 0,
      "byteLength": 2418,
      "byteOffset": 1033080,
      "target": 34963
    },
    {
      "buffer": 0,
      "byteLength": 48,
      "byteOffset": 1035500,
      "target": 34962
    },
    {
      "buffer": 0,
      "byteLength": 48,
      "byteOffset": 1035548,
      "target": 34962
    },
    {
      "buffer": 0,
      "byteLength": 32,
      "byteOffset": 1035596,
      "target": 34962
    },
    {
      "buffer": 0,
      "byteLength": 12,
      "byteOffset": 1035628,
      "target": 34963
    },
    {
      "buffer": 0,
      "byteLength": 192,
      "byteOffset": 1035640,
      "target": 34962
    },
    {
      "buffer": 0,
      "byteLength": 192,
      "byteOffset": 1035832,
      "target": 34962
    },
    {
      "buffer": 0,
      "byteLength": 128,
      "byteOffset": 1036024,
      "target": 34962
    },
    {
      "buffer": 0,
      "byteLength": 672,
      "byteOffset": 1036152,
      "target": 34962
    },
    {
      "buffer": 0,
      "byteLength": 672,
      "byteOffset": 1036824,
      "target": 34962
    },
    {
      "buffer": 0,
      "byteLength": 448,
      "byteOffset": 1037496,
      "target": 34962
    },
    {
      "buffer": 0,
      "byteLength": 192,
      "byteOffset": 1037944,
      "target": 34963
    },
    {
      "buffer": 0,
      "byteLength": 504,
      "byteOffset": 1038136,
      "target": 34962
    },
    {
      "buffer": 0,
      "byteLength": 504,
      "byteOffset": 1038640,
      "target": 34962
    },
    {
      "buffer": 0,
      "byteLength": 336,
      "byteOffset": 1039144,
      "target": 34962
    },
    {
      "buffer": 0,
      "byteLength": 360,
      "byteOffset": 1039480,
      "target": 34963
    },
    {
      "buffer": 0,
      "byteLength": 1224,
      "byteOffset": 1039840,
      "target": 34962
    },
    {
      "buffer": 0,
      "byteLength": 1224,
      "byteOffset": 1041064,
      "target": 34962
    },
    {
      "buffer": 0,
      "byteLength": 816,
      "byteOffset": 1042288,
      "target": 34962
    },
    {
      "buffer": 0,
      "byteLength": 612,
      "byteOffset": 1043104,
      "target": 34963
    },
    {
      "buffer": 0,
      "byteLength": 984,
      "byteOffset": 1043716,
      "target": 34962
    },
    {
      "buffer": 0,
      "byteLength": 984,
      "byteOffset": 1044700,
      "target": 34962
    },
    {
      "buffer": 0,
      "byteLength": 656,
      "byteOffset": 1045684,
      "target": 34962
    },
    {
      "buffer": 0,
      "byteLength": 648,
      "byteOffset": 1046340,
      "target": 34963
    },
    {
      "buffer": 0,
      "byteLength": 3984,
      "byteOffset": 1046988,
      "target": 34962
    },
    {
      "buffer": 0,
      "byteLength": 3984,
      "byteOffset": 1050972,
      "target": 34962
    },
    {
      "buffer": 0,
      "byteLength": 2656,
      "byteOffset": 1054956,
      "target": 34962
    },
    {
      "buffer": 0,
      "byteLength": 2016,
      "byteOffset": 1057612,
      "target": 34963
    }
  ],
  "samplers": [
    {
      "magFilter": 9729,
      "minFilter": 9987
    }
  ],
  "buffers": [
    {
      "byteLength": 1059628,
      "uri": "PC.bin"
    }
  ],
  "extensionsUsed": [
    "KHR_materials_emissive_strength"
  ]
}