{
	"asset":{
		"generator":"Khronos glTF Blender I/O v5.2.40",
		"version":"2.0"
	},
	"scene":0,
	"scenes":[
		{
			"name":"Scene",
			"nodes":[
				7
			]
		}
	],
	"nodes":[
		{
			"mesh":0,
			"name":"leaves_geo"
		},
		{
			"mesh":1,
			"name":"stems_geo"
		},
		{
			"children":[
				0,
				1
			],
			"name":"plant_grp"
		},
		{
			"mesh":2,
			"name":"dirt_geo"
		},
		{
			"mesh":3,
			"name":"potBase_geo"
		},
		{
			"mesh":4,
			"name":"potMetal_geo"
		},
		{
			"children":[
				3,
				4,
				5
			],
			"name":"pot_grp"
		},
		{
			"children":[
				2,
				6
			],
			"name":"pottedPlant_04_root"
		}
	],
	"materials":[
		{
			"doubleSided":true,
			"name":"plant2-leafTex",
			"pbrMetallicRoughness":{
				"baseColorTexture":{
					"index":0
				},
				"metallicFactor":0,
				"roughnessFactor":0.5
			}
		},
		{
			"doubleSided":true,
			"name":"plant2-stemTex",
			"pbrMetallicRoughness":{
				"baseColorTexture":{
					"index":1
				},
				"metallicFactor":0,
				"roughnessFactor":0.5
			}
		},
		{
			"doubleSided":true,
			"name":"plant2-earthTex",
			"pbrMetallicRoughness":{
				"baseColorTexture":{
					"index":2
				},
				"metallicFactor":0
			}
		},
		{
			"doubleSided":true,
			"name":"plant2-potTex",
			"pbrMetallicRoughness":{
				"baseColorTexture":{
					"index":3
				},
				"metallicFactor":0,
				"roughnessFactor":0.5
			}
		}
	],
	"meshes":[
		{
			"name":"Mesh.005",
			"primitives":[
				{
					"attributes":{
						"POSITION":0,
						"NORMAL":1,
						"TEXCOORD_0":2
					},
					"indices":3,
					"material":0
				}
			]
		},
		{
			"name":"Mesh.004",
			"primitives":[
				{
					"attributes":{
						"POSITION":4,
						"NORMAL":5,
						"TEXCOORD_0":6
					},
					"indices":7,
					"material":1
				}
			]
		},
		{
			"name":"Mesh.003",
			"primitives":[
				{
					"attributes":{
						"POSITION":8,
						"NORMAL":9,
						"TEXCOORD_0":10
					},
					"indices":11,
					"material":2
				}
			]
		},
		{
			"name":"Mesh.001",
			"primitives":[
				{
					"attributes":{
						"POSITION":12,
						"NORMAL":13,
						"TEXCOORD_0":14
					},
					"indices":15,
					"material":3
				}
			]
		},
		{
			"name":"Mesh.006",
			"primitives":[
				{
					"attributes":{
						"POSITION":16,
						"NORMAL":17,
						"TEXCOORD_0":18
					},
					"indices":19,
					"material":3
				}
			]
		}
	],
	"textures":[
		{
			"sampler":0,
			"source":0
		},
		{
			"sampler":0,
			"source":1
		},
		{
			"sampler":0,
			"source":2
		},
		{
			"sampler":0,
			"source":3
		}
	],
	"images":[
		{
			"mimeType":"image/png",
			"name":"stem_diffuse",
			"uri":"stem_diffuse.png"
		},
		{
			"mimeType":"image/jpeg",
			"name":"everytexture.com-stock-nature-00007",
			"uri":"everytexture.com-stock-nature-00007.jpg"
		},
		{
			"mimeType":"image/jpeg",
			"name":"plant-earthTex",
			"uri":"plant-earthTex.jpg"
		},
		{
			"mimeType":"image/jpeg",
			"name":"plant-concreteTex",
			"uri":"plant-concreteTex.jpg"
		}
	],
	"accessors":[
		{
			"bufferView":0,
			"componentType":5126,
			"count":247,
			"max":[
				0.3336089253425598,
				1.4659284353256226,
				0.4333992302417755
			],
			"min":[
				-0.4381004571914673,
				0.6433353424072266,
				-0.2554262578487396
			],
			"type":"VEC3"
		},
		{
			"bufferView":1,
			"componentType":5126,
			"count":247,
			"type":"VEC3"
		},
		{
			"bufferView":2,
			"componentType":5126,
			"count":247,
			"type":"VEC2"
		},
		{
			"bufferView":3,
			"componentType":5123,
			"count":792,
			"type":"SCALAR"
		},
		{
			"bufferView":4,
			"componentType":5126,
			"count":1050,
			"max":[
				0.2389567643404007,
				1.3645092248916626,
				0.3205471932888031
			],
			"min":[
				-0.3526986241340637,
				0.5182203650474548,
				-0.21404030919075012
			],
			"type":"VEC3"
		},
		{
			"bufferView":5,
			"componentType":5126,
			"count":1050,
			"type":"VEC3"
		},
		{
			"bufferView":6,
			"componentType":5126,
			"count":1050,
			"type":"VEC2"
		},
		{
			"bufferView":7,
			"componentType":5123,
			"count":3600,
			"type":"SCALAR"
		},
		{
			"bufferView":8,
			"componentType":5126,
			"count":49,
			"max":[
				0.10599389672279358,
				0.5654369592666626,
				0.10599397867918015
			],
			"min":[
				-0.10599389672279358,
				0.5485830307006836,
				-0.10599381476640701
			],
			"type":"VEC3"
		},
		{
			"bufferView":9,
			"componentType":5126,
			"count":49,
			"type":"VEC3"
		},
		{
			"bufferView":10,
			"componentType":5126,
			"count":49,
			"type":"VEC2"
		},
		{
			"bufferView":11,
			"componentType":5123,
			"count":216,
			"type":"SCALAR"
		},
		{
			"bufferView":12,
			"componentType":5126,
			"count":499,
			"max":[
				0.11397863924503326,
				0.5728269219398499,
				0.11397875845432281
			],
			"min":[
				-0.11397863924503326,
				0.08983050286769867,
				-0.11397852003574371
			],
			"type":"VEC3"
		},
		{
			"bufferView":13,
			"componentType":5126,
			"count":499,
			"type":"VEC3"
		},
		{
			"bufferView":14,
			"componentType":5126,
			"count":499,
			"type":"VEC2"
		},
		{
			"bufferView":15,
			"componentType":5123,
			"count":1728,
			"type":"SCALAR"
		},
		{
			"bufferView":16,
			"componentType":5126,
			"count":2447,
			"max":[
				0.10657946020364761,
				0.4030507802963257,
				0.10536254942417145
			],
			"min":[
				-0.10536256432533264,
				0.0006049126386642456,
				-0.11236618459224701
			],
			"type":"VEC3"
		},
		{
			"bufferView":17,
			"componentType":5126,
			"count":2447,
			"type":"VEC3"
		},
		{
			"bufferView":18,
			"componentType":5126,
			"count":2447,
			"type":"VEC2"
		},
		{
			"bufferView":19,
			"componentType":5123,
			"count":5724,
			"type":"SCALAR"
		}
	],
	"bufferViews":[
		{
			"buffer":0,
			"byteLength":2964,
			"byteOffset":0,
			"target":34962
		},
		{
			"buffer":0,
			"byteLength":2964,
			"byteOffset":2964,
			"target":34962
		},
		{
			"buffer":0,
			"byteLength":1976,
			"byteOffset":5928,
			"target":34962
		},
		{
			"buffer":0,
			"byteLength":1584,
			"byteOffset":7904,
			"target":34963
		},
		{
			"buffer":0,
			"byteLength":12600,
			"byteOffset":9488,
			"target":34962
		},
		{
			"buffer":0,
			"byteLength":12600,
			"byteOffset":22088,
			"target":34962
		},
		{
			"buffer":0,
			"byteLength":8400,
			"byteOffset":34688,
			"target":34962
		},
		{
			"buffer":0,
			"byteLength":7200,
			"byteOffset":43088,
			"target":34963
		},
		{
			"buffer":0,
			"byteLength":588,
			"byteOffset":50288,
			"target":34962
		},
		{
			"buffer":0,
			"byteLength":588,
			"byteOffset":50876,
			"target":34962
		},
		{
			"buffer":0,
			"byteLength":392,
			"byteOffset":51464,
			"target":34962
		},
		{
			"buffer":0,
			"byteLength":432,
			"byteOffset":51856,
			"target":34963
		},
		{
			"buffer":0,
			"byteLength":5988,
			"byteOffset":52288,
			"target":34962
		},
		{
			"buffer":0,
			"byteLength":5988,
			"byteOffset":58276,
			"target":34962
		},
		{
			"buffer":0,
			"byteLength":3992,
			"byteOffset":64264,
			"target":34962
		},
		{
			"buffer":0,
			"byteLength":3456,
			"byteOffset":68256,
			"target":34963
		},
		{
			"buffer":0,
			"byteLength":29364,
			"byteOffset":71712,
			"target":34962
		},
		{
			"buffer":0,
			"byteLength":29364,
			"byteOffset":101076,
			"target":34962
		},
		{
			"buffer":0,
			"byteLength":19576,
			"byteOffset":130440,
			"target":34962
		},
		{
			"buffer":0,
			"byteLength":11448,
			"byteOffset":150016,
			"target":34963
		}
	],
	"samplers":[
		{
			"magFilter":9729,
			"minFilter":9987
		}
	],
	"buffers":[
		{
			"byteLength":161464,
			"uri":"plant2.bin"
		}
	]
}
