{
	"asset":{
		"generator":"Khronos glTF Blender I/O v5.2.40",
		"version":"2.0"
	},
	"extensionsUsed":[
		"KHR_materials_specular"
	],
	"scene":0,
	"scenes":[
		{
			"name":"Scene",
			"nodes":[
				0,
				1,
				2,
				3,
				4,
				5,
				6
			]
		}
	],
	"nodes":[
		{
			"mesh":0,
			"name":"000_Pfl011"
		},
		{
			"mesh":1,
			"name":"Cocnret011"
		},
		{
			"mesh":2,
			"name":"Earth -011"
		},
		{
			"mesh":3,
			"name":"Plant l011"
		},
		{
			"mesh":4,
			"name":"Plastic011"
		},
		{
			"name":"Sun.target"
		},
		{
			"mesh":5,
			"name":"Water -011"
		}
	],
	"materials":[
		{
			"doubleSided":true,
			"extensions":{
				"KHR_materials_specular":{
					"specularFactor":0.23999977111816406
				}
			},
			"name":"000_Pflanze Blat",
			"pbrMetallicRoughness":{
				"baseColorTexture":{
					"index":0
				},
				"metallicFactor":0,
				"roughnessFactor":0.5527864098548889
			}
		},
		{
			"doubleSided":true,
			"extensions":{
				"KHR_materials_specular":{
					"specularFactor":0
				}
			},
			"name":"Cocnrete - AW 19",
			"pbrMetallicRoughness":{
				"baseColorTexture":{
					"index":1
				},
				"metallicFactor":0,
				"roughnessFactor":0.5527864098548889
			}
		},
		{
			"doubleSided":true,
			"extensions":{
				"KHR_materials_specular":{
					"specularFactor":0
				}
			},
			"name":"Earth - Dark Bro",
			"pbrMetallicRoughness":{
				"baseColorTexture":{
					"index":2
				},
				"metallicFactor":0,
				"roughnessFactor":0.5527864098548889
			}
		},
		{
			"doubleSided":true,
			"extensions":{
				"KHR_materials_specular":{
					"specularColorFactor":[
						2.0,
						2.0,
						2.0
					]
				}
			},
			"name":"Plant leaves tex",
			"pbrMetallicRoughness":{
				"baseColorTexture":{
					"index":3
				},
				"metallicFactor":0,
				"roughnessFactor":0.5527864098548889
			}
		},
		{
			"doubleSided":true,
			"extensions":{
				"KHR_materials_specular":{
					"specularFactor":0.32000017166137695
				}
			},
			"name":"Plastic - Lamina",
			"pbrMetallicRoughness":{
				"baseColorFactor":[
					0.5568627715110779,
					0.47843137383461,
					0.4000000059604645,
					1
				],
				"metallicFactor":0,
				"roughnessFactor":0.5527864098548889
			}
		},
		{
			"doubleSided":true,
			"extensions":{
				"KHR_materials_specular":{
					"specularFactor":0
				}
			},
			"name":"Water - Pond",
			"pbrMetallicRoughness":{
				"metallicFactor":0,
				"roughnessFactor":0.5527864098548889
			}
		}
	],
	"meshes":[
		{
			"name":"Mesh.001",
			"primitives":[
				{
					"attributes":{
						"POSITION":0,
						"NORMAL":1,
						"TEXCOORD_0":2
					},
					"indices":3,
					"material":0
				}
			]
		},
		{
			"name":"Mesh.005",
			"primitives":[
				{
					"attributes":{
						"POSITION":4,
						"NORMAL":5,
						"TEXCOORD_0":6
					},
					"indices":7,
					"material":1
				}
			]
		},
		{
			"name":"Mesh.004",
			"primitives":[
				{
					"attributes":{
						"POSITION":8,
						"NORMAL":9,
						"TEXCOORD_0":10
					},
					"indices":11,
					"material":2
				}
			]
		},
		{
			"name":"Mesh",
			"primitives":[
				{
					"attributes":{
						"POSITION":12,
						"NORMAL":13,
						"TEXCOORD_0":14
					},
					"indices":15,
					"material":3
				}
			]
		},
		{
			"name":"Mesh.003",
			"primitives":[
				{
					"attributes":{
						"POSITION":16,
						"NORMAL":17,
						"TEXCOORD_0":18
					},
					"indices":19,
					"material":4
				}
			]
		},
		{
			"name":"Mesh.002",
			"primitives":[
				{
					"attributes":{
						"POSITION":20,
						"NORMAL":21,
						"TEXCOORD_0":22
					},
					"indices":23,
					"material":5
				}
			]
		}
	],
	"textures":[
		{
			"sampler":0,
			"source":0
		},
		{
			"sampler":0,
			"source":1
		},
		{
			"sampler":0,
			"source":2
		},
		{
			"sampler":0,
			"source":3
		}
	],
	"images":[
		{
			"mimeType":"image/jpeg",
			"name":"plant-stemTex",
			"uri":"plant-stemTex.jpg"
		},
		{
			"mimeType":"image/jpeg",
			"name":"plant-concreteTex",
			"uri":"plant-concreteTex.jpg"
		},
		{
			"mimeType":"image/jpeg",
			"name":"plant-earthTex",
			"uri":"plant-earthTex.jpg"
		},
		{
			"mimeType":"image/jpeg",
			"name":"plant-leavesTex",
			"uri":"plant-leavesTex.jpg"
		}
	],
	"accessors":[
		{
			"bufferView":0,
			"componentType":5126,
			"count":8210,
			"max":[
				0.3435361683368683,
				1.0099849700927734,
				0.3819999396800995
			],
			"min":[
				-0.3410134017467499,
				0.07540744543075562,
				-0.38246822357177734
			],
			"type":"VEC3"
		},
		{
			"bufferView":1,
			"componentType":5126,
			"count":8210,
			"type":"VEC3"
		},
		{
			"bufferView":2,
			"componentType":5126,
			"count":8210,
			"type":"VEC2"
		},
		{
			"bufferView":3,
			"componentType":5123,
			"count":47964,
			"type":"SCALAR"
		},
		{
			"bufferView":4,
			"componentType":5126,
			"count":900,
			"max":[
				0.1806683987379074,
				0.4006060063838959,
				0.18003223836421967
			],
			"min":[
				-0.20196789503097534,
				0,
				-0.20260405540466309
			],
			"type":"VEC3"
		},
		{
			"bufferView":5,
			"componentType":5126,
			"count":900,
			"type":"VEC3"
		},
		{
			"bufferView":6,
			"componentType":5126,
			"count":900,
			"type":"VEC2"
		},
		{
			"bufferView":7,
			"componentType":5123,
			"count":5388,
			"type":"SCALAR"
		},
		{
			"bufferView":8,
			"componentType":5126,
			"count":72,
			"max":[
				0.13862396776676178,
				0.3421165645122528,
				0.13821253180503845
			],
			"min":[
				-0.15929947793483734,
				0.016999974846839905,
				-0.15971091389656067
			],
			"type":"VEC3"
		},
		{
			"bufferView":9,
			"componentType":5126,
			"count":72,
			"type":"VEC3"
		},
		{
			"bufferView":10,
			"componentType":5126,
			"count":72,
			"type":"VEC2"
		},
		{
			"bufferView":11,
			"componentType":5123,
			"count":420,
			"type":"SCALAR"
		},
		{
			"bufferView":12,
			"componentType":5126,
			"count":15527,
			"max":[
				0.44269469380378723,
				1.0034245252609253,
				0.5406073927879333
			],
			"min":[
				-0.44269469380378723,
				0.37155985832214355,
				-0.5406074523925781
			],
			"type":"VEC3"
		},
		{
			"bufferView":13,
			"componentType":5126,
			"count":15527,
			"type":"VEC3"
		},
		{
			"bufferView":14,
			"componentType":5126,
			"count":15527,
			"type":"VEC2"
		},
		{
			"bufferView":15,
			"componentType":5123,
			"count":62832,
			"type":"SCALAR"
		},
		{
			"bufferView":16,
			"componentType":5126,
			"count":144,
			"max":[
				0.14741551876068115,
				0.3723793029785156,
				0.14700408279895782
			],
			"min":[
				-0.1680910438299179,
				0.011999979615211487,
				-0.16850249469280243
			],
			"type":"VEC3"
		},
		{
			"bufferView":17,
			"componentType":5126,
			"count":144,
			"type":"VEC3"
		},
		{
			"bufferView":18,
			"componentType":5126,
			"count":144,
			"type":"VEC2"
		},
		{
			"bufferView":19,
			"componentType":5123,
			"count":852,
			"type":"SCALAR"
		},
		{
			"bufferView":20,
			"componentType":5126,
			"count":32,
			"max":[
				0.15146689116954803,
				0.3848297595977783,
				0.23692204058170319
			],
			"min":[
				-0.14536766707897186,
				0.3366221785545349,
				-0.2386353760957718
			],
			"type":"VEC3"
		},
		{
			"bufferView":21,
			"componentType":5126,
			"count":32,
			"type":"VEC3"
		},
		{
			"bufferView":22,
			"componentType":5126,
			"count":32,
			"type":"VEC2"
		},
		{
			"bufferView":23,
			"componentType":5123,
			"count":102,
			"type":"SCALAR"
		}
	],
	"bufferViews":[
		{
			"buffer":0,
			"byteLength":98520,
			"byteOffset":0,
			"target":34962
		},
		{
			"buffer":0,
			"byteLength":98520,
			"byteOffset":98520,
			"target":34962
		},
		{
			"buffer":0,
			"byteLength":65680,
			"byteOffset":197040,
			"target":34962
		},
		{
			"buffer":0,
			"byteLength":95928,
			"byteOffset":262720,
			"target":34963
		},
		{
			"buffer":0,
			"byteLength":10800,
			"byteOffset":358648,
			"target":34962
		},
		{
			"buffer":0,
			"byteLength":10800,
			"byteOffset":369448,
			"target":34962
		},
		{
			"buffer":0,
			"byteLength":7200,
			"byteOffset":380248,
			"target":34962
		},
		{
			"buffer":0,
			"byteLength":10776,
			"byteOffset":387448,
			"target":34963
		},
		{
			"buffer":0,
			"byteLength":864,
			"byteOffset":398224,
			"target":34962
		},
		{
			"buffer":0,
			"byteLength":864,
			"byteOffset":399088,
			"target":34962
		},
		{
			"buffer":0,
			"byteLength":576,
			"byteOffset":399952,
			"target":34962
		},
		{
			"buffer":0,
			"byteLength":840,
			"byteOffset":400528,
			"target":34963
		},
		{
			"buffer":0,
			"byteLength":186324,
			"byteOffset":401368,
			"target":34962
		},
		{
			"buffer":0,
			"byteLength":186324,
			"byteOffset":587692,
			"target":34962
		},
		{
			"buffer":0,
			"byteLength":124216,
			"byteOffset":774016,
			"target":34962
		},
		{
			"buffer":0,
			"byteLength":125664,
			"byteOffset":898232,
			"target":34963
		},
		{
			"buffer":0,
			"byteLength":1728,
			"byteOffset":1023896,
			"target":34962
		},
		{
			"buffer":0,
			"byteLength":1728,
			"byteOffset":1025624,
			"target":34962
		},
		{
			"buffer":0,
			"byteLength":1152,
			"byteOffset":1027352,
			"target":34962
		},
		{
			"buffer":0,
			"byteLength":1704,
			"byteOffset":1028504,
			"target":34963
		},
		{
			"buffer":0,
			"byteLength":384,
			"byteOffset":1030208,
			"target":34962
		},
		{
			"buffer":0,
			"byteLength":384,
			"byteOffset":1030592,
			"target":34962
		},
		{
			"buffer":0,
			"byteLength":256,
			"byteOffset":1030976,
			"target":34962
		},
		{
			"buffer":0,
			"byteLength":204,
			"byteOffset":1031232,
			"target":34963
		}
	],
	"samplers":[
		{
			"magFilter":9729,
			"minFilter":9987
		}
	],
	"buffers":[
		{
			"byteLength":1031436,
			"uri":"plant.bin"
		}
	]
}
