{
	"asset":{
		"generator":"Khronos glTF Blender I/O v5.2.40",
		"version":"2.0"
	},
	"scene":0,
	"scenes":[
		{
			"name":"Scene",
			"nodes":[
				4
			]
		}
	],
	"nodes":[
		{
			"mesh":0,
			"name":"pebble"
		},
		{
			"mesh":1,
			"name":"plant"
		},
		{
			"mesh":2,
			"name":"pot"
		},
		{
			"mesh":3,
			"name":"soil"
		},
		{
			"children":[
				0,
				1,
				2,
				3
			],
			"name":"Bush_Plant"
		}
	],
	"materials":[
		{
			"doubleSided":true,
			"name":"plant3-rockMat",
			"pbrMetallicRoughness":{
				"baseColorFactor":[
					0,
					0,
					0,
					1
				],
				"metallicFactor":0,
				"roughnessFactor":0.5
			}
		},
		{
			"doubleSided":true,
			"name":"plant3-plantTex",
			"pbrMetallicRoughness":{
				"baseColorTexture":{
					"index":0
				},
				"metallicFactor":0,
				"roughnessFactor":0.5
			}
		},
		{
			"doubleSided":true,
			"name":"plant3-potTex",
			"pbrMetallicRoughness":{
				"baseColorTexture":{
					"index":1
				},
				"metallicFactor":0,
				"roughnessFactor":0.5
			}
		}
	],
	"meshes":[
		{
			"name":"Mesh.001",
			"primitives":[
				{
					"attributes":{
						"POSITION":0,
						"NORMAL":1,
						"TEXCOORD_0":2
					},
					"indices":3,
					"material":0
				}
			]
		},
		{
			"name":"Mesh.003",
			"primitives":[
				{
					"attributes":{
						"POSITION":4,
						"NORMAL":5,
						"TEXCOORD_0":6
					},
					"indices":7,
					"material":1
				}
			]
		},
		{
			"name":"Mesh.004",
			"primitives":[
				{
					"attributes":{
						"POSITION":8,
						"NORMAL":9,
						"TEXCOORD_0":10,
						"TEXCOORD_1":11
					},
					"indices":12,
					"material":2
				}
			]
		},
		{
			"name":"Mesh.002",
			"primitives":[
				{
					"attributes":{
						"POSITION":13,
						"NORMAL":14,
						"TEXCOORD_0":15
					},
					"indices":16
				}
			]
		}
	],
	"textures":[
		{
			"sampler":0,
			"source":0
		},
		{
			"sampler":0,
			"source":1
		}
	],
	"images":[
		{
			"mimeType":"image/png",
			"name":"stem_diffuse",
			"uri":"stem_diffuse.png"
		},
		{
			"mimeType":"image/jpeg",
			"name":"plant-concreteTex",
			"uri":"plant-concreteTex.jpg"
		}
	],
	"accessors":[
		{
			"bufferView":0,
			"componentType":5126,
			"count":32000,
			"max":[
				0.20030659437179565,
				0.2843583822250366,
				0.199088454246521
			],
			"min":[
				-0.19755487143993378,
				0.25331342220306396,
				-0.20270989835262299
			],
			"type":"VEC3"
		},
		{
			"bufferView":1,
			"componentType":5126,
			"count":32000,
			"type":"VEC3"
		},
		{
			"bufferView":2,
			"componentType":5126,
			"count":32000,
			"type":"VEC2"
		},
		{
			"bufferView":3,
			"componentType":5123,
			"count":120000,
			"type":"SCALAR"
		},
		{
			"bufferView":4,
			"componentType":5126,
			"count":29256,
			"max":[
				0.6999123692512512,
				1.13054358959198,
				0.7230658531188965
			],
			"min":[
				-0.7568313479423523,
				0.23831728100776672,
				-0.6652938723564148
			],
			"type":"VEC3"
		},
		{
			"bufferView":5,
			"componentType":5126,
			"count":29256,
			"type":"VEC3"
		},
		{
			"bufferView":6,
			"componentType":5126,
			"count":29256,
			"type":"VEC2"
		},
		{
			"bufferView":7,
			"componentType":5123,
			"count":43848,
			"type":"SCALAR"
		},
		{
			"bufferView":8,
			"componentType":5126,
			"count":6012,
			"max":[
				0.20889724791049957,
				0.30000001192092896,
				0.20889721810817719
			],
			"min":[
				-0.20889724791049957,
				-1.1100476093872658e-08,
				-0.20889727771282196
			],
			"type":"VEC3"
		},
		{
			"bufferView":9,
			"componentType":5126,
			"count":6012,
			"type":"VEC3"
		},
		{
			"bufferView":10,
			"componentType":5126,
			"count":6012,
			"type":"VEC2"
		},
		{
			"bufferView":11,
			"componentType":5126,
			"count":6012,
			"type":"VEC2"
		},
		{
			"bufferView":12,
			"componentType":5123,
			"count":23760,
			"type":"SCALAR"
		},
		{
			"bufferView":13,
			"componentType":5126,
			"count":145,
			"max":[
				0.1945813149213791,
				0.2758226990699768,
				0.1945813000202179
			],
			"min":[
				-0.1945813149213791,
				0.2600460648536682,
				-0.19458132982254028
			],
			"type":"VEC3"
		},
		{
			"bufferView":14,
			"componentType":5126,
			"count":145,
			"type":"VEC3"
		},
		{
			"bufferView":15,
			"componentType":5126,
			"count":145,
			"type":"VEC2"
		},
		{
			"bufferView":16,
			"componentType":5123,
			"count":540,
			"type":"SCALAR"
		}
	],
	"bufferViews":[
		{
			"buffer":0,
			"byteLength":384000,
			"byteOffset":0,
			"target":34962
		},
		{
			"buffer":0,
			"byteLength":384000,
			"byteOffset":384000,
			"target":34962
		},
		{
			"buffer":0,
			"byteLength":256000,
			"byteOffset":768000,
			"target":34962
		},
		{
			"buffer":0,
			"byteLength":240000,
			"byteOffset":1024000,
			"target":34963
		},
		{
			"buffer":0,
			"byteLength":351072,
			"byteOffset":1264000,
			"target":34962
		},
		{
			"buffer":0,
			"byteLength":351072,
			"byteOffset":1615072,
			"target":34962
		},
		{
			"buffer":0,
			"byteLength":234048,
			"byteOffset":1966144,
			"target":34962
		},
		{
			"buffer":0,
			"byteLength":87696,
			"byteOffset":2200192,
			"target":34963
		},
		{
			"buffer":0,
			"byteLength":72144,
			"byteOffset":2287888,
			"target":34962
		},
		{
			"buffer":0,
			"byteLength":72144,
			"byteOffset":2360032,
			"target":34962
		},
		{
			"buffer":0,
			"byteLength":48096,
			"byteOffset":2432176,
			"target":34962
		},
		{
			"buffer":0,
			"byteLength":48096,
			"byteOffset":2480272,
			"target":34962
		},
		{
			"buffer":0,
			"byteLength":47520,
			"byteOffset":2528368,
			"target":34963
		},
		{
			"buffer":0,
			"byteLength":1740,
			"byteOffset":2575888,
			"target":34962
		},
		{
			"buffer":0,
			"byteLength":1740,
			"byteOffset":2577628,
			"target":34962
		},
		{
			"buffer":0,
			"byteLength":1160,
			"byteOffset":2579368,
			"target":34962
		},
		{
			"buffer":0,
			"byteLength":1080,
			"byteOffset":2580528,
			"target":34963
		}
	],
	"samplers":[
		{
			"magFilter":9729,
			"minFilter":9987
		}
	],
	"buffers":[
		{
			"byteLength":2581608,
			"uri":"plant3.bin"
		}
	]
}
