{
	"asset":{
		"generator":"Khronos glTF Blender I/O v5.2.40",
		"version":"2.0"
	},
	"extensionsUsed":[
		"KHR_materials_specular"
	],
	"scene":0,
	"scenes":[
		{
			"name":"Scene",
			"nodes":[
				0,
				1,
				2
			]
		}
	],
	"nodes":[
		{
			"mesh":0,
			"name":"Arch_Floor"
		},
		{
			"mesh":1,
			"name":"Arch_Walls"
		},
		{
			"mesh":2,
			"name":"Arch_Windows"
		}
	],
	"materials":[
		{
			"doubleSided":true,
			"name":"Material.001",
			"pbrMetallicRoughness":{
				"baseColorTexture":{
					"index":0
				},
				"metallicFactor":0,
				"roughnessFactor":0.800000011920929
			}
		},
		{
			"doubleSided":true,
			"extensions":{
				"KHR_materials_specular":{
					"specularColorFactor":[
						2.0,
						2.0,
						2.0
					]
				}
			},
			"name":"Material Arch_Walls",
			"pbrMetallicRoughness":{
				"baseColorFactor":[
					0.847058892250061,
					0.847058892250061,
					0.847058892250061,
					1
				],
				"metallicFactor":0,
				"roughnessFactor":0.47543835639953613
			}
		},
		{
			"doubleSided":true,
			"name":"Material.002",
			"pbrMetallicRoughness":{
				"metallicFactor":0,
				"roughnessFactor":0.5
			}
		},
		{
			"doubleSided":true,
			"name":"Material.005",
			"pbrMetallicRoughness":{
				"baseColorFactor":[
					0.13843165338039398,
					0.10946174710988998,
					0.07818742841482162,
					1
				],
				"roughnessFactor":0.5
			}
		}
	],
	"meshes":[
		{
			"name":"Mesh.009",
			"primitives":[
				{
					"attributes":{
						"POSITION":0,
						"NORMAL":1,
						"TEXCOORD_0":2
					},
					"indices":3,
					"material":0
				}
			]
		},
		{
			"name":"Mesh",
			"primitives":[
				{
					"attributes":{
						"POSITION":4,
						"NORMAL":5,
						"TEXCOORD_0":6,
						"TEXCOORD_1":7
					},
					"indices":8,
					"material":1
				}
			]
		},
		{
			"name":"Mesh.019",
			"primitives":[
				{
					"attributes":{
						"POSITION":9,
						"NORMAL":10,
						"TEXCOORD_0":11,
						"TEXCOORD_1":12
					},
					"indices":13,
					"material":2
				},
				{
					"attributes":{
						"POSITION":14,
						"NORMAL":15,
						"TEXCOORD_0":16,
						"TEXCOORD_1":17
					},
					"indices":18,
					"material":3
				}
			]
		}
	],
	"textures":[
		{
			"sampler":0,
			"source":0
		}
	],
	"images":[
		{
			"mimeType":"image/jpeg",
			"name":"smoke_speckled_veneer_diff_4k",
			"uri":"smoke_speckled_veneer_diff_4k.jpg"
		}
	],
	"accessors":[
		{
			"bufferView":0,
			"componentType":5126,
			"count":5852,
			"max":[
				4.749988555908203,
				0.07999999076128006,
				-0.3999999761581421
			],
			"min":[
				-1.6689300537109375e-06,
				-1.9232973613725335e-07,
				-4.399991989135742
			],
			"type":"VEC3"
		},
		{
			"bufferView":1,
			"componentType":5126,
			"count":5852,
			"type":"VEC3"
		},
		{
			"bufferView":2,
			"componentType":5126,
			"count":5852,
			"type":"VEC2"
		},
		{
			"bufferView":3,
			"componentType":5123,
			"count":8784,
			"type":"SCALAR"
		},
		{
			"bufferView":4,
			"componentType":5126,
			"count":148,
			"max":[
				4.899988651275635,
				3.3999998569488525,
				-9.072276538921245e-23
			],
			"min":[
				-1.1274959785659173e-18,
				-2.0502703534930333e-07,
				-4.690472602844238
			],
			"type":"VEC3"
		},
		{
			"bufferView":5,
			"componentType":5126,
			"count":148,
			"type":"VEC3"
		},
		{
			"bufferView":6,
			"componentType":5126,
			"count":148,
			"type":"VEC2"
		},
		{
			"bufferView":7,
			"componentType":5126,
			"count":148,
			"type":"VEC2"
		},
		{
			"bufferView":8,
			"componentType":5123,
			"count":324,
			"type":"SCALAR"
		},
		{
			"bufferView":9,
			"componentType":5126,
			"count":16108,
			"max":[
				3.149996519088745,
				3.2742602825164795,
				-0.4000000059604645
			],
			"min":[
				-1.1274959785659173e-18,
				-6.119594075926216e-08,
				-4.346468925476074
			],
			"type":"VEC3"
		},
		{
			"bufferView":10,
			"componentType":5126,
			"count":16108,
			"type":"VEC3"
		},
		{
			"bufferView":11,
			"componentType":5126,
			"count":16108,
			"type":"VEC2"
		},
		{
			"bufferView":12,
			"componentType":5126,
			"count":16108,
			"type":"VEC2"
		},
		{
			"bufferView":13,
			"componentType":5123,
			"count":36336,
			"type":"SCALAR"
		},
		{
			"bufferView":14,
			"componentType":5126,
			"count":1867,
			"max":[
				0.18735337257385254,
				2.0582804679870605,
				-0.4417194128036499
			],
			"min":[
				0.1160128265619278,
				0.0072322110645473,
				-1.358280897140503
			],
			"type":"VEC3"
		},
		{
			"bufferView":15,
			"componentType":5126,
			"count":1867,
			"type":"VEC3"
		},
		{
			"bufferView":16,
			"componentType":5126,
			"count":1867,
			"type":"VEC2"
		},
		{
			"bufferView":17,
			"componentType":5126,
			"count":1867,
			"type":"VEC2"
		},
		{
			"bufferView":18,
			"componentType":5123,
			"count":9426,
			"type":"SCALAR"
		}
	],
	"bufferViews":[
		{
			"buffer":0,
			"byteLength":70224,
			"byteOffset":0,
			"target":34962
		},
		{
			"buffer":0,
			"byteLength":70224,
			"byteOffset":70224,
			"target":34962
		},
		{
			"buffer":0,
			"byteLength":46816,
			"byteOffset":140448,
			"target":34962
		},
		{
			"buffer":0,
			"byteLength":17568,
			"byteOffset":187264,
			"target":34963
		},
		{
			"buffer":0,
			"byteLength":1776,
			"byteOffset":204832,
			"target":34962
		},
		{
			"buffer":0,
			"byteLength":1776,
			"byteOffset":206608,
			"target":34962
		},
		{
			"buffer":0,
			"byteLength":1184,
			"byteOffset":208384,
			"target":34962
		},
		{
			"buffer":0,
			"byteLength":1184,
			"byteOffset":209568,
			"target":34962
		},
		{
			"buffer":0,
			"byteLength":648,
			"byteOffset":210752,
			"target":34963
		},
		{
			"buffer":0,
			"byteLength":193296,
			"byteOffset":211400,
			"target":34962
		},
		{
			"buffer":0,
			"byteLength":193296,
			"byteOffset":404696,
			"target":34962
		},
		{
			"buffer":0,
			"byteLength":128864,
			"byteOffset":597992,
			"target":34962
		},
		{
			"buffer":0,
			"byteLength":128864,
			"byteOffset":726856,
			"target":34962
		},
		{
			"buffer":0,
			"byteLength":72672,
			"byteOffset":855720,
			"target":34963
		},
		{
			"buffer":0,
			"byteLength":22404,
			"byteOffset":928392,
			"target":34962
		},
		{
			"buffer":0,
			"byteLength":22404,
			"byteOffset":950796,
			"target":34962
		},
		{
			"buffer":0,
			"byteLength":14936,
			"byteOffset":973200,
			"target":34962
		},
		{
			"buffer":0,
			"byteLength":14936,
			"byteOffset":988136,
			"target":34962
		},
		{
			"buffer":0,
			"byteLength":18852,
			"byteOffset":1003072,
			"target":34963
		}
	],
	"samplers":[
		{
			"magFilter":9729,
			"minFilter":9987
		}
	],
	"buffers":[
		{
			"byteLength":1021924,
			"uri":"room.bin"
		}
	]
}
