{
	"asset":{
		"generator":"Khronos glTF Blender I/O v5.2.40",
		"version":"2.0"
	},
	"scene":0,
	"scenes":[
		{
			"name":"Scene",
			"nodes":[
				0
			]
		}
	],
	"nodes":[
		{
			"mesh":0,
			"name":"Vivense_Carpet001"
		}
	],
	"materials":[
		{
			"doubleSided":true,
			"name":"Material.001",
			"pbrMetallicRoughness":{
				"baseColorTexture":{
					"index":0
				},
				"metallicFactor":0,
				"roughnessFactor":0.5
			}
		}
	],
	"meshes":[
		{
			"name":"Mesh",
			"primitives":[
				{
					"attributes":{
						"POSITION":0,
						"NORMAL":1,
						"TEXCOORD_0":2
					},
					"indices":3,
					"material":0
				}
			]
		}
	],
	"textures":[
		{
			"sampler":0,
			"source":0
		}
	],
	"images":[
		{
			"mimeType":"image/jpeg",
			"name":"curly_teddy_natural_diff_4k",
			"uri":"curly_teddy_natural_diff_4k.jpg"
		}
	],
	"accessors":[
		{
			"bufferView":0,
			"componentType":5126,
			"count":108424,
			"max":[
				-2.408965826034546,
				0.01293657161295414,
				0.8703406453132629
			],
			"min":[
				-4.618718147277832,
				0.007234401069581509,
				-0.7425172924995422
			],
			"type":"VEC3"
		},
		{
			"bufferView":1,
			"componentType":5126,
			"count":108424,
			"type":"VEC3"
		},
		{
			"bufferView":2,
			"componentType":5126,
			"count":108424,
			"type":"VEC2"
		},
		{
			"bufferView":3,
			"componentType":5125,
			"count":605880,
			"type":"SCALAR"
		}
	],
	"bufferViews":[
		{
			"buffer":0,
			"byteLength":1301088,
			"byteOffset":0,
			"target":34962
		},
		{
			"buffer":0,
			"byteLength":1301088,
			"byteOffset":1301088,
			"target":34962
		},
		{
			"buffer":0,
			"byteLength":867392,
			"byteOffset":2602176,
			"target":34962
		},
		{
			"buffer":0,
			"byteLength":2423520,
			"byteOffset":3469568,
			"target":34963
		}
	],
	"samplers":[
		{
			"magFilter":9729,
			"minFilter":9987
		}
	],
	"buffers":[
		{
			"byteLength":5893088,
			"uri":"rug.bin"
		}
	]
}
