{
	"asset":{
		"generator":"Khronos glTF Blender I/O v5.2.40",
		"version":"2.0"
	},
	"extensionsUsed":[
		"KHR_materials_emissive_strength"
	],
	"scene":0,
	"scenes":[
		{
			"name":"Scene",
			"nodes":[
				0
			]
		}
	],
	"nodes":[
		{
			"mesh":0,
			"name":"Text.001",
			"rotation":[
				0.7071068286895752,
				0,
				0,
				0.7071068286895752
			],
			"scale":[
				1.0597790479660034,
				1.0597790479660034,
				1.0597790479660034
			],
			"translation":[
				18.36167335510254,
				1.9524250030517578,
				0.02587703801691532
			]
		}
	],
	"materials":[
		{
			"doubleSided":true,
			"emissiveFactor":[
				0,
				0.5786221623420715,
				1
			],
			"extensions":{
				"KHR_materials_emissive_strength":{
					"emissiveStrength":11.19999885559082
				}
			},
			"name":"Lines Neon Text dense",
			"pbrMetallicRoughness":{
				"baseColorFactor":[
					0,
					0,
					0,
					1
				]
			}
		}
	],
	"meshes":[
		{
			"name":"Text.005",
			"primitives":[
				{
					"attributes":{
						"POSITION":0,
						"NORMAL":1,
						"TEXCOORD_0":2
					},
					"indices":3,
					"material":0
				}
			]
		}
	],
	"accessors":[
		{
			"bufferView":0,
			"componentType":5126,
			"count":409,
			"max":[
				3.3179171085357666,
				0,
				0.3400000035762787
			],
			"min":[
				-3.287916898727417,
				0,
				-0.3108333349227905
			],
			"type":"VEC3"
		},
		{
			"bufferView":1,
			"componentType":5126,
			"count":409,
			"type":"VEC3"
		},
		{
			"bufferView":2,
			"componentType":5126,
			"count":409,
			"type":"VEC2"
		},
		{
			"bufferView":3,
			"componentType":5123,
			"count":1140,
			"type":"SCALAR"
		}
	],
	"bufferViews":[
		{
			"buffer":0,
			"byteLength":4908,
			"byteOffset":0,
			"target":34962
		},
		{
			"buffer":0,
			"byteLength":4908,
			"byteOffset":4908,
			"target":34962
		},
		{
			"buffer":0,
			"byteLength":3272,
			"byteOffset":9816,
			"target":34962
		},
		{
			"buffer":0,
			"byteLength":2280,
			"byteOffset":13088,
			"target":34963
		}
	],
	"buffers":[
		{
			"byteLength":15368,
			"uri":"sign_neon2.bin"
		}
	]
}
