{
	"asset":{
		"generator":"Khronos glTF Blender I/O v5.2.40",
		"version":"2.0"
	},
	"extensionsUsed":[
		"KHR_materials_emissive_strength"
	],
	"scene":0,
	"scenes":[
		{
			"name":"Scene",
			"nodes":[
				0,
				1
			]
		}
	],
	"nodes":[
		{
			"mesh":0,
			"name":"Plane.001",
			"rotation":[
				0.7071068286895752,
				0,
				0,
				0.7071068286895752
			],
			"translation":[
				18.36167335510254,
				4.6315107345581055,
				-0.02587703801691532
			]
		},
		{
			"mesh":1,
			"name":"Text.001",
			"rotation":[
				0.7071068286895752,
				0,
				0,
				0.7071068286895752
			],
			"scale":[
				1.0597790479660034,
				1.0597790479660034,
				1.0597790479660034
			],
			"translation":[
				18.36167335510254,
				4.6315107345581055,
				0.02587703801691532
			]
		}
	],
	"materials":[
		{
			"doubleSided":true,
			"name":"Material.004",
			"pbrMetallicRoughness":{
				"baseColorFactor":[
					0.08169595152139664,
					0.08169595152139664,
					0.08169595152139664,
					1
				],
				"metallicFactor":0,
				"roughnessFactor":0.8111110925674438
			}
		},
		{
			"doubleSided":true,
			"emissiveFactor":[
				0,
				0.30391407012939453,
				1
			],
			"extensions":{
				"KHR_materials_emissive_strength":{
					"emissiveStrength":3
				}
			},
			"name":"Simple",
			"pbrMetallicRoughness":{
				"baseColorFactor":[
					0,
					0,
					0,
					1
				]
			}
		},
		{
			"doubleSided":true,
			"emissiveFactor":[
				0,
				0.5786221623420715,
				1
			],
			"extensions":{
				"KHR_materials_emissive_strength":{
					"emissiveStrength":11.19999885559082
				}
			},
			"name":"Lines Neon Text dense",
			"pbrMetallicRoughness":{
				"baseColorFactor":[
					0,
					0,
					0,
					1
				]
			}
		}
	],
	"meshes":[
		{
			"name":"Plane.001",
			"primitives":[
				{
					"attributes":{
						"POSITION":0,
						"NORMAL":1,
						"TEXCOORD_0":2
					},
					"indices":3,
					"material":0
				},
				{
					"attributes":{
						"POSITION":4,
						"NORMAL":5,
						"TEXCOORD_0":6
					},
					"indices":7,
					"material":1
				}
			]
		},
		{
			"name":"Text.005",
			"primitives":[
				{
					"attributes":{
						"POSITION":8,
						"NORMAL":9,
						"TEXCOORD_0":10
					},
					"indices":11,
					"material":2
				}
			]
		}
	],
	"accessors":[
		{
			"bufferView":0,
			"componentType":5126,
			"count":20,
			"max":[
				3.655663013458252,
				0,
				1
			],
			"min":[
				-3.655663013458252,
				0,
				-1
			],
			"type":"VEC3"
		},
		{
			"bufferView":1,
			"componentType":5126,
			"count":20,
			"type":"VEC3"
		},
		{
			"bufferView":2,
			"componentType":5126,
			"count":20,
			"type":"VEC2"
		},
		{
			"bufferView":3,
			"componentType":5123,
			"count":54,
			"type":"SCALAR"
		},
		{
			"bufferView":4,
			"componentType":5126,
			"count":960,
			"max":[
				3.6839473247528076,
				0.04000000283122063,
				1.0282843112945557
			],
			"min":[
				-3.6839473247528076,
				-0.04000000283122063,
				-1.0282843112945557
			],
			"type":"VEC3"
		},
		{
			"bufferView":5,
			"componentType":5126,
			"count":960,
			"type":"VEC3"
		},
		{
			"bufferView":6,
			"componentType":5126,
			"count":960,
			"type":"VEC2"
		},
		{
			"bufferView":7,
			"componentType":5123,
			"count":1440,
			"type":"SCALAR"
		},
		{
			"bufferView":8,
			"componentType":5126,
			"count":409,
			"max":[
				3.3179171085357666,
				0,
				0.3400000035762787
			],
			"min":[
				-3.287916898727417,
				0,
				-0.3108333349227905
			],
			"type":"VEC3"
		},
		{
			"bufferView":9,
			"componentType":5126,
			"count":409,
			"type":"VEC3"
		},
		{
			"bufferView":10,
			"componentType":5126,
			"count":409,
			"type":"VEC2"
		},
		{
			"bufferView":11,
			"componentType":5123,
			"count":1140,
			"type":"SCALAR"
		}
	],
	"bufferViews":[
		{
			"buffer":0,
			"byteLength":240,
			"byteOffset":0,
			"target":34962
		},
		{
			"buffer":0,
			"byteLength":240,
			"byteOffset":240,
			"target":34962
		},
		{
			"buffer":0,
			"byteLength":160,
			"byteOffset":480,
			"target":34962
		},
		{
			"buffer":0,
			"byteLength":108,
			"byteOffset":640,
			"target":34963
		},
		{
			"buffer":0,
			"byteLength":11520,
			"byteOffset":748,
			"target":34962
		},
		{
			"buffer":0,
			"byteLength":11520,
			"byteOffset":12268,
			"target":34962
		},
		{
			"buffer":0,
			"byteLength":7680,
			"byteOffset":23788,
			"target":34962
		},
		{
			"buffer":0,
			"byteLength":2880,
			"byteOffset":31468,
			"target":34963
		},
		{
			"buffer":0,
			"byteLength":4908,
			"byteOffset":34348,
			"target":34962
		},
		{
			"buffer":0,
			"byteLength":4908,
			"byteOffset":39256,
			"target":34962
		},
		{
			"buffer":0,
			"byteLength":3272,
			"byteOffset":44164,
			"target":34962
		},
		{
			"buffer":0,
			"byteLength":2280,
			"byteOffset":47436,
			"target":34963
		}
	],
	"buffers":[
		{
			"byteLength":49716,
			"uri":"sign_neon.bin"
		}
	]
}
